<svg xmlns="http://www.w3.org/2000/svg" xmlns:xlink="http://www.w3.org/1999/xlink" contentStyleType="text/css" data-diagram-type="DESCRIPTION" height="580px" preserveAspectRatio="none" style="width:1249px;height:580px;background:#FFFFFF;" version="1.1" viewBox="0 0 1249 580" width="1249px" zoomAndPan="magnify"><defs/><g><!--cluster UserInterface--><g class="cluster" data-entity="UserInterface" data-source-line="3" data-uid="ent0002" id="cluster_UserInterface"><path d="M8.5,6 L117.2002,6 A3.75,3.75 0 0 1 119.7002,8.5 L126.7002,28.2969 L538.5,28.2969 A2.5,2.5 0 0 1 541,30.7969 L541,261.09 A2.5,2.5 0 0 1 538.5,263.59 L8.5,263.59 A2.5,2.5 0 0 1 6,261.09 L6,8.5 A2.5,2.5 0 0 1 8.5,6" fill="none" style="stroke:#000000;stroke-width:1.5;"/><line style="stroke:#000000;stroke-width:1.5;" x1="6" x2="126.7002" y1="28.2969" y2="28.2969"/><text fill="#000000" font-family="sans-serif" font-size="14" font-weight="bold" lengthAdjust="spacing" textLength="107.7002" x="10" y="20.9951">UserInterface</text></g><!--cluster BusinessServices--><g class="cluster" data-entity="BusinessServices" data-source-line="11" data-uid="ent0008" id="cluster_BusinessServices"><path d="M583.5,150.3 L720.9316,150.3 A3.75,3.75 0 0 1 723.4316,152.8 L730.4316,172.5969 L1239.5,172.5969 A2.5,2.5 0 0 1 1242,175.0969 L1242,423.39 A2.5,2.5 0 0 1 1239.5,425.89 L583.5,425.89 A2.5,2.5 0 0 1 581,423.39 L581,152.8 A2.5,2.5 0 0 1 583.5,150.3" fill="none" style="stroke:#000000;stroke-width:1.5;"/><line style="stroke:#000000;stroke-width:1.5;" x1="581" x2="730.4316" y1="172.5969" y2="172.5969"/><text fill="#000000" font-family="sans-serif" font-size="14" font-weight="bold" lengthAdjust="spacing" textLength="136.4316" x="585" y="165.2951">BusinessServices</text></g><!--cluster BusinessObjects--><g class="cluster" data-entity="BusinessObjects" data-source-line="19" data-uid="ent0014" id="cluster_BusinessObjects"><path d="M111.5,312.59 L241.9385,312.59 A3.75,3.75 0 0 1 244.4385,315.09 L251.4385,334.8869 L527.5,334.8869 A2.5,2.5 0 0 1 530,337.3869 L530,570.54 A2.5,2.5 0 0 1 527.5,573.04 L111.5,573.04 A2.5,2.5 0 0 1 109,570.54 L109,315.09 A2.5,2.5 0 0 1 111.5,312.59" fill="none" style="stroke:#000000;stroke-width:1.5;"/><line style="stroke:#000000;stroke-width:1.5;" x1="109" x2="251.4385" y1="334.8869" y2="334.8869"/><text fill="#000000" font-family="sans-serif" font-size="14" font-weight="bold" lengthAdjust="spacing" textLength="129.4385" x="113" y="327.5851">BusinessObjects</text></g><!--entity LoginForm--><g class="entity" data-entity="LoginForm" data-source-line="4" data-uid="ent0003" id="entity_LoginForm"><rect fill="#F1F1F1" height="46.2969" rx="2.5" ry="2.5" style="stroke:#181818;stroke-width:0.5;" width="114.0264" x="29.99" y="49"/><rect fill="#F1F1F1" height="10" style="stroke:#181818;stroke-width:0.5;" width="15" x="124.0164" y="54"/><rect fill="#F1F1F1" height="2" style="stroke:#181818;stroke-width:0.5;" width="4" x="122.0164" y="56"/><rect fill="#F1F1F1" height="2" style="stroke:#181818;stroke-width:0.5;" width="4" x="122.0164" y="60"/><text fill="#000000" font-family="sans-serif" font-size="14" lengthAdjust="spacing" textLength="74.0264" x="44.99" y="81.9951">LoginForm</text></g><!--entity CourseForm--><g class="entity" data-entity="CourseForm" data-source-line="5" data-uid="ent0004" id="entity_CourseForm"><rect fill="#F1F1F1" height="46.2969" rx="2.5" ry="2.5" style="stroke:#181818;stroke-width:0.5;" width="124.8887" x="178.56" y="49"/><rect fill="#F1F1F1" height="10" style="stroke:#181818;stroke-width:0.5;" width="15" x="283.4487" y="54"/><rect fill="#F1F1F1" height="2" style="stroke:#181818;stroke-width:0.5;" width="4" x="281.4487" y="56"/><rect fill="#F1F1F1" height="2" style="stroke:#181818;stroke-width:0.5;" width="4" x="281.4487" y="60"/><text fill="#000000" font-family="sans-serif" font-size="14" lengthAdjust="spacing" textLength="84.8887" x="193.56" y="81.9951">CourseForm</text></g><!--entity AssignmentForm--><g class="entity" data-entity="AssignmentForm" data-source-line="6" data-uid="ent0005" id="entity_AssignmentForm"><rect fill="#F1F1F1" height="46.2969" rx="2.5" ry="2.5" style="stroke:#181818;stroke-width:0.5;" width="158.4395" x="338.78" y="49"/><rect fill="#F1F1F1" height="10" style="stroke:#181818;stroke-width:0.5;" width="15" x="477.2195" y="54"/><rect fill="#F1F1F1" height="2" style="stroke:#181818;stroke-width:0.5;" width="4" x="475.2195" y="56"/><rect fill="#F1F1F1" height="2" style="stroke:#181818;stroke-width:0.5;" width="4" x="475.2195" y="60"/><text fill="#000000" font-family="sans-serif" font-size="14" lengthAdjust="spacing" textLength="118.4395" x="353.78" y="81.9951">AssignmentForm</text></g><!--entity SessionForm--><g class="entity" data-entity="SessionForm" data-source-line="7" data-uid="ent0006" id="entity_SessionForm"><rect fill="#F1F1F1" height="46.2969" rx="2.5" ry="2.5" style="stroke:#181818;stroke-width:0.5;" width="129.4277" x="72.29" y="193.3"/><rect fill="#F1F1F1" height="10" style="stroke:#181818;stroke-width:0.5;" width="15" x="181.7177" y="198.3"/><rect fill="#F1F1F1" height="2" style="stroke:#181818;stroke-width:0.5;" width="4" x="179.7177" y="200.3"/><rect fill="#F1F1F1" height="2" style="stroke:#181818;stroke-width:0.5;" width="4" x="179.7177" y="204.3"/><text fill="#000000" font-family="sans-serif" font-size="14" lengthAdjust="spacing" textLength="89.4277" x="87.29" y="226.2951">SessionForm</text></g><!--entity CertificateForm--><g class="entity" data-entity="CertificateForm" data-source-line="8" data-uid="ent0007" id="entity_CertificateForm"><rect fill="#F1F1F1" height="46.2969" rx="2.5" ry="2.5" style="stroke:#181818;stroke-width:0.5;" width="148.7324" x="236.63" y="193.3"/><rect fill="#F1F1F1" height="10" style="stroke:#181818;stroke-width:0.5;" width="15" x="365.3624" y="198.3"/><rect fill="#F1F1F1" height="2" style="stroke:#181818;stroke-width:0.5;" width="4" x="363.3624" y="200.3"/><rect fill="#F1F1F1" height="2" style="stroke:#181818;stroke-width:0.5;" width="4" x="363.3624" y="204.3"/><text fill="#000000" font-family="sans-serif" font-size="14" lengthAdjust="spacing" textLength="108.7324" x="251.63" y="226.2951">CertificateForm</text></g><!--entity UserAuthController--><g class="entity" data-entity="UserAuthController" data-source-line="12" data-uid="ent0009" id="entity_UserAuthController"><rect fill="#F1F1F1" height="46.2969" rx="2.5" ry="2.5" style="stroke:#181818;stroke-width:0.5;" width="173.8955" x="624.05" y="193.3"/><rect fill="#F1F1F1" height="10" style="stroke:#181818;stroke-width:0.5;" width="15" x="777.9455" y="198.3"/><rect fill="#F1F1F1" height="2" style="stroke:#181818;stroke-width:0.5;" width="4" x="775.9455" y="200.3"/><rect fill="#F1F1F1" height="2" style="stroke:#181818;stroke-width:0.5;" width="4" x="775.9455" y="204.3"/><text fill="#000000" font-family="sans-serif" font-size="14" lengthAdjust="spacing" textLength="133.8955" x="639.05" y="226.2951">UserAuthController</text></g><!--entity CourseController--><g class="entity" data-entity="CourseController" data-source-line="13" data-uid="ent0010" id="entity_CourseController"><rect fill="#F1F1F1" height="46.2969" rx="2.5" ry="2.5" style="stroke:#181818;stroke-width:0.5;" width="158.0498" x="832.98" y="193.3"/><rect fill="#F1F1F1" height="10" style="stroke:#181818;stroke-width:0.5;" width="15" x="971.0298" y="198.3"/><rect fill="#F1F1F1" height="2" style="stroke:#181818;stroke-width:0.5;" width="4" x="969.0298" y="200.3"/><rect fill="#F1F1F1" height="2" style="stroke:#181818;stroke-width:0.5;" width="4" x="969.0298" y="204.3"/><text fill="#000000" font-family="sans-serif" font-size="14" lengthAdjust="spacing" textLength="118.0498" x="847.98" y="226.2951">CourseController</text></g><!--entity AssignmentController--><g class="entity" data-entity="AssignmentController" data-source-line="14" data-uid="ent0011" id="entity_AssignmentController"><rect fill="#F1F1F1" height="46.2969" rx="2.5" ry="2.5" style="stroke:#181818;stroke-width:0.5;" width="191.6006" x="1026.2" y="193.3"/><rect fill="#F1F1F1" height="10" style="stroke:#181818;stroke-width:0.5;" width="15" x="1197.8006" y="198.3"/><rect fill="#F1F1F1" height="2" style="stroke:#181818;stroke-width:0.5;" width="4" x="1195.8006" y="200.3"/><rect fill="#F1F1F1" height="2" style="stroke:#181818;stroke-width:0.5;" width="4" x="1195.8006" y="204.3"/><text fill="#000000" font-family="sans-serif" font-size="14" lengthAdjust="spacing" textLength="151.6006" x="1041.2" y="226.2951">AssignmentController</text></g><!--entity SessionController--><g class="entity" data-entity="SessionController" data-source-line="15" data-uid="ent0012" id="entity_SessionController"><rect fill="#F1F1F1" height="46.2969" rx="2.5" ry="2.5" style="stroke:#181818;stroke-width:0.5;" width="162.5889" x="629.71" y="355.59"/><rect fill="#F1F1F1" height="10" style="stroke:#181818;stroke-width:0.5;" width="15" x="772.2989" y="360.59"/><rect fill="#F1F1F1" height="2" style="stroke:#181818;stroke-width:0.5;" width="4" x="770.2989" y="362.59"/><rect fill="#F1F1F1" height="2" style="stroke:#181818;stroke-width:0.5;" width="4" x="770.2989" y="366.59"/><text fill="#000000" font-family="sans-serif" font-size="14" lengthAdjust="spacing" textLength="122.5889" x="644.71" y="388.5851">SessionController</text></g><!--entity CertificateController--><g class="entity" data-entity="CertificateController" data-source-line="16" data-uid="ent0013" id="entity_CertificateController"><rect fill="#F1F1F1" height="46.2969" rx="2.5" ry="2.5" style="stroke:#181818;stroke-width:0.5;" width="181.8936" x="827.05" y="355.59"/><rect fill="#F1F1F1" height="10" style="stroke:#181818;stroke-width:0.5;" width="15" x="988.9436" y="360.59"/><rect fill="#F1F1F1" height="2" style="stroke:#181818;stroke-width:0.5;" width="4" x="986.9436" y="362.59"/><rect fill="#F1F1F1" height="2" style="stroke:#181818;stroke-width:0.5;" width="4" x="986.9436" y="366.59"/><text fill="#000000" font-family="sans-serif" font-size="14" lengthAdjust="spacing" textLength="141.8936" x="842.05" y="388.5851">CertificateController</text></g><!--entity User--><g class="entity" data-entity="User" data-source-line="20" data-uid="ent0015" id="entity_User"><rect fill="#F1F1F1" height="46.2969" rx="2.5" ry="2.5" style="stroke:#181818;stroke-width:0.5;" width="71.9102" x="133.04" y="355.59"/><rect fill="#F1F1F1" height="10" style="stroke:#181818;stroke-width:0.5;" width="15" x="184.9502" y="360.59"/><rect fill="#F1F1F1" height="2" style="stroke:#181818;stroke-width:0.5;" width="4" x="182.9502" y="362.59"/><rect fill="#F1F1F1" height="2" style="stroke:#181818;stroke-width:0.5;" width="4" x="182.9502" y="366.59"/><text fill="#000000" font-family="sans-serif" font-size="14" lengthAdjust="spacing" textLength="31.9102" x="148.04" y="388.5851">User</text></g><!--entity Course--><g class="entity" data-entity="Course" data-source-line="21" data-uid="ent0016" id="entity_Course"><rect fill="#F1F1F1" height="46.2969" rx="2.5" ry="2.5" style="stroke:#181818;stroke-width:0.5;" width="88.877" x="239.56" y="355.59"/><rect fill="#F1F1F1" height="10" style="stroke:#181818;stroke-width:0.5;" width="15" x="308.437" y="360.59"/><rect fill="#F1F1F1" height="2" style="stroke:#181818;stroke-width:0.5;" width="4" x="306.437" y="362.59"/><rect fill="#F1F1F1" height="2" style="stroke:#181818;stroke-width:0.5;" width="4" x="306.437" y="366.59"/><text fill="#000000" font-family="sans-serif" font-size="14" lengthAdjust="spacing" textLength="48.877" x="254.56" y="388.5851">Course</text></g><!--entity Assignment--><g class="entity" data-entity="Assignment" data-source-line="22" data-uid="ent0017" id="entity_Assignment"><rect fill="#F1F1F1" height="46.2969" rx="2.5" ry="2.5" style="stroke:#181818;stroke-width:0.5;" width="122.4277" x="363.79" y="355.59"/><rect fill="#F1F1F1" height="10" style="stroke:#181818;stroke-width:0.5;" width="15" x="466.2177" y="360.59"/><rect fill="#F1F1F1" height="2" style="stroke:#181818;stroke-width:0.5;" width="4" x="464.2177" y="362.59"/><rect fill="#F1F1F1" height="2" style="stroke:#181818;stroke-width:0.5;" width="4" x="464.2177" y="366.59"/><text fill="#000000" font-family="sans-serif" font-size="14" lengthAdjust="spacing" textLength="82.4277" x="378.79" y="388.5851">Assignment</text></g><!--entity Session--><g class="entity" data-entity="Session" data-source-line="23" data-uid="ent0018" id="entity_Session"><rect fill="#F1F1F1" height="46.2969" rx="2.5" ry="2.5" style="stroke:#181818;stroke-width:0.5;" width="93.416" x="133.29" y="502.74"/><rect fill="#F1F1F1" height="10" style="stroke:#181818;stroke-width:0.5;" width="15" x="206.706" y="507.74"/><rect fill="#F1F1F1" height="2" style="stroke:#181818;stroke-width:0.5;" width="4" x="204.706" y="509.74"/><rect fill="#F1F1F1" height="2" style="stroke:#181818;stroke-width:0.5;" width="4" x="204.706" y="513.74"/><text fill="#000000" font-family="sans-serif" font-size="14" lengthAdjust="spacing" textLength="53.416" x="148.29" y="535.7351">Session</text></g><!--entity Certificate--><g class="entity" data-entity="Certificate" data-source-line="24" data-uid="ent0019" id="entity_Certificate"><rect fill="#F1F1F1" height="46.2969" rx="2.5" ry="2.5" style="stroke:#181818;stroke-width:0.5;" width="112.7207" x="261.64" y="502.74"/><rect fill="#F1F1F1" height="10" style="stroke:#181818;stroke-width:0.5;" width="15" x="354.3607" y="507.74"/><rect fill="#F1F1F1" height="2" style="stroke:#181818;stroke-width:0.5;" width="4" x="352.3607" y="509.74"/><rect fill="#F1F1F1" height="2" style="stroke:#181818;stroke-width:0.5;" width="4" x="352.3607" y="513.74"/><text fill="#000000" font-family="sans-serif" font-size="14" lengthAdjust="spacing" textLength="72.7207" x="276.64" y="535.7351">Certificate</text></g><!--entity MySQL--><g class="entity" data-entity="MySQL" data-source-line="29" data-uid="ent0022" id="entity_MySQL"><ellipse cx="586" cy="525.89" fill="#F1F1F1" rx="8" ry="8" style="stroke:#181818;stroke-width:0.5;"/><text fill="#000000" font-family="sans-serif" font-size="14" lengthAdjust="spacing" textLength="48.0703" x="561.9648" y="555.8851">MySQL</text></g><!--entity AWSS3--><g class="entity" data-entity="AWSS3" data-source-line="30" data-uid="ent0024" id="entity_AWSS3"><ellipse cx="686" cy="525.89" fill="#F1F1F1" rx="8" ry="8" style="stroke:#181818;stroke-width:0.5;"/><text fill="#000000" font-family="sans-serif" font-size="14" lengthAdjust="spacing" textLength="50.1006" x="660.9497" y="555.8851">AWSS3</text></g><!--link UserInterface to BusinessServices--><g class="link" data-entity-1="UserInterface" data-entity-2="BusinessServices" data-source-line="27" data-uid="lnk20" id="link_UserInterface_BusinessServices"><path d="M541.0643,93.6377 C541.1414,93.8336 541.2189,94.0305 541.2968,94.2286 C541.6085,95.0206 541.9269,95.8294 542.2514,96.6541 C547.4441,109.8481 554.2281,127.0863 561.0113,144.3225 C567.7944,161.5587 574.5766,178.7931 579.7655,191.9797 C580.0898,192.8038 580.4079,193.6122 580.7193,194.4037 C580.7972,194.6016 578.6777,189.2152 578.7547,189.4109" fill="none" id="UserInterface-to-BusinessServices" style="stroke:#181818;stroke-width:1;"/><polygon fill="#181818" points="580.9517,194.9942,581.3784,185.1546,579.1209,190.3415,573.934,188.084,580.9517,194.9942" style="stroke:#181818;stroke-width:1;"/></g><!--link BusinessServices to BusinessObjects--><g class="link" data-entity-1="BusinessServices" data-entity-2="BusinessObjects" data-source-line="28" data-uid="lnk21" id="link_BusinessServices_BusinessObjects"><path d="M580.9537,236.6894 C580.8677,236.8951 580.7812,237.1021 580.6942,237.3104 C580.5201,237.7269 580.3438,238.1485 580.1655,238.5752 C579.4521,240.2819 578.7053,242.0686 577.9288,243.9266 C571.7163,258.79 563.6,278.2088 555.485,297.625 C547.37,317.0413 539.2562,336.455 533.0487,351.3084 C532.2728,353.1651 531.5267,354.9505 530.814,356.6558 C530.6359,357.0821 530.4598,357.5034 530.2859,357.9196 C530.1989,358.1277 532.426,352.7984 532.3402,353.0039" fill="none" id="BusinessServices-to-BusinessObjects" style="stroke:#181818;stroke-width:1;"/><polygon fill="#181818" points="530.0266,358.54,537.1876,351.7783,531.9546,353.9266,529.8062,348.6936,530.0266,358.54" style="stroke:#181818;stroke-width:1;"/></g><!--link BusinessObjects to MySQL--><g class="link" data-entity-1="BusinessObjects" data-entity-2="MySQL" data-source-line="29" data-uid="lnk23" id="link_BusinessObjects_MySQL"><path d="M530.1192,398.1583 C530.1921,398.3237 530.2654,398.4899 530.3391,398.657 C535.0544,409.3522 541.3238,423.5706 547.9525,438.6037 C561.21,468.67 573.4847,496.5048 580.0597,511.4198" fill="none" id="BusinessObjects-to-MySQL" style="stroke:#181818;stroke-width:1;"/><polygon fill="#181818" points="582.48,516.91,582.5098,507.0612,580.4631,512.3348,575.1895,510.2882,582.48,516.91" style="stroke:#181818;stroke-width:1;"/><text fill="#000000" font-family="sans-serif" font-size="13" lengthAdjust="spacing" textLength="50.8638" x="560" y="462.9569">Storage</text></g><!--link BusinessObjects to AWSS3--><g class="link" data-entity-1="BusinessObjects" data-entity-2="AWSS3" data-source-line="30" data-uid="lnk25" id="link_BusinessObjects_AWSS3"><path d="M530.0041,385.52 C530.2203,385.6762 530.4402,385.835 530.6637,385.9964 C531.1107,386.3192 531.5721,386.6524 532.0472,386.9956 C533.9477,388.3681 536.0673,389.899 538.3614,391.5559 C547.5378,398.1837 559.5056,406.8287 571.4013,415.425 C595.1925,432.6175 618.695,449.615 619,449.89 C643.63,472.11 664.899,497.9453 676.139,512.2253" fill="none" id="BusinessObjects-to-AWSS3" style="stroke:#181818;stroke-width:1;"/><polygon fill="#181818" points="679.85,516.94,677.4266,507.3939,676.7575,513.0111,671.1404,512.342,679.85,516.94" style="stroke:#181818;stroke-width:1;"/><text fill="#000000" font-family="sans-serif" font-size="13" lengthAdjust="spacing" textLength="74.1216" x="635" y="462.9569">Documents</text></g><!--SRC=[RP112W8n34NtFKKluCgT2s5K144HAU92NDGIn-gqaJGLHBoxCpeujRhCpq_-IyBP-eicxQH3Z-P8w40oHH3YeirPbo3N0MZc6UYW3SYxa78xnzBwAPBRDTKO8mNub4K8jlGEF7ya1RM6oGGGsuCrcjknHnStYi7wsg-0hjP0U2Ss44NaunWz4rOLK1ATYHr0rcWnyXqTJDhvWxJSdy1mGfGmPCbfNfxosltzrLvl-7Eu-Fb4wcfPHCxMU1OtjPhBWLICLFF_zHGRfVgrPu8cDi3X2G00]--></g></svg>