<svg xmlns="http://www.w3.org/2000/svg" xmlns:xlink="http://www.w3.org/1999/xlink" contentStyleType="text/css" data-diagram-type="CLASS" height="202px" preserveAspectRatio="none" style="width:985px;height:202px;background:#FFFFFF;" version="1.1" viewBox="0 0 985 202" width="985px" zoomAndPan="magnify"><defs/><g><!--class LoginForm--><g class="entity" data-entity="LoginForm" data-source-line="3" data-uid="ent0002" id="entity_LoginForm"><rect fill="#F1F1F1" height="80.5938" rx="2.5" ry="2.5" style="stroke:#181818;stroke-width:0.5;" width="164.6533" x="7.62" y="7"/><ellipse cx="49.0021" cy="23" fill="#C2C2C2" rx="11" ry="11" style="stroke:#181818;stroke-width:1;"/><path d="M51.9709,28.6406 Q51.3928,28.9375 50.7521,29.0781 Q50.1115,29.2344 49.4084,29.2344 Q46.9084,29.2344 45.5803,27.5938 Q44.2678,25.9375 44.2678,22.8125 Q44.2678,19.6875 45.5803,18.0313 Q46.9084,16.375 49.4084,16.375 Q50.1115,16.375 50.7521,16.5313 Q51.4084,16.6875 51.9709,16.9844 L51.9709,19.7031 Q51.3459,19.125 50.7521,18.8594 Q50.1584,18.5781 49.5334,18.5781 Q48.1896,18.5781 47.5021,19.6563 Q46.8146,20.7188 46.8146,22.8125 Q46.8146,24.9063 47.5021,25.9844 Q48.1896,27.0469 49.5334,27.0469 Q50.1584,27.0469 50.7521,26.7813 Q51.3459,26.5 51.9709,25.9219 L51.9709,28.6406 Z " fill="#000000"/><text fill="#000000" font-family="sans-serif" font-size="14" lengthAdjust="spacing" textLength="74.0264" x="68.8648" y="27.8467">LoginForm</text><line style="stroke:#181818;stroke-width:0.5;" x1="8.62" x2="171.2733" y1="39" y2="39"/><line style="stroke:#181818;stroke-width:0.5;" x1="8.62" x2="171.2733" y1="47" y2="47"/><ellipse cx="18.62" cy="60.6484" fill="#A6A6A6" rx="3" ry="3" style="stroke:#545454;stroke-width:1;"/><text fill="#000000" font-family="sans-serif" font-size="14" lengthAdjust="spacing" textLength="98.6494" x="27.62" y="63.9951">displayLogin()</text><ellipse cx="18.62" cy="76.9453" fill="#A6A6A6" rx="3" ry="3" style="stroke:#545454;stroke-width:1;"/><text fill="#000000" font-family="sans-serif" font-size="14" lengthAdjust="spacing" textLength="138.6533" x="27.62" y="80.292">submitCredentials()</text></g><!--class CourseForm--><g class="entity" data-entity="CourseForm" data-source-line="8" data-uid="ent0003" id="entity_CourseForm"><rect fill="#F1F1F1" height="80.5938" rx="2.5" ry="2.5" style="stroke:#181818;stroke-width:0.5;" width="142.8057" x="211.54" y="7"/><ellipse cx="238.2026" cy="23" fill="#C2C2C2" rx="11" ry="11" style="stroke:#181818;stroke-width:1;"/><path d="M241.1714,28.6406 Q240.5933,28.9375 239.9526,29.0781 Q239.312,29.2344 238.6089,29.2344 Q236.1089,29.2344 234.7808,27.5938 Q233.4683,25.9375 233.4683,22.8125 Q233.4683,19.6875 234.7808,18.0313 Q236.1089,16.375 238.6089,16.375 Q239.312,16.375 239.9526,16.5313 Q240.6089,16.6875 241.1714,16.9844 L241.1714,19.7031 Q240.5464,19.125 239.9526,18.8594 Q239.3589,18.5781 238.7339,18.5781 Q237.3901,18.5781 236.7026,19.6563 Q236.0151,20.7188 236.0151,22.8125 Q236.0151,24.9063 236.7026,25.9844 Q237.3901,27.0469 238.7339,27.0469 Q239.3589,27.0469 239.9526,26.7813 Q240.5464,26.5 241.1714,25.9219 L241.1714,28.6406 Z " fill="#000000"/><text fill="#000000" font-family="sans-serif" font-size="14" lengthAdjust="spacing" textLength="84.8887" x="254.7943" y="27.8467">CourseForm</text><line style="stroke:#181818;stroke-width:0.5;" x1="212.54" x2="353.3457" y1="39" y2="39"/><line style="stroke:#181818;stroke-width:0.5;" x1="212.54" x2="353.3457" y1="47" y2="47"/><ellipse cx="222.54" cy="60.6484" fill="#A6A6A6" rx="3" ry="3" style="stroke:#545454;stroke-width:1;"/><text fill="#000000" font-family="sans-serif" font-size="14" lengthAdjust="spacing" textLength="116.8057" x="231.54" y="63.9951">displayCourses()</text><ellipse cx="222.54" cy="76.9453" fill="#A6A6A6" rx="3" ry="3" style="stroke:#545454;stroke-width:1;"/><text fill="#000000" font-family="sans-serif" font-size="14" lengthAdjust="spacing" textLength="104.5488" x="231.54" y="80.292">createCourse()</text></g><!--class AssignmentForm--><g class="entity" data-entity="AssignmentForm" data-source-line="13" data-uid="ent0004" id="entity_AssignmentForm"><rect fill="#F1F1F1" height="80.5938" rx="2.5" ry="2.5" style="stroke:#181818;stroke-width:0.5;" width="176.3564" x="396.77" y="7"/><ellipse cx="423.4326" cy="23" fill="#C2C2C2" rx="11" ry="11" style="stroke:#181818;stroke-width:1;"/><path d="M426.4014,28.6406 Q425.8233,28.9375 425.1826,29.0781 Q424.542,29.2344 423.8389,29.2344 Q421.3389,29.2344 420.0108,27.5938 Q418.6983,25.9375 418.6983,22.8125 Q418.6983,19.6875 420.0108,18.0313 Q421.3389,16.375 423.8389,16.375 Q424.542,16.375 425.1826,16.5313 Q425.8389,16.6875 426.4014,16.9844 L426.4014,19.7031 Q425.7764,19.125 425.1826,18.8594 Q424.5889,18.5781 423.9639,18.5781 Q422.6201,18.5781 421.9326,19.6563 Q421.2451,20.7188 421.2451,22.8125 Q421.2451,24.9063 421.9326,25.9844 Q422.6201,27.0469 423.9639,27.0469 Q424.5889,27.0469 425.1826,26.7813 Q425.7764,26.5 426.4014,25.9219 L426.4014,28.6406 Z " fill="#000000"/><text fill="#000000" font-family="sans-serif" font-size="14" lengthAdjust="spacing" textLength="118.4395" x="440.0243" y="27.8467">AssignmentForm</text><line style="stroke:#181818;stroke-width:0.5;" x1="397.77" x2="572.1264" y1="39" y2="39"/><line style="stroke:#181818;stroke-width:0.5;" x1="397.77" x2="572.1264" y1="47" y2="47"/><ellipse cx="407.77" cy="60.6484" fill="#A6A6A6" rx="3" ry="3" style="stroke:#545454;stroke-width:1;"/><text fill="#000000" font-family="sans-serif" font-size="14" lengthAdjust="spacing" textLength="150.3564" x="416.77" y="63.9951">displayAssignments()</text><ellipse cx="407.77" cy="76.9453" fill="#A6A6A6" rx="3" ry="3" style="stroke:#545454;stroke-width:1;"/><text fill="#000000" font-family="sans-serif" font-size="14" lengthAdjust="spacing" textLength="141.4219" x="416.77" y="80.292">submitAssignment()</text></g><!--class SessionForm--><g class="entity" data-entity="SessionForm" data-source-line="18" data-uid="ent0005" id="entity_SessionForm"><rect fill="#F1F1F1" height="80.5938" rx="2.5" ry="2.5" style="stroke:#181818;stroke-width:0.5;" width="153.6953" x="612.1" y="7"/><ellipse cx="641.6204" cy="23" fill="#C2C2C2" rx="11" ry="11" style="stroke:#181818;stroke-width:1;"/><path d="M644.5892,28.6406 Q644.011,28.9375 643.3704,29.0781 Q642.7298,29.2344 642.0267,29.2344 Q639.5267,29.2344 638.1985,27.5938 Q636.886,25.9375 636.886,22.8125 Q636.886,19.6875 638.1985,18.0313 Q639.5267,16.375 642.0267,16.375 Q642.7298,16.375 643.3704,16.5313 Q644.0267,16.6875 644.5892,16.9844 L644.5892,19.7031 Q643.9642,19.125 643.3704,18.8594 Q642.7767,18.5781 642.1517,18.5781 Q640.8079,18.5781 640.1204,19.6563 Q639.4329,20.7188 639.4329,22.8125 Q639.4329,24.9063 640.1204,25.9844 Q640.8079,27.0469 642.1517,27.0469 Q642.7767,27.0469 643.3704,26.7813 Q643.9642,26.5 644.5892,25.9219 L644.5892,28.6406 Z " fill="#000000"/><text fill="#000000" font-family="sans-serif" font-size="14" lengthAdjust="spacing" textLength="89.4277" x="658.8472" y="27.8467">SessionForm</text><line style="stroke:#181818;stroke-width:0.5;" x1="613.1" x2="764.7953" y1="39" y2="39"/><line style="stroke:#181818;stroke-width:0.5;" x1="613.1" x2="764.7953" y1="47" y2="47"/><ellipse cx="623.1" cy="60.6484" fill="#A6A6A6" rx="3" ry="3" style="stroke:#545454;stroke-width:1;"/><text fill="#000000" font-family="sans-serif" font-size="14" lengthAdjust="spacing" textLength="121.3447" x="632.1" y="63.9951">displaySessions()</text><ellipse cx="623.1" cy="76.9453" fill="#A6A6A6" rx="3" ry="3" style="stroke:#545454;stroke-width:1;"/><text fill="#000000" font-family="sans-serif" font-size="14" lengthAdjust="spacing" textLength="127.6953" x="632.1" y="80.292">markAttendance()</text></g><!--class CertificateForm--><g class="entity" data-entity="CertificateForm" data-source-line="23" data-uid="ent0006" id="entity_CertificateForm"><rect fill="#F1F1F1" height="80.5938" rx="2.5" ry="2.5" style="stroke:#181818;stroke-width:0.5;" width="177.3408" x="801.28" y="7"/><ellipse cx="832.7538" cy="23" fill="#C2C2C2" rx="11" ry="11" style="stroke:#181818;stroke-width:1;"/><path d="M835.7225,28.6406 Q835.1444,28.9375 834.5038,29.0781 Q833.8632,29.2344 833.16,29.2344 Q830.66,29.2344 829.3319,27.5938 Q828.0194,25.9375 828.0194,22.8125 Q828.0194,19.6875 829.3319,18.0313 Q830.66,16.375 833.16,16.375 Q833.8632,16.375 834.5038,16.5313 Q835.16,16.6875 835.7225,16.9844 L835.7225,19.7031 Q835.0975,19.125 834.5038,18.8594 Q833.91,18.5781 833.285,18.5781 Q831.9413,18.5781 831.2538,19.6563 Q830.5663,20.7188 830.5663,22.8125 Q830.5663,24.9063 831.2538,25.9844 Q831.9413,27.0469 833.285,27.0469 Q833.91,27.0469 834.5038,26.7813 Q835.0975,26.5 835.7225,25.9219 L835.7225,28.6406 Z " fill="#000000"/><text fill="#000000" font-family="sans-serif" font-size="14" lengthAdjust="spacing" textLength="108.7324" x="850.4146" y="27.8467">CertificateForm</text><line style="stroke:#181818;stroke-width:0.5;" x1="802.28" x2="977.6208" y1="39" y2="39"/><line style="stroke:#181818;stroke-width:0.5;" x1="802.28" x2="977.6208" y1="47" y2="47"/><ellipse cx="812.28" cy="60.6484" fill="#A6A6A6" rx="3" ry="3" style="stroke:#545454;stroke-width:1;"/><text fill="#000000" font-family="sans-serif" font-size="14" lengthAdjust="spacing" textLength="140.6494" x="821.28" y="63.9951">displayCertificates()</text><ellipse cx="812.28" cy="76.9453" fill="#A6A6A6" rx="3" ry="3" style="stroke:#545454;stroke-width:1;"/><text fill="#000000" font-family="sans-serif" font-size="14" lengthAdjust="spacing" textLength="151.3408" x="821.28" y="80.292">downloadCertificate()</text></g><!--class UserAuthController--><g class="entity" data-entity="UserAuthController" data-source-line="28" data-uid="ent0007" id="entity_UserAuthController"><rect fill="#F1F1F1" height="48" rx="2.5" ry="2.5" style="stroke:#181818;stroke-width:0.5;" width="165.8955" x="7" y="147.59"/><ellipse cx="22" cy="163.59" fill="#C2C2C2" rx="11" ry="11" style="stroke:#181818;stroke-width:1;"/><path d="M24.9688,169.2306 Q24.3906,169.5275 23.75,169.6681 Q23.1094,169.8244 22.4063,169.8244 Q19.9063,169.8244 18.5781,168.1838 Q17.2656,166.5275 17.2656,163.4025 Q17.2656,160.2775 18.5781,158.6213 Q19.9063,156.965 22.4063,156.965 Q23.1094,156.965 23.75,157.1213 Q24.4063,157.2775 24.9688,157.5744 L24.9688,160.2931 Q24.3438,159.715 23.75,159.4494 Q23.1563,159.1681 22.5313,159.1681 Q21.1875,159.1681 20.5,160.2463 Q19.8125,161.3088 19.8125,163.4025 Q19.8125,165.4963 20.5,166.5744 Q21.1875,167.6369 22.5313,167.6369 Q23.1563,167.6369 23.75,167.3713 Q24.3438,167.09 24.9688,166.5119 L24.9688,169.2306 Z " fill="#000000"/><text fill="#000000" font-family="sans-serif" font-size="14" lengthAdjust="spacing" textLength="133.8955" x="36" y="168.4367">UserAuthController</text><line style="stroke:#181818;stroke-width:0.5;" x1="8" x2="171.8955" y1="179.59" y2="179.59"/><line style="stroke:#181818;stroke-width:0.5;" x1="8" x2="171.8955" y1="187.59" y2="187.59"/></g><!--class CourseController--><g class="entity" data-entity="CourseController" data-source-line="29" data-uid="ent0009" id="entity_CourseController"><rect fill="#F1F1F1" height="48" rx="2.5" ry="2.5" style="stroke:#181818;stroke-width:0.5;" width="150.0498" x="207.92" y="147.59"/><ellipse cx="222.92" cy="163.59" fill="#C2C2C2" rx="11" ry="11" style="stroke:#181818;stroke-width:1;"/><path d="M225.8888,169.2306 Q225.3106,169.5275 224.67,169.6681 Q224.0294,169.8244 223.3263,169.8244 Q220.8263,169.8244 219.4981,168.1838 Q218.1856,166.5275 218.1856,163.4025 Q218.1856,160.2775 219.4981,158.6213 Q220.8263,156.965 223.3263,156.965 Q224.0294,156.965 224.67,157.1213 Q225.3263,157.2775 225.8888,157.5744 L225.8888,160.2931 Q225.2638,159.715 224.67,159.4494 Q224.0763,159.1681 223.4513,159.1681 Q222.1075,159.1681 221.42,160.2463 Q220.7325,161.3088 220.7325,163.4025 Q220.7325,165.4963 221.42,166.5744 Q222.1075,167.6369 223.4513,167.6369 Q224.0763,167.6369 224.67,167.3713 Q225.2638,167.09 225.8888,166.5119 L225.8888,169.2306 Z " fill="#000000"/><text fill="#000000" font-family="sans-serif" font-size="14" lengthAdjust="spacing" textLength="118.0498" x="236.92" y="168.4367">CourseController</text><line style="stroke:#181818;stroke-width:0.5;" x1="208.92" x2="356.9698" y1="179.59" y2="179.59"/><line style="stroke:#181818;stroke-width:0.5;" x1="208.92" x2="356.9698" y1="187.59" y2="187.59"/></g><!--class AssignmentController--><g class="entity" data-entity="AssignmentController" data-source-line="30" data-uid="ent0011" id="entity_AssignmentController"><rect fill="#F1F1F1" height="48" rx="2.5" ry="2.5" style="stroke:#181818;stroke-width:0.5;" width="183.6006" x="393.15" y="147.59"/><ellipse cx="408.15" cy="163.59" fill="#C2C2C2" rx="11" ry="11" style="stroke:#181818;stroke-width:1;"/><path d="M411.1188,169.2306 Q410.5406,169.5275 409.9,169.6681 Q409.2594,169.8244 408.5563,169.8244 Q406.0563,169.8244 404.7281,168.1838 Q403.4156,166.5275 403.4156,163.4025 Q403.4156,160.2775 404.7281,158.6213 Q406.0563,156.965 408.5563,156.965 Q409.2594,156.965 409.9,157.1213 Q410.5563,157.2775 411.1188,157.5744 L411.1188,160.2931 Q410.4938,159.715 409.9,159.4494 Q409.3063,159.1681 408.6813,159.1681 Q407.3375,159.1681 406.65,160.2463 Q405.9625,161.3088 405.9625,163.4025 Q405.9625,165.4963 406.65,166.5744 Q407.3375,167.6369 408.6813,167.6369 Q409.3063,167.6369 409.9,167.3713 Q410.4938,167.09 411.1188,166.5119 L411.1188,169.2306 Z " fill="#000000"/><text fill="#000000" font-family="sans-serif" font-size="14" lengthAdjust="spacing" textLength="151.6006" x="422.15" y="168.4367">AssignmentController</text><line style="stroke:#181818;stroke-width:0.5;" x1="394.15" x2="575.7506" y1="179.59" y2="179.59"/><line style="stroke:#181818;stroke-width:0.5;" x1="394.15" x2="575.7506" y1="187.59" y2="187.59"/></g><!--class SessionController--><g class="entity" data-entity="SessionController" data-source-line="31" data-uid="ent0013" id="entity_SessionController"><rect fill="#F1F1F1" height="48" rx="2.5" ry="2.5" style="stroke:#181818;stroke-width:0.5;" width="154.5889" x="611.65" y="147.59"/><ellipse cx="626.65" cy="163.59" fill="#C2C2C2" rx="11" ry="11" style="stroke:#181818;stroke-width:1;"/><path d="M629.6188,169.2306 Q629.0406,169.5275 628.4,169.6681 Q627.7594,169.8244 627.0563,169.8244 Q624.5563,169.8244 623.2281,168.1838 Q621.9156,166.5275 621.9156,163.4025 Q621.9156,160.2775 623.2281,158.6213 Q624.5563,156.965 627.0563,156.965 Q627.7594,156.965 628.4,157.1213 Q629.0563,157.2775 629.6188,157.5744 L629.6188,160.2931 Q628.9938,159.715 628.4,159.4494 Q627.8063,159.1681 627.1813,159.1681 Q625.8375,159.1681 625.15,160.2463 Q624.4625,161.3088 624.4625,163.4025 Q624.4625,165.4963 625.15,166.5744 Q625.8375,167.6369 627.1813,167.6369 Q627.8063,167.6369 628.4,167.3713 Q628.9938,167.09 629.6188,166.5119 L629.6188,169.2306 Z " fill="#000000"/><text fill="#000000" font-family="sans-serif" font-size="14" lengthAdjust="spacing" textLength="122.5889" x="640.65" y="168.4367">SessionController</text><line style="stroke:#181818;stroke-width:0.5;" x1="612.65" x2="765.2389" y1="179.59" y2="179.59"/><line style="stroke:#181818;stroke-width:0.5;" x1="612.65" x2="765.2389" y1="187.59" y2="187.59"/></g><!--class CertificateController--><g class="entity" data-entity="CertificateController" data-source-line="32" data-uid="ent0015" id="entity_CertificateController"><rect fill="#F1F1F1" height="48" rx="2.5" ry="2.5" style="stroke:#181818;stroke-width:0.5;" width="173.8936" x="803" y="147.59"/><ellipse cx="818" cy="163.59" fill="#C2C2C2" rx="11" ry="11" style="stroke:#181818;stroke-width:1;"/><path d="M820.9688,169.2306 Q820.3906,169.5275 819.75,169.6681 Q819.1094,169.8244 818.4063,169.8244 Q815.9063,169.8244 814.5781,168.1838 Q813.2656,166.5275 813.2656,163.4025 Q813.2656,160.2775 814.5781,158.6213 Q815.9063,156.965 818.4063,156.965 Q819.1094,156.965 819.75,157.1213 Q820.4063,157.2775 820.9688,157.5744 L820.9688,160.2931 Q820.3438,159.715 819.75,159.4494 Q819.1563,159.1681 818.5313,159.1681 Q817.1875,159.1681 816.5,160.2463 Q815.8125,161.3088 815.8125,163.4025 Q815.8125,165.4963 816.5,166.5744 Q817.1875,167.6369 818.5313,167.6369 Q819.1563,167.6369 819.75,167.3713 Q820.3438,167.09 820.9688,166.5119 L820.9688,169.2306 Z " fill="#000000"/><text fill="#000000" font-family="sans-serif" font-size="14" lengthAdjust="spacing" textLength="141.8936" x="832" y="168.4367">CertificateController</text><line style="stroke:#181818;stroke-width:0.5;" x1="804" x2="975.8936" y1="179.59" y2="179.59"/><line style="stroke:#181818;stroke-width:0.5;" x1="804" x2="975.8936" y1="187.59" y2="187.59"/></g><!--link LoginForm to UserAuthController--><g class="link" data-entity-1="LoginForm" data-entity-2="UserAuthController" data-source-line="28" data-uid="lnk8" id="link_LoginForm_UserAuthController"><path codeLine="28" d="M89.95,88 C89.95,107.53 89.95,124.4 89.95,141.11" fill="none" id="LoginForm-to-UserAuthController" style="stroke:#181818;stroke-width:1;"/><polygon fill="#181818" points="89.95,147.11,93.95,138.11,89.95,142.11,85.95,138.11,89.95,147.11" style="stroke:#181818;stroke-width:1;"/></g><!--link CourseForm to CourseController--><g class="link" data-entity-1="CourseForm" data-entity-2="CourseController" data-source-line="29" data-uid="lnk10" id="link_CourseForm_CourseController"><path codeLine="29" d="M282.95,88 C282.95,107.53 282.95,124.4 282.95,141.11" fill="none" id="CourseForm-to-CourseController" style="stroke:#181818;stroke-width:1;"/><polygon fill="#181818" points="282.95,147.11,286.95,138.11,282.95,142.11,278.95,138.11,282.95,147.11" style="stroke:#181818;stroke-width:1;"/></g><!--link AssignmentForm to AssignmentController--><g class="link" data-entity-1="AssignmentForm" data-entity-2="AssignmentController" data-source-line="30" data-uid="lnk12" id="link_AssignmentForm_AssignmentController"><path codeLine="30" d="M484.95,88 C484.95,107.53 484.95,124.4 484.95,141.11" fill="none" id="AssignmentForm-to-AssignmentController" style="stroke:#181818;stroke-width:1;"/><polygon fill="#181818" points="484.95,147.11,488.95,138.11,484.95,142.11,480.95,138.11,484.95,147.11" style="stroke:#181818;stroke-width:1;"/></g><!--link SessionForm to SessionController--><g class="link" data-entity-1="SessionForm" data-entity-2="SessionController" data-source-line="31" data-uid="lnk14" id="link_SessionForm_SessionController"><path codeLine="31" d="M688.95,88 C688.95,107.53 688.95,124.4 688.95,141.11" fill="none" id="SessionForm-to-SessionController" style="stroke:#181818;stroke-width:1;"/><polygon fill="#181818" points="688.95,147.11,692.95,138.11,688.95,142.11,684.95,138.11,688.95,147.11" style="stroke:#181818;stroke-width:1;"/></g><!--link CertificateForm to CertificateController--><g class="link" data-entity-1="CertificateForm" data-entity-2="CertificateController" data-source-line="32" data-uid="lnk16" id="link_CertificateForm_CertificateController"><path codeLine="32" d="M889.95,88 C889.95,107.53 889.95,124.4 889.95,141.11" fill="none" id="CertificateForm-to-CertificateController" style="stroke:#181818;stroke-width:1;"/><polygon fill="#181818" points="889.95,147.11,893.95,138.11,889.95,142.11,885.95,138.11,889.95,147.11" style="stroke:#181818;stroke-width:1;"/></g><!--SRC=[PP11JiGm34NtFKMM83HNGAegiMA7E819p4mqYJsoNOqGukwqawAOwTBFtz_-rdEc2mZKK9audeGh1fCPXo4MK0slVCpqmbB3zn32KyfwAV1rem-FAz7vesQR11EIPIYwu9-_wObdKToDDwpD80g2OKD-TbJDHwgBwsw-jzGVqR7tUSC5ypx3nZU72d8UpP0IKFntnuHY-JF7vSXzaDxRV19VgJ0arsbc_P67mtDuLvHnjjF4PCAbe0pkLwkYbQv_zuzLqv7J-RohQAlzfhj4jtMTTUKl]--></g></svg>