<svg xmlns="http://www.w3.org/2000/svg" xmlns:xlink="http://www.w3.org/1999/xlink" contentStyleType="text/css" data-diagram-type="DESCRIPTION" height="220px" preserveAspectRatio="none" style="width:277px;height:220px;background:#FFFFFF;" version="1.1" viewBox="0 0 277 220" width="277px" zoomAndPan="magnify"><defs/><g><!--cluster Middleware--><g class="cluster" data-entity="Middleware" data-source-line="3" data-uid="ent0002" id="cluster_Middleware"><path d="M8.5,116.29 L101.3477,116.29 A3.75,3.75 0 0 1 103.8477,118.79 L110.8477,138.5869 L248.5,138.5869 A2.5,2.5 0 0 1 251,141.0869 L251,211.09 A2.5,2.5 0 0 1 248.5,213.59 L8.5,213.59 A2.5,2.5 0 0 1 6,211.09 L6,118.79 A2.5,2.5 0 0 1 8.5,116.29" fill="none" style="stroke:#000000;stroke-width:1.5;"/><line style="stroke:#000000;stroke-width:1.5;" x1="6" x2="110.8477" y1="138.5869" y2="138.5869"/><text fill="#000000" font-family="sans-serif" font-size="14" font-weight="bold" lengthAdjust="spacing" textLength="91.8477" x="10" y="131.2851">Middleware</text></g><!--entity MySQL--><g class="entity" data-entity="MySQL" data-source-line="4" data-uid="ent0003" id="entity_MySQL"><rect fill="#F1F1F1" height="46.2969" rx="2.5" ry="2.5" style="stroke:#181818;stroke-width:0.5;" width="88.0703" x="21.96" y="151.29"/><rect fill="#F1F1F1" height="10" style="stroke:#181818;stroke-width:0.5;" width="15" x="90.0303" y="156.29"/><rect fill="#F1F1F1" height="2" style="stroke:#181818;stroke-width:0.5;" width="4" x="88.0303" y="158.29"/><rect fill="#F1F1F1" height="2" style="stroke:#181818;stroke-width:0.5;" width="4" x="88.0303" y="162.29"/><text fill="#000000" font-family="sans-serif" font-size="14" lengthAdjust="spacing" textLength="48.0703" x="36.96" y="184.2851">MySQL</text></g><!--entity AWSS3--><g class="entity" data-entity="AWSS3" data-source-line="5" data-uid="ent0004" id="entity_AWSS3"><rect fill="#F1F1F1" height="46.2969" rx="2.5" ry="2.5" style="stroke:#181818;stroke-width:0.5;" width="90.1006" x="144.95" y="151.29"/><rect fill="#F1F1F1" height="10" style="stroke:#181818;stroke-width:0.5;" width="15" x="215.0506" y="156.29"/><rect fill="#F1F1F1" height="2" style="stroke:#181818;stroke-width:0.5;" width="4" x="213.0506" y="158.29"/><rect fill="#F1F1F1" height="2" style="stroke:#181818;stroke-width:0.5;" width="4" x="213.0506" y="162.29"/><text fill="#000000" font-family="sans-serif" font-size="14" lengthAdjust="spacing" textLength="50.1006" x="159.95" y="184.2851">AWSS3</text></g><!--entity BusinessServices--><g class="entity" data-entity="BusinessServices" data-source-line="8" data-uid="ent0005" id="entity_BusinessServices"><rect fill="#F1F1F1" height="46.2969" rx="2.5" ry="2.5" style="stroke:#181818;stroke-width:0.5;" width="160.7705" x="47.61" y="7"/><rect fill="#F1F1F1" height="10" style="stroke:#181818;stroke-width:0.5;" width="15" x="188.3805" y="12"/><rect fill="#F1F1F1" height="2" style="stroke:#181818;stroke-width:0.5;" width="4" x="186.3805" y="14"/><rect fill="#F1F1F1" height="2" style="stroke:#181818;stroke-width:0.5;" width="4" x="186.3805" y="18"/><text fill="#000000" font-family="sans-serif" font-size="14" lengthAdjust="spacing" textLength="120.7705" x="62.61" y="39.9951">BusinessServices</text></g><!--link BusinessServices to MySQL--><g class="link" data-entity-1="BusinessServices" data-entity-2="MySQL" data-source-line="8" data-uid="lnk6" id="link_BusinessServices_MySQL"><path d="M95.84,53.55 C86.53,61.77 77.42,71.89 72,83.29 C61.9,104.54 61.1193,125.8577 62.5793,144.8177" fill="none" id="BusinessServices-to-MySQL" style="stroke:#181818;stroke-width:1;"/><polygon fill="#181818" points="63.04,150.8,66.3372,141.5195,62.6561,145.8148,58.3608,142.1337,63.04,150.8" style="stroke:#181818;stroke-width:1;"/><text fill="#000000" font-family="sans-serif" font-size="13" lengthAdjust="spacing" textLength="70.5479" x="73" y="96.3569">QueryData</text></g><!--link BusinessServices to AWSS3--><g class="link" data-entity-1="BusinessServices" data-entity-2="AWSS3" data-source-line="9" data-uid="lnk7" id="link_BusinessServices_AWSS3"><path d="M137.82,53.69 C149.43,80.34 166.2333,118.8995 177.8233,145.4995" fill="none" id="BusinessServices-to-AWSS3" style="stroke:#181818;stroke-width:1;"/><polygon fill="#181818" points="180.22,151,180.292,141.1514,178.2228,146.4162,172.958,144.347,180.22,151" style="stroke:#181818;stroke-width:1;"/><text fill="#000000" font-family="sans-serif" font-size="13" lengthAdjust="spacing" textLength="110.1699" x="159" y="96.3569">UploadDownload</text></g><!--SRC=[AyxEp2j8B4hCLSZDpyjFpYZApqrLA2agJUNYAaXCpavCJrNmpKn9oKajJonALQZcKb28zgqC3lI91R4SmuE3ZMEvQhcuefrAYpFpKekBWrEBoZAJKujZ5NHrxM1g5QmK0ajJYofT4aiISIg560PK6bgGav-Ouf9VdWUY0G00]--></g></svg>