<svg xmlns="http://www.w3.org/2000/svg" xmlns:xlink="http://www.w3.org/1999/xlink" contentStyleType="text/css" data-diagram-type="CLASS" height="202px" preserveAspectRatio="none" style="width:1355px;height:202px;background:#FFFFFF;" version="1.1" viewBox="0 0 1355 202" width="1355px" zoomAndPan="magnify"><defs/><g><!--class UserAuthController--><g class="entity" data-entity="UserAuthController" data-source-line="3" data-uid="ent0002" id="entity_UserAuthController"><rect fill="#F1F1F1" height="80.5938" rx="2.5" ry="2.5" style="stroke:#181818;stroke-width:0.5;" width="185.25" x="7" y="7"/><ellipse cx="30.7095" cy="23" fill="#C2C2C2" rx="11" ry="11" style="stroke:#181818;stroke-width:1;"/><path d="M33.6783,28.6406 Q33.1001,28.9375 32.4595,29.0781 Q31.8189,29.2344 31.1158,29.2344 Q28.6158,29.2344 27.2876,27.5938 Q25.9751,25.9375 25.9751,22.8125 Q25.9751,19.6875 27.2876,18.0313 Q28.6158,16.375 31.1158,16.375 Q31.8189,16.375 32.4595,16.5313 Q33.1158,16.6875 33.6783,16.9844 L33.6783,19.7031 Q33.0533,19.125 32.4595,18.8594 Q31.8658,18.5781 31.2408,18.5781 Q29.897,18.5781 29.2095,19.6563 Q28.522,20.7188 28.522,22.8125 Q28.522,24.9063 29.2095,25.9844 Q29.897,27.0469 31.2408,27.0469 Q31.8658,27.0469 32.4595,26.7813 Q33.0533,26.5 33.6783,25.9219 L33.6783,28.6406 Z " fill="#000000"/><text fill="#000000" font-family="sans-serif" font-size="14" lengthAdjust="spacing" textLength="133.8955" x="46.645" y="27.8467">UserAuthController</text><line style="stroke:#181818;stroke-width:0.5;" x1="8" x2="191.25" y1="39" y2="39"/><line style="stroke:#181818;stroke-width:0.5;" x1="8" x2="191.25" y1="47" y2="47"/><ellipse cx="18" cy="60.6484" fill="#A6A6A6" rx="3" ry="3" style="stroke:#545454;stroke-width:1;"/><text fill="#000000" font-family="sans-serif" font-size="14" lengthAdjust="spacing" textLength="159.25" x="27" y="63.9951">login(email, password)</text><ellipse cx="18" cy="76.9453" fill="#A6A6A6" rx="3" ry="3" style="stroke:#545454;stroke-width:1;"/><text fill="#000000" font-family="sans-serif" font-size="14" lengthAdjust="spacing" textLength="129.1855" x="27" y="80.292">register(userData)</text></g><!--class CourseController--><g class="entity" data-entity="CourseController" data-source-line="8" data-uid="ent0003" id="entity_CourseController"><rect fill="#F1F1F1" height="80.5938" rx="2.5" ry="2.5" style="stroke:#181818;stroke-width:0.5;" width="210.7754" x="227.24" y="7"/><ellipse cx="269.5665" cy="23" fill="#C2C2C2" rx="11" ry="11" style="stroke:#181818;stroke-width:1;"/><path d="M272.5353,28.6406 Q271.9571,28.9375 271.3165,29.0781 Q270.6759,29.2344 269.9728,29.2344 Q267.4728,29.2344 266.1446,27.5938 Q264.8321,25.9375 264.8321,22.8125 Q264.8321,19.6875 266.1446,18.0313 Q267.4728,16.375 269.9728,16.375 Q270.6759,16.375 271.3165,16.5313 Q271.9728,16.6875 272.5353,16.9844 L272.5353,19.7031 Q271.9103,19.125 271.3165,18.8594 Q270.7228,18.5781 270.0978,18.5781 Q268.754,18.5781 268.0665,19.6563 Q267.379,20.7188 267.379,22.8125 Q267.379,24.9063 268.0665,25.9844 Q268.754,27.0469 270.0978,27.0469 Q270.7228,27.0469 271.3165,26.7813 Q271.9103,26.5 272.5353,25.9219 L272.5353,28.6406 Z " fill="#000000"/><text fill="#000000" font-family="sans-serif" font-size="14" lengthAdjust="spacing" textLength="118.0498" x="289.6391" y="27.8467">CourseController</text><line style="stroke:#181818;stroke-width:0.5;" x1="228.24" x2="437.0154" y1="39" y2="39"/><line style="stroke:#181818;stroke-width:0.5;" x1="228.24" x2="437.0154" y1="47" y2="47"/><ellipse cx="238.24" cy="60.6484" fill="#A6A6A6" rx="3" ry="3" style="stroke:#545454;stroke-width:1;"/><text fill="#000000" font-family="sans-serif" font-size="14" lengthAdjust="spacing" textLength="184.7754" x="247.24" y="63.9951">createCourse(courseData)</text><ellipse cx="238.24" cy="76.9453" fill="#A6A6A6" rx="3" ry="3" style="stroke:#545454;stroke-width:1;"/><text fill="#000000" font-family="sans-serif" font-size="14" lengthAdjust="spacing" textLength="168.9434" x="247.24" y="80.292">updateCourse(courseId)</text></g><!--class AssignmentController--><g class="entity" data-entity="AssignmentController" data-source-line="13" data-uid="ent0004" id="entity_AssignmentController"><rect fill="#F1F1F1" height="80.5938" rx="2.5" ry="2.5" style="stroke:#181818;stroke-width:0.5;" width="304.1406" x="472.55" y="7"/><ellipse cx="544.57" cy="23" fill="#C2C2C2" rx="11" ry="11" style="stroke:#181818;stroke-width:1;"/><path d="M547.5388,28.6406 Q546.9606,28.9375 546.32,29.0781 Q545.6794,29.2344 544.9763,29.2344 Q542.4763,29.2344 541.1481,27.5938 Q539.8356,25.9375 539.8356,22.8125 Q539.8356,19.6875 541.1481,18.0313 Q542.4763,16.375 544.9763,16.375 Q545.6794,16.375 546.32,16.5313 Q546.9763,16.6875 547.5388,16.9844 L547.5388,19.7031 Q546.9138,19.125 546.32,18.8594 Q545.7263,18.5781 545.1013,18.5781 Q543.7575,18.5781 543.07,19.6563 Q542.3825,20.7188 542.3825,22.8125 Q542.3825,24.9063 543.07,25.9844 Q543.7575,27.0469 545.1013,27.0469 Q545.7263,27.0469 546.32,26.7813 Q546.9138,26.5 547.5388,25.9219 L547.5388,28.6406 Z " fill="#000000"/><text fill="#000000" font-family="sans-serif" font-size="14" lengthAdjust="spacing" textLength="151.6006" x="565.07" y="27.8467">AssignmentController</text><line style="stroke:#181818;stroke-width:0.5;" x1="473.55" x2="775.6906" y1="39" y2="39"/><line style="stroke:#181818;stroke-width:0.5;" x1="473.55" x2="775.6906" y1="47" y2="47"/><ellipse cx="483.55" cy="60.6484" fill="#A6A6A6" rx="3" ry="3" style="stroke:#545454;stroke-width:1;"/><text fill="#000000" font-family="sans-serif" font-size="14" lengthAdjust="spacing" textLength="252.957" x="492.55" y="63.9951">createAssignment(assignmentData)</text><ellipse cx="483.55" cy="76.9453" fill="#A6A6A6" rx="3" ry="3" style="stroke:#545454;stroke-width:1;"/><text fill="#000000" font-family="sans-serif" font-size="14" lengthAdjust="spacing" textLength="278.1406" x="492.55" y="80.292">gradeAssignment(assignmentId, grade)</text></g><!--class SessionController--><g class="entity" data-entity="SessionController" data-source-line="18" data-uid="ent0005" id="entity_SessionController"><rect fill="#F1F1F1" height="80.5938" rx="2.5" ry="2.5" style="stroke:#181818;stroke-width:0.5;" width="220.3389" x="811.46" y="7"/><ellipse cx="856.085" cy="23" fill="#C2C2C2" rx="11" ry="11" style="stroke:#181818;stroke-width:1;"/><path d="M859.0538,28.6406 Q858.4756,28.9375 857.835,29.0781 Q857.1944,29.2344 856.4913,29.2344 Q853.9913,29.2344 852.6631,27.5938 Q851.3506,25.9375 851.3506,22.8125 Q851.3506,19.6875 852.6631,18.0313 Q853.9913,16.375 856.4913,16.375 Q857.1944,16.375 857.835,16.5313 Q858.4913,16.6875 859.0538,16.9844 L859.0538,19.7031 Q858.4288,19.125 857.835,18.8594 Q857.2413,18.5781 856.6163,18.5781 Q855.2725,18.5781 854.585,19.6563 Q853.8975,20.7188 853.8975,22.8125 Q853.8975,24.9063 854.585,25.9844 Q855.2725,27.0469 856.6163,27.0469 Q857.2413,27.0469 857.835,26.7813 Q858.4288,26.5 859.0538,25.9219 L859.0538,28.6406 Z " fill="#000000"/><text fill="#000000" font-family="sans-serif" font-size="14" lengthAdjust="spacing" textLength="122.5889" x="876.585" y="27.8467">SessionController</text><line style="stroke:#181818;stroke-width:0.5;" x1="812.46" x2="1030.7989" y1="39" y2="39"/><line style="stroke:#181818;stroke-width:0.5;" x1="812.46" x2="1030.7989" y1="47" y2="47"/><ellipse cx="822.46" cy="60.6484" fill="#A6A6A6" rx="3" ry="3" style="stroke:#545454;stroke-width:1;"/><text fill="#000000" font-family="sans-serif" font-size="14" lengthAdjust="spacing" textLength="194.3389" x="831.46" y="63.9951">createSession(sessionData)</text><ellipse cx="822.46" cy="76.9453" fill="#A6A6A6" rx="3" ry="3" style="stroke:#545454;stroke-width:1;"/><text fill="#000000" font-family="sans-serif" font-size="14" lengthAdjust="spacing" textLength="192.5342" x="831.46" y="80.292">markAttendance(sessionId)</text></g><!--class CertificateController--><g class="entity" data-entity="CertificateController" data-source-line="23" data-uid="ent0006" id="entity_CertificateController"><rect fill="#F1F1F1" height="64.2969" rx="2.5" ry="2.5" style="stroke:#181818;stroke-width:0.5;" width="280.8574" x="1067.2" y="15.14"/><ellipse cx="1132.4319" cy="31.14" fill="#C2C2C2" rx="11" ry="11" style="stroke:#181818;stroke-width:1;"/><path d="M1135.4007,36.7806 Q1134.8226,37.0775 1134.1819,37.2181 Q1133.5413,37.3744 1132.8382,37.3744 Q1130.3382,37.3744 1129.0101,35.7338 Q1127.6976,34.0775 1127.6976,30.9525 Q1127.6976,27.8275 1129.0101,26.1713 Q1130.3382,24.515 1132.8382,24.515 Q1133.5413,24.515 1134.1819,24.6713 Q1134.8382,24.8275 1135.4007,25.1244 L1135.4007,27.8431 Q1134.7757,27.265 1134.1819,26.9994 Q1133.5882,26.7181 1132.9632,26.7181 Q1131.6194,26.7181 1130.9319,27.7963 Q1130.2444,28.8588 1130.2444,30.9525 Q1130.2444,33.0463 1130.9319,34.1244 Q1131.6194,35.1869 1132.9632,35.1869 Q1133.5882,35.1869 1134.1819,34.9213 Q1134.7757,34.64 1135.4007,34.0619 L1135.4007,36.7806 Z " fill="#000000"/><text fill="#000000" font-family="sans-serif" font-size="14" lengthAdjust="spacing" textLength="141.8936" x="1152.9319" y="35.9867">CertificateController</text><line style="stroke:#181818;stroke-width:0.5;" x1="1068.2" x2="1347.0574" y1="47.14" y2="47.14"/><line style="stroke:#181818;stroke-width:0.5;" x1="1068.2" x2="1347.0574" y1="55.14" y2="55.14"/><ellipse cx="1078.2" cy="68.7884" fill="#A6A6A6" rx="3" ry="3" style="stroke:#545454;stroke-width:1;"/><text fill="#000000" font-family="sans-serif" font-size="14" lengthAdjust="spacing" textLength="254.8574" x="1087.2" y="72.1351">issueCertificate(studentId, courseId)</text></g><!--class User--><g class="entity" data-entity="User" data-source-line="27" data-uid="ent0007" id="entity_User"><rect fill="#F1F1F1" height="48" rx="2.5" ry="2.5" style="stroke:#181818;stroke-width:0.5;" width="63.9102" x="67.67" y="147.59"/><ellipse cx="82.67" cy="163.59" fill="#C2C2C2" rx="11" ry="11" style="stroke:#181818;stroke-width:1;"/><path d="M85.6388,169.2306 Q85.0606,169.5275 84.42,169.6681 Q83.7794,169.8244 83.0763,169.8244 Q80.5763,169.8244 79.2481,168.1838 Q77.9356,166.5275 77.9356,163.4025 Q77.9356,160.2775 79.2481,158.6213 Q80.5763,156.965 83.0763,156.965 Q83.7794,156.965 84.42,157.1213 Q85.0763,157.2775 85.6388,157.5744 L85.6388,160.2931 Q85.0138,159.715 84.42,159.4494 Q83.8263,159.1681 83.2013,159.1681 Q81.8575,159.1681 81.17,160.2463 Q80.4825,161.3088 80.4825,163.4025 Q80.4825,165.4963 81.17,166.5744 Q81.8575,167.6369 83.2013,167.6369 Q83.8263,167.6369 84.42,167.3713 Q85.0138,167.09 85.6388,166.5119 L85.6388,169.2306 Z " fill="#000000"/><text fill="#000000" font-family="sans-serif" font-size="14" lengthAdjust="spacing" textLength="31.9102" x="96.67" y="168.4367">User</text><line style="stroke:#181818;stroke-width:0.5;" x1="68.67" x2="130.5802" y1="179.59" y2="179.59"/><line style="stroke:#181818;stroke-width:0.5;" x1="68.67" x2="130.5802" y1="187.59" y2="187.59"/></g><!--class Course--><g class="entity" data-entity="Course" data-source-line="28" data-uid="ent0009" id="entity_Course"><rect fill="#F1F1F1" height="48" rx="2.5" ry="2.5" style="stroke:#181818;stroke-width:0.5;" width="80.877" x="292.19" y="147.59"/><ellipse cx="307.19" cy="163.59" fill="#C2C2C2" rx="11" ry="11" style="stroke:#181818;stroke-width:1;"/><path d="M310.1588,169.2306 Q309.5806,169.5275 308.94,169.6681 Q308.2994,169.8244 307.5963,169.8244 Q305.0963,169.8244 303.7681,168.1838 Q302.4556,166.5275 302.4556,163.4025 Q302.4556,160.2775 303.7681,158.6213 Q305.0963,156.965 307.5963,156.965 Q308.2994,156.965 308.94,157.1213 Q309.5963,157.2775 310.1588,157.5744 L310.1588,160.2931 Q309.5338,159.715 308.94,159.4494 Q308.3463,159.1681 307.7213,159.1681 Q306.3775,159.1681 305.69,160.2463 Q305.0025,161.3088 305.0025,163.4025 Q305.0025,165.4963 305.69,166.5744 Q306.3775,167.6369 307.7213,167.6369 Q308.3463,167.6369 308.94,167.3713 Q309.5338,167.09 310.1588,166.5119 L310.1588,169.2306 Z " fill="#000000"/><text fill="#000000" font-family="sans-serif" font-size="14" lengthAdjust="spacing" textLength="48.877" x="321.19" y="168.4367">Course</text><line style="stroke:#181818;stroke-width:0.5;" x1="293.19" x2="372.067" y1="179.59" y2="179.59"/><line style="stroke:#181818;stroke-width:0.5;" x1="293.19" x2="372.067" y1="187.59" y2="187.59"/></g><!--class Assignment--><g class="entity" data-entity="Assignment" data-source-line="29" data-uid="ent0011" id="entity_Assignment"><rect fill="#F1F1F1" height="48" rx="2.5" ry="2.5" style="stroke:#181818;stroke-width:0.5;" width="114.4277" x="567.41" y="147.59"/><ellipse cx="582.41" cy="163.59" fill="#C2C2C2" rx="11" ry="11" style="stroke:#181818;stroke-width:1;"/><path d="M585.3788,169.2306 Q584.8006,169.5275 584.16,169.6681 Q583.5194,169.8244 582.8163,169.8244 Q580.3163,169.8244 578.9881,168.1838 Q577.6756,166.5275 577.6756,163.4025 Q577.6756,160.2775 578.9881,158.6213 Q580.3163,156.965 582.8163,156.965 Q583.5194,156.965 584.16,157.1213 Q584.8163,157.2775 585.3788,157.5744 L585.3788,160.2931 Q584.7538,159.715 584.16,159.4494 Q583.5663,159.1681 582.9413,159.1681 Q581.5975,159.1681 580.91,160.2463 Q580.2225,161.3088 580.2225,163.4025 Q580.2225,165.4963 580.91,166.5744 Q581.5975,167.6369 582.9413,167.6369 Q583.5663,167.6369 584.16,167.3713 Q584.7538,167.09 585.3788,166.5119 L585.3788,169.2306 Z " fill="#000000"/><text fill="#000000" font-family="sans-serif" font-size="14" lengthAdjust="spacing" textLength="82.4277" x="596.41" y="168.4367">Assignment</text><line style="stroke:#181818;stroke-width:0.5;" x1="568.41" x2="680.8377" y1="179.59" y2="179.59"/><line style="stroke:#181818;stroke-width:0.5;" x1="568.41" x2="680.8377" y1="187.59" y2="187.59"/></g><!--class Session--><g class="entity" data-entity="Session" data-source-line="30" data-uid="ent0013" id="entity_Session"><rect fill="#F1F1F1" height="48" rx="2.5" ry="2.5" style="stroke:#181818;stroke-width:0.5;" width="85.416" x="878.92" y="147.59"/><ellipse cx="893.92" cy="163.59" fill="#C2C2C2" rx="11" ry="11" style="stroke:#181818;stroke-width:1;"/><path d="M896.8888,169.2306 Q896.3106,169.5275 895.67,169.6681 Q895.0294,169.8244 894.3263,169.8244 Q891.8263,169.8244 890.4981,168.1838 Q889.1856,166.5275 889.1856,163.4025 Q889.1856,160.2775 890.4981,158.6213 Q891.8263,156.965 894.3263,156.965 Q895.0294,156.965 895.67,157.1213 Q896.3263,157.2775 896.8888,157.5744 L896.8888,160.2931 Q896.2638,159.715 895.67,159.4494 Q895.0763,159.1681 894.4513,159.1681 Q893.1075,159.1681 892.42,160.2463 Q891.7325,161.3088 891.7325,163.4025 Q891.7325,165.4963 892.42,166.5744 Q893.1075,167.6369 894.4513,167.6369 Q895.0763,167.6369 895.67,167.3713 Q896.2638,167.09 896.8888,166.5119 L896.8888,169.2306 Z " fill="#000000"/><text fill="#000000" font-family="sans-serif" font-size="14" lengthAdjust="spacing" textLength="53.416" x="907.92" y="168.4367">Session</text><line style="stroke:#181818;stroke-width:0.5;" x1="879.92" x2="963.336" y1="179.59" y2="179.59"/><line style="stroke:#181818;stroke-width:0.5;" x1="879.92" x2="963.336" y1="187.59" y2="187.59"/></g><!--class Certificate--><g class="entity" data-entity="Certificate" data-source-line="31" data-uid="ent0015" id="entity_Certificate"><rect fill="#F1F1F1" height="48" rx="2.5" ry="2.5" style="stroke:#181818;stroke-width:0.5;" width="104.7207" x="1155.26" y="147.59"/><ellipse cx="1170.26" cy="163.59" fill="#C2C2C2" rx="11" ry="11" style="stroke:#181818;stroke-width:1;"/><path d="M1173.2288,169.2306 Q1172.6506,169.5275 1172.01,169.6681 Q1171.3694,169.8244 1170.6663,169.8244 Q1168.1663,169.8244 1166.8381,168.1838 Q1165.5256,166.5275 1165.5256,163.4025 Q1165.5256,160.2775 1166.8381,158.6213 Q1168.1663,156.965 1170.6663,156.965 Q1171.3694,156.965 1172.01,157.1213 Q1172.6663,157.2775 1173.2288,157.5744 L1173.2288,160.2931 Q1172.6038,159.715 1172.01,159.4494 Q1171.4163,159.1681 1170.7913,159.1681 Q1169.4475,159.1681 1168.76,160.2463 Q1168.0725,161.3088 1168.0725,163.4025 Q1168.0725,165.4963 1168.76,166.5744 Q1169.4475,167.6369 1170.7913,167.6369 Q1171.4163,167.6369 1172.01,167.3713 Q1172.6038,167.09 1173.2288,166.5119 L1173.2288,169.2306 Z " fill="#000000"/><text fill="#000000" font-family="sans-serif" font-size="14" lengthAdjust="spacing" textLength="72.7207" x="1184.26" y="168.4367">Certificate</text><line style="stroke:#181818;stroke-width:0.5;" x1="1156.26" x2="1258.9807" y1="179.59" y2="179.59"/><line style="stroke:#181818;stroke-width:0.5;" x1="1156.26" x2="1258.9807" y1="187.59" y2="187.59"/></g><!--link UserAuthController to User--><g class="link" data-entity-1="UserAuthController" data-entity-2="User" data-source-line="27" data-uid="lnk8" id="link_UserAuthController_User"><path codeLine="27" d="M99.63,88 C99.63,107.53 99.63,124.4 99.63,141.11" fill="none" id="UserAuthController-to-User" style="stroke:#181818;stroke-width:1;"/><polygon fill="#181818" points="99.63,147.11,103.63,138.11,99.63,142.11,95.63,138.11,99.63,147.11" style="stroke:#181818;stroke-width:1;"/></g><!--link CourseController to Course--><g class="link" data-entity-1="CourseController" data-entity-2="Course" data-source-line="28" data-uid="lnk10" id="link_CourseController_Course"><path codeLine="28" d="M332.63,88 C332.63,107.53 332.63,124.4 332.63,141.11" fill="none" id="CourseController-to-Course" style="stroke:#181818;stroke-width:1;"/><polygon fill="#181818" points="332.63,147.11,336.63,138.11,332.63,142.11,328.63,138.11,332.63,147.11" style="stroke:#181818;stroke-width:1;"/></g><!--link AssignmentController to Assignment--><g class="link" data-entity-1="AssignmentController" data-entity-2="Assignment" data-source-line="29" data-uid="lnk12" id="link_AssignmentController_Assignment"><path codeLine="29" d="M624.63,88 C624.63,107.53 624.63,124.4 624.63,141.11" fill="none" id="AssignmentController-to-Assignment" style="stroke:#181818;stroke-width:1;"/><polygon fill="#181818" points="624.63,147.11,628.63,138.11,624.63,142.11,620.63,138.11,624.63,147.11" style="stroke:#181818;stroke-width:1;"/></g><!--link SessionController to Session--><g class="link" data-entity-1="SessionController" data-entity-2="Session" data-source-line="30" data-uid="lnk14" id="link_SessionController_Session"><path codeLine="30" d="M921.63,88 C921.63,107.53 921.63,124.4 921.63,141.11" fill="none" id="SessionController-to-Session" style="stroke:#181818;stroke-width:1;"/><polygon fill="#181818" points="921.63,147.11,925.63,138.11,921.63,142.11,917.63,138.11,921.63,147.11" style="stroke:#181818;stroke-width:1;"/></g><!--link CertificateController to Certificate--><g class="link" data-entity-1="CertificateController" data-entity-2="Certificate" data-source-line="31" data-uid="lnk16" id="link_CertificateController_Certificate"><path codeLine="31" d="M1207.63,79.79 C1207.63,100.88 1207.63,122.18 1207.63,141.31" fill="none" id="CertificateController-to-Certificate" style="stroke:#181818;stroke-width:1;"/><polygon fill="#181818" points="1207.63,147.31,1211.63,138.31,1207.63,142.31,1203.63,138.31,1207.63,147.31" style="stroke:#181818;stroke-width:1;"/></g><!--SRC=[RP4zRiCm38LtdKAZWYPNA62uI-QY1o0arX5YIGP9eKFHkzUM7VyacYZm8zyZARxxE011q275P6-K0cgXZ4hP7fZr5oCrMMvjYaAfxv7qhzBwhK-TZmO3-FwiXx7o9v4xJOImyon89e-j7o1mKdyFjJPbOdpMieGWE3DZIvZxHfO7zyokRgVOCFik1enILzsuWVMvgdS4hbvoTMTTwCxh4qUSOjreWORdk5e4e7iZWj51jFZ0XnrQ9F7VtfP5ZzgUEUEE6vRibl4ErwZyq-NoNhvFlLnz8dDILUytyGserxsdWYMhwjCNYuty0m00]--></g></svg>