<svg xmlns="http://www.w3.org/2000/svg" xmlns:xlink="http://www.w3.org/1999/xlink" contentStyleType="text/css" data-diagram-type="CLASS" height="202px" preserveAspectRatio="none" style="width:362px;height:202px;background:#FFFFFF;" version="1.1" viewBox="0 0 362 202" width="362px" zoomAndPan="magnify"><defs/><g><!--class ListUtil--><g class="entity" data-entity="ListUtil" data-source-line="4" data-uid="ent0002" id="entity_ListUtil"><rect fill="#F1F1F1" height="80.5938" rx="2.5" ry="2.5" style="stroke:#181818;stroke-width:0.5;" width="151.624" x="7" y="115"/><ellipse cx="54.5679" cy="131" fill="#C2C2C2" rx="11" ry="11" style="stroke:#181818;stroke-width:1;"/><path d="M57.5366,136.6406 Q56.9585,136.9375 56.3179,137.0781 Q55.6772,137.2344 54.9741,137.2344 Q52.4741,137.2344 51.146,135.5938 Q49.8335,133.9375 49.8335,130.8125 Q49.8335,127.6875 51.146,126.0313 Q52.4741,124.375 54.9741,124.375 Q55.6772,124.375 56.3179,124.5313 Q56.9741,124.6875 57.5366,124.9844 L57.5366,127.7031 Q56.9116,127.125 56.3179,126.8594 Q55.7241,126.5781 55.0991,126.5781 Q53.7554,126.5781 53.0679,127.6563 Q52.3804,128.7188 52.3804,130.8125 Q52.3804,132.9063 53.0679,133.9844 Q53.7554,135.0469 55.0991,135.0469 Q55.7241,135.0469 56.3179,134.7813 Q56.9116,134.5 57.5366,133.9219 L57.5366,136.6406 Z " fill="#000000"/><text fill="#000000" font-family="sans-serif" font-size="14" lengthAdjust="spacing" textLength="47.9883" x="75.0679" y="135.8467">ListUtil</text><line style="stroke:#181818;stroke-width:0.5;" x1="8" x2="157.624" y1="147" y2="147"/><line style="stroke:#181818;stroke-width:0.5;" x1="8" x2="157.624" y1="155" y2="155"/><text fill="#000000" font-family="sans-serif" font-size="14" lengthAdjust="spacing" textLength="112.5059" x="13" y="171.9951">+addItem(item)</text><text fill="#000000" font-family="sans-serif" font-size="14" lengthAdjust="spacing" textLength="139.624" x="13" y="188.292">+removeItem(item)</text></g><!--class PatternFactory--><g class="entity" data-entity="PatternFactory" data-source-line="9" data-uid="ent0003" id="entity_PatternFactory"><rect fill="#F1F1F1" height="64.2969" rx="2.5" ry="2.5" style="stroke:#181818;stroke-width:0.5;" width="161.9189" x="193.85" y="123.14"/><ellipse cx="220.6634" cy="139.14" fill="#C2C2C2" rx="11" ry="11" style="stroke:#181818;stroke-width:1;"/><path d="M223.6321,144.7806 Q223.054,145.0775 222.4134,145.2181 Q221.7728,145.3744 221.0696,145.3744 Q218.5696,145.3744 217.2415,143.7338 Q215.929,142.0775 215.929,138.9525 Q215.929,135.8275 217.2415,134.1713 Q218.5696,132.515 221.0696,132.515 Q221.7728,132.515 222.4134,132.6713 Q223.0696,132.8275 223.6321,133.1244 L223.6321,135.8431 Q223.0071,135.265 222.4134,134.9994 Q221.8196,134.7181 221.1946,134.7181 Q219.8509,134.7181 219.1634,135.7963 Q218.4759,136.8588 218.4759,138.9525 Q218.4759,141.0463 219.1634,142.1244 Q219.8509,143.1869 221.1946,143.1869 Q221.8196,143.1869 222.4134,142.9213 Q223.0071,142.64 223.6321,142.0619 L223.6321,144.7806 Z " fill="#000000"/><text fill="#000000" font-family="sans-serif" font-size="14" lengthAdjust="spacing" textLength="103.667" x="237.2886" y="143.9867">PatternFactory</text><line style="stroke:#181818;stroke-width:0.5;" x1="194.85" x2="354.7689" y1="155.14" y2="155.14"/><line style="stroke:#181818;stroke-width:0.5;" x1="194.85" x2="354.7689" y1="163.14" y2="163.14"/><text fill="#000000" font-family="sans-serif" font-size="14" lengthAdjust="spacing" textLength="149.9189" x="199.85" y="180.1351">+createPattern(type)</text></g><!--class BusinessServices--><g class="entity" data-entity="BusinessServices" data-source-line="13" data-uid="ent0004" id="entity_BusinessServices"><rect fill="#F1F1F1" height="48" rx="2.5" ry="2.5" style="stroke:#181818;stroke-width:0.5;" width="152.7705" x="102.43" y="7"/><ellipse cx="117.43" cy="23" fill="#C2C2C2" rx="11" ry="11" style="stroke:#181818;stroke-width:1;"/><path d="M120.3988,28.6406 Q119.8206,28.9375 119.18,29.0781 Q118.5394,29.2344 117.8363,29.2344 Q115.3363,29.2344 114.0081,27.5938 Q112.6956,25.9375 112.6956,22.8125 Q112.6956,19.6875 114.0081,18.0313 Q115.3363,16.375 117.8363,16.375 Q118.5394,16.375 119.18,16.5313 Q119.8363,16.6875 120.3988,16.9844 L120.3988,19.7031 Q119.7738,19.125 119.18,18.8594 Q118.5863,18.5781 117.9613,18.5781 Q116.6175,18.5781 115.93,19.6563 Q115.2425,20.7188 115.2425,22.8125 Q115.2425,24.9063 115.93,25.9844 Q116.6175,27.0469 117.9613,27.0469 Q118.5863,27.0469 119.18,26.7813 Q119.7738,26.5 120.3988,25.9219 L120.3988,28.6406 Z " fill="#000000"/><text fill="#000000" font-family="sans-serif" font-size="14" lengthAdjust="spacing" textLength="120.7705" x="131.43" y="27.8467">BusinessServices</text><line style="stroke:#181818;stroke-width:0.5;" x1="103.43" x2="254.2005" y1="39" y2="39"/><line style="stroke:#181818;stroke-width:0.5;" x1="103.43" x2="254.2005" y1="47" y2="47"/></g><!--link BusinessServices to ListUtil--><g class="link" data-entity-1="BusinessServices" data-entity-2="ListUtil" data-source-line="15" data-uid="lnk5" id="link_BusinessServices_ListUtil"><path codeLine="15" d="M160.53,55.29 C147.36,72.06 132.9837,90.3696 117.5737,110.0096" fill="none" id="BusinessServices-to-ListUtil" style="stroke:#181818;stroke-width:1;"/><polygon fill="#181818" points="113.87,114.73,122.5726,110.1185,116.9565,110.7963,116.2787,105.1802,113.87,114.73" style="stroke:#181818;stroke-width:1;"/></g><!--link BusinessServices to PatternFactory--><g class="link" data-entity-1="BusinessServices" data-entity-2="PatternFactory" data-source-line="16" data-uid="lnk6" id="link_BusinessServices_PatternFactory"><path codeLine="16" d="M197.09,55.29 C212.11,74.41 229.8149,96.9707 246.3649,118.0507" fill="none" id="BusinessServices-to-PatternFactory" style="stroke:#181818;stroke-width:1;"/><polygon fill="#181818" points="250.07,122.77,247.6585,113.2209,246.9824,118.8372,241.3661,118.1611,250.07,122.77" style="stroke:#181818;stroke-width:1;"/></g><!--SRC=[ROvD2i9034RtSueiArBm188kX88BeNY0E0qOxCoK95EeujtzBrNSPF4UZozwujYXO82GOl97IO7099FJqVWMLLTcmeTiLFaKQpuJB9nx6jYosjwuXOi3c6FJL4QXuFkPFO1GI3rDsFKJxj2C96xGMvBXbNiXD7gRmeQE9i4wAqTIhKbwzgJE_H8eo-Nuq7_xlNe3]--></g></svg>