<svg xmlns="http://www.w3.org/2000/svg" xmlns:xlink="http://www.w3.org/1999/xlink" contentStyleType="text/css" data-diagram-type="SEQUENCE" height="473px" preserveAspectRatio="none" style="width:682px;height:473px;background:#FFFFFF;" version="1.1" viewBox="0 0 682 473" width="682px" zoomAndPan="magnify"><defs/><g><g><title>Student</title><rect fill="#000000" fill-opacity="0.00000" height="311.3281" width="8" x="31.5557" y="81.2969"/><line style="stroke:#181818;stroke-width:0.5;stroke-dasharray:5.0,5.0;" x1="35" x2="35" y1="81.2969" y2="392.625"/></g><g><title>ClientWebApp</title><rect fill="#000000" fill-opacity="0.00000" height="311.3281" width="8" x="155.0488" y="81.2969"/><line style="stroke:#181818;stroke-width:0.5;stroke-dasharray:5.0,5.0;" x1="158.437" x2="158.437" y1="81.2969" y2="392.625"/></g><g><title>RegistrationController</title><rect fill="#000000" fill-opacity="0.00000" height="311.3281" width="8" x="305.7734" y="81.2969"/><line style="stroke:#181818;stroke-width:0.5;stroke-dasharray:5.0,5.0;" x1="309.6606" x2="309.6606" y1="81.2969" y2="392.625"/></g><g><title>CourseController</title><rect fill="#000000" fill-opacity="0.00000" height="311.3281" width="8" x="465.9111" y="81.2969"/><line style="stroke:#181818;stroke-width:0.5;stroke-dasharray:5.0,5.0;" x1="469.8862" x2="469.8862" y1="81.2969" y2="392.625"/></g><g><title>SQLServer</title><rect fill="#000000" fill-opacity="0.00000" height="311.3281" width="8" x="585.7441" y="81.2969"/><line style="stroke:#181818;stroke-width:0.5;stroke-dasharray:5.0,5.0;" x1="588.936" x2="588.936" y1="81.2969" y2="392.625"/></g><g><title>NS</title><rect fill="#000000" fill-opacity="0.00000" height="311.3281" width="8" x="656.2319" y="81.2969"/><line style="stroke:#181818;stroke-width:0.5;stroke-dasharray:5.0,5.0;" x1="659.5522" x2="659.5522" y1="81.2969" y2="392.625"/></g><g class="participant participant-head" data-participant="Student"><text fill="#000000" font-family="sans-serif" font-size="14" lengthAdjust="spacing" textLength="55.1113" x="5" y="77.9951">Student</text><ellipse cx="35.5557" cy="13.5" fill="#E3E3E3" rx="8" ry="8" style="stroke:#181818;stroke-width:0.5;"/><path d="M35.5557,21.5 L35.5557,48.5 M22.5557,29.5 L48.5557,29.5 M35.5557,48.5 L22.5557,63.5 M35.5557,48.5 L48.5557,63.5" fill="none" style="stroke:#181818;stroke-width:0.5;"/></g><g class="participant participant-tail" data-participant="Student"><text fill="#000000" font-family="sans-serif" font-size="14" lengthAdjust="spacing" textLength="55.1113" x="5" y="404.6201">Student</text><ellipse cx="35.5557" cy="416.4219" fill="#E3E3E3" rx="8" ry="8" style="stroke:#181818;stroke-width:0.5;"/><path d="M35.5557,424.4219 L35.5557,451.4219 M22.5557,432.4219 L48.5557,432.4219 M35.5557,451.4219 L22.5557,466.4219 M35.5557,451.4219 L48.5557,466.4219" fill="none" style="stroke:#181818;stroke-width:0.5;"/></g><g class="participant participant-head" data-participant="ClientWebApp"><rect fill="#E3E3E3" height="30.2969" rx="2.5" ry="2.5" style="stroke:#181818;stroke-width:0.5;" width="113.2236" x="102.437" y="50"/><text fill="#000000" font-family="sans-serif" font-size="14" lengthAdjust="spacing" textLength="99.2236" x="109.437" y="69.9951">ClientWebApp</text></g><g class="participant participant-tail" data-participant="ClientWebApp"><rect fill="#E3E3E3" height="30.2969" rx="2.5" ry="2.5" style="stroke:#181818;stroke-width:0.5;" width="113.2236" x="102.437" y="391.625"/><text fill="#000000" font-family="sans-serif" font-size="14" lengthAdjust="spacing" textLength="99.2236" x="109.437" y="411.6201">ClientWebApp</text></g><g class="participant participant-head" data-participant="RegistrationController"><rect fill="#E3E3E3" height="30.2969" rx="2.5" ry="2.5" style="stroke:#181818;stroke-width:0.5;" width="168.2256" x="225.6606" y="50"/><text fill="#000000" font-family="sans-serif" font-size="14" lengthAdjust="spacing" textLength="154.2256" x="232.6606" y="69.9951">RegistrationController</text></g><g class="participant participant-tail" data-participant="RegistrationController"><rect fill="#E3E3E3" height="30.2969" rx="2.5" ry="2.5" style="stroke:#181818;stroke-width:0.5;" width="168.2256" x="225.6606" y="391.625"/><text fill="#000000" font-family="sans-serif" font-size="14" lengthAdjust="spacing" textLength="154.2256" x="232.6606" y="411.6201">RegistrationController</text></g><g class="participant participant-head" data-participant="CourseController"><rect fill="#E3E3E3" height="30.2969" rx="2.5" ry="2.5" style="stroke:#181818;stroke-width:0.5;" width="132.0498" x="403.8862" y="50"/><text fill="#000000" font-family="sans-serif" font-size="14" lengthAdjust="spacing" textLength="118.0498" x="410.8862" y="69.9951">CourseController</text></g><g class="participant participant-tail" data-participant="CourseController"><rect fill="#E3E3E3" height="30.2969" rx="2.5" ry="2.5" style="stroke:#181818;stroke-width:0.5;" width="132.0498" x="403.8862" y="391.625"/><text fill="#000000" font-family="sans-serif" font-size="14" lengthAdjust="spacing" textLength="118.0498" x="410.8862" y="411.6201">CourseController</text></g><g class="participant participant-head" data-participant="SQLServer"><rect fill="#E3E3E3" height="30.2969" rx="2.5" ry="2.5" style="stroke:#181818;stroke-width:0.5;" width="87.6162" x="545.936" y="50"/><text fill="#000000" font-family="sans-serif" font-size="14" lengthAdjust="spacing" textLength="73.6162" x="552.936" y="69.9951">SQLServer</text></g><g class="participant participant-tail" data-participant="SQLServer"><rect fill="#E3E3E3" height="30.2969" rx="2.5" ry="2.5" style="stroke:#181818;stroke-width:0.5;" width="87.6162" x="545.936" y="391.625"/><text fill="#000000" font-family="sans-serif" font-size="14" lengthAdjust="spacing" textLength="73.6162" x="552.936" y="411.6201">SQLServer</text></g><g class="participant participant-head" data-participant="NS"><rect fill="#E3E3E3" height="30.2969" rx="2.5" ry="2.5" style="stroke:#181818;stroke-width:0.5;" width="33.3594" x="643.5522" y="50"/><text fill="#000000" font-family="sans-serif" font-size="14" lengthAdjust="spacing" textLength="19.3594" x="650.5522" y="69.9951">NS</text></g><g class="participant participant-tail" data-participant="NS"><rect fill="#E3E3E3" height="30.2969" rx="2.5" ry="2.5" style="stroke:#181818;stroke-width:0.5;" width="33.3594" x="643.5522" y="391.625"/><text fill="#000000" font-family="sans-serif" font-size="14" lengthAdjust="spacing" textLength="19.3594" x="650.5522" y="411.6201">NS</text></g><g class="message" data-participant-1="Student" data-participant-2="ClientWebApp"><polygon fill="#181818" points="147.0488,108.4297,157.0488,112.4297,147.0488,116.4297,151.0488,112.4297" style="stroke:#181818;stroke-width:1;"/><line style="stroke:#181818;stroke-width:1;" x1="35.5557" x2="153.0488" y1="112.4297" y2="112.4297"/><text fill="#000000" font-family="sans-serif" font-size="13" lengthAdjust="spacing" textLength="99.4932" x="42.5557" y="107.3638">RegisterCourse</text></g><g class="message" data-participant-1="ClientWebApp" data-participant-2="RegistrationController"><polygon fill="#181818" points="297.7734,137.5625,307.7734,141.5625,297.7734,145.5625,301.7734,141.5625" style="stroke:#181818;stroke-width:1;"/><line style="stroke:#181818;stroke-width:1;" x1="159.0488" x2="303.7734" y1="141.5625" y2="141.5625"/><text fill="#000000" font-family="sans-serif" font-size="13" lengthAdjust="spacing" textLength="86.1313" x="166.0488" y="136.4966">SendRequest</text></g><g class="message" data-participant-1="RegistrationController" data-participant-2="CourseController"><polygon fill="#181818" points="457.9111,166.6953,467.9111,170.6953,457.9111,174.6953,461.9111,170.6953" style="stroke:#181818;stroke-width:1;"/><line style="stroke:#181818;stroke-width:1;" x1="309.7734" x2="463.9111" y1="170.6953" y2="170.6953"/><text fill="#000000" font-family="sans-serif" font-size="13" lengthAdjust="spacing" textLength="93.1582" x="316.7734" y="165.6294">GetCourseInfo</text></g><g class="message" data-participant-1="CourseController" data-participant-2="SQLServer"><polygon fill="#181818" points="577.7441,195.8281,587.7441,199.8281,577.7441,203.8281,581.7441,199.8281" style="stroke:#181818;stroke-width:1;"/><line style="stroke:#181818;stroke-width:1;" x1="469.9111" x2="583.7441" y1="199.8281" y2="199.8281"/><text fill="#000000" font-family="sans-serif" font-size="13" lengthAdjust="spacing" textLength="84.8936" x="476.9111" y="194.7622">QueryCourse</text></g><g class="message" data-participant-1="SQLServer" data-participant-2="CourseController"><polygon fill="#181818" points="480.9111,224.9609,470.9111,228.9609,480.9111,232.9609,476.9111,228.9609" style="stroke:#181818;stroke-width:1;"/><line style="stroke:#181818;stroke-width:1;stroke-dasharray:2.0,2.0;" x1="474.9111" x2="588.7441" y1="228.9609" y2="228.9609"/><text fill="#000000" font-family="sans-serif" font-size="13" lengthAdjust="spacing" textLength="69.9893" x="486.9111" y="223.895">CourseInfo</text></g><g class="message" data-participant-1="CourseController" data-participant-2="RegistrationController"><polygon fill="#181818" points="320.7734,254.0938,310.7734,258.0938,320.7734,262.0938,316.7734,258.0938" style="stroke:#181818;stroke-width:1;"/><line style="stroke:#181818;stroke-width:1;stroke-dasharray:2.0,2.0;" x1="314.7734" x2="468.9111" y1="258.0938" y2="258.0938"/><text fill="#000000" font-family="sans-serif" font-size="13" lengthAdjust="spacing" textLength="24.6035" x="326.7734" y="253.0278">Info</text></g><g class="message" data-participant-1="RegistrationController" data-participant-2="SQLServer"><polygon fill="#181818" points="577.7441,283.2266,587.7441,287.2266,577.7441,291.2266,581.7441,287.2266" style="stroke:#181818;stroke-width:1;"/><line style="stroke:#181818;stroke-width:1;" x1="309.7734" x2="583.7441" y1="287.2266" y2="287.2266"/><text fill="#000000" font-family="sans-serif" font-size="13" lengthAdjust="spacing" textLength="110.8872" x="316.7734" y="282.1606">SaveRegistration</text></g><g class="message" data-participant-1="SQLServer" data-participant-2="RegistrationController"><polygon fill="#181818" points="320.7734,312.3594,310.7734,316.3594,320.7734,320.3594,316.7734,316.3594" style="stroke:#181818;stroke-width:1;"/><line style="stroke:#181818;stroke-width:1;stroke-dasharray:2.0,2.0;" x1="314.7734" x2="588.7441" y1="316.3594" y2="316.3594"/><text fill="#000000" font-family="sans-serif" font-size="13" lengthAdjust="spacing" textLength="84.335" x="326.7734" y="311.2935">Confirmation</text></g><g class="message" data-participant-1="RegistrationController" data-participant-2="NS"><polygon fill="#181818" points="648.2319,341.4922,658.2319,345.4922,648.2319,349.4922,652.2319,345.4922" style="stroke:#181818;stroke-width:1;"/><line style="stroke:#181818;stroke-width:1;" x1="309.7734" x2="654.2319" y1="345.4922" y2="345.4922"/><text fill="#000000" font-family="sans-serif" font-size="13" lengthAdjust="spacing" textLength="74.5913" x="316.7734" y="340.4263">Notification</text></g><g class="message" data-participant-1="NS" data-participant-2="Student"><polygon fill="#181818" points="46.5557,370.625,36.5557,374.625,46.5557,378.625,42.5557,374.625" style="stroke:#181818;stroke-width:1;"/><line style="stroke:#181818;stroke-width:1;stroke-dasharray:2.0,2.0;" x1="40.5557" x2="659.2319" y1="374.625" y2="374.625"/><text fill="#000000" font-family="sans-serif" font-size="13" lengthAdjust="spacing" textLength="84.335" x="52.5557" y="369.5591">Confirmation</text></g><!--SRC=[VL5B2i8m4Dtd57C1Bv2582v4a89cuJhMgGwscJgT2DxU_YXjQTs5znzIlIYKNdm11GTEdy85Waf4OtogBE0qtZ6egKLAAPK-AEnpgg4htdPbEI4k-A1AnIjns7DGuJn7cNevIeKhf3kV7CfdXYREc7u6RBQJTjjNedIvPamsukL55Xo6-mNV4IirovgsQZRMmW6r0uyXOpFd6yzmWuLpHFdsmmOODel1VrF_7D8wrYyOhN7-WsFXRD9QGVtEI8hEibwKE0i9AsMKTjB4jR7znqrpVW00]--></g></svg>