<svg xmlns="http://www.w3.org/2000/svg" xmlns:xlink="http://www.w3.org/1999/xlink" contentStyleType="text/css" data-diagram-type="SEQUENCE" height="589px" preserveAspectRatio="none" style="width:705px;height:589px;background:#FFFFFF;" version="1.1" viewBox="0 0 705 589" width="705px" zoomAndPan="magnify"><defs/><g><g><title>Student</title><rect fill="#000000" fill-opacity="0.00000" height="427.8594" width="8" x="31.5557" y="81.2969"/><line style="stroke:#181818;stroke-width:0.5;stroke-dasharray:5.0,5.0;" x1="35" x2="35" y1="81.2969" y2="509.1563"/></g><g><title>Teacher</title><rect fill="#000000" fill-opacity="0.00000" height="427.8594" width="8" x="103.4531" y="81.2969"/><line style="stroke:#181818;stroke-width:0.5;stroke-dasharray:5.0,5.0;" x1="107.1113" x2="107.1113" y1="81.2969" y2="509.1563"/></g><g><title>Admin</title><rect fill="#000000" fill-opacity="0.00000" height="427.8594" width="8" x="170.2271" y="81.2969"/><line style="stroke:#181818;stroke-width:0.5;stroke-dasharray:5.0,5.0;" x1="173.7949" x2="173.7949" y1="81.2969" y2="509.1563"/></g><g><title>UAP</title><rect fill="#000000" fill-opacity="0.00000" height="427.8594" width="8" x="226.7925" y="81.2969"/><line style="stroke:#181818;stroke-width:0.5;stroke-dasharray:5.0,5.0;" x1="230.6592" x2="230.6592" y1="81.2969" y2="509.1563"/></g><g><title>CMP</title><rect fill="#000000" fill-opacity="0.00000" height="427.8594" width="8" x="280.0742" y="81.2969"/><line style="stroke:#181818;stroke-width:0.5;stroke-dasharray:5.0,5.0;" x1="283.9258" x2="283.9258" y1="81.2969" y2="509.1563"/></g><g><title>SRP</title><rect fill="#000000" fill-opacity="0.00000" height="427.8594" width="8" x="395.3535" y="81.2969"/><line style="stroke:#181818;stroke-width:0.5;stroke-dasharray:5.0,5.0;" x1="398.8252" x2="398.8252" y1="81.2969" y2="509.1563"/></g><g><title>AMP</title><rect fill="#000000" fill-opacity="0.00000" height="427.8594" width="8" x="447.9312" y="81.2969"/><line style="stroke:#181818;stroke-width:0.5;stroke-dasharray:5.0,5.0;" x1="451.8818" x2="451.8818" y1="81.2969" y2="509.1563"/></g><g><title>SMP</title><rect fill="#000000" fill-opacity="0.00000" height="427.8594" width="8" x="501.6846" y="81.2969"/><line style="stroke:#181818;stroke-width:0.5;stroke-dasharray:5.0,5.0;" x1="504.9805" x2="504.9805" y1="81.2969" y2="509.1563"/></g><g><title>CIP</title><rect fill="#000000" fill-opacity="0.00000" height="427.8594" width="8" x="551.562" y="81.2969"/><line style="stroke:#181818;stroke-width:0.5;stroke-dasharray:5.0,5.0;" x1="555.3887" x2="555.3887" y1="81.2969" y2="509.1563"/></g><g><title>NS</title><rect fill="#000000" fill-opacity="0.00000" height="427.8594" width="8" x="679.1558" y="81.2969"/><line style="stroke:#181818;stroke-width:0.5;stroke-dasharray:5.0,5.0;" x1="682.4761" x2="682.4761" y1="81.2969" y2="509.1563"/></g><g class="participant participant-head" data-participant="Student"><text fill="#000000" font-family="sans-serif" font-size="14" lengthAdjust="spacing" textLength="55.1113" x="5" y="77.9951">Student</text><ellipse cx="35.5557" cy="13.5" fill="#E3E3E3" rx="8" ry="8" style="stroke:#181818;stroke-width:0.5;"/><path d="M35.5557,21.5 L35.5557,48.5 M22.5557,29.5 L48.5557,29.5 M35.5557,48.5 L22.5557,63.5 M35.5557,48.5 L48.5557,63.5" fill="none" style="stroke:#181818;stroke-width:0.5;"/></g><g class="participant participant-tail" data-participant="Student"><text fill="#000000" font-family="sans-serif" font-size="14" lengthAdjust="spacing" textLength="55.1113" x="5" y="521.1514">Student</text><ellipse cx="35.5557" cy="532.9531" fill="#E3E3E3" rx="8" ry="8" style="stroke:#181818;stroke-width:0.5;"/><path d="M35.5557,540.9531 L35.5557,567.9531 M22.5557,548.9531 L48.5557,548.9531 M35.5557,567.9531 L22.5557,582.9531 M35.5557,567.9531 L48.5557,582.9531" fill="none" style="stroke:#181818;stroke-width:0.5;"/></g><g class="participant participant-head" data-participant="Teacher"><text fill="#000000" font-family="sans-serif" font-size="14" lengthAdjust="spacing" textLength="56.6836" x="76.1113" y="77.9951">Teacher</text><ellipse cx="107.4531" cy="13.5" fill="#E3E3E3" rx="8" ry="8" style="stroke:#181818;stroke-width:0.5;"/><path d="M107.4531,21.5 L107.4531,48.5 M94.4531,29.5 L120.4531,29.5 M107.4531,48.5 L94.4531,63.5 M107.4531,48.5 L120.4531,63.5" fill="none" style="stroke:#181818;stroke-width:0.5;"/></g><g class="participant participant-tail" data-participant="Teacher"><text fill="#000000" font-family="sans-serif" font-size="14" lengthAdjust="spacing" textLength="56.6836" x="76.1113" y="521.1514">Teacher</text><ellipse cx="107.4531" cy="532.9531" fill="#E3E3E3" rx="8" ry="8" style="stroke:#181818;stroke-width:0.5;"/><path d="M107.4531,540.9531 L107.4531,567.9531 M94.4531,548.9531 L120.4531,548.9531 M107.4531,567.9531 L94.4531,582.9531 M107.4531,567.9531 L120.4531,582.9531" fill="none" style="stroke:#181818;stroke-width:0.5;"/></g><g class="participant participant-head" data-participant="Admin"><text fill="#000000" font-family="sans-serif" font-size="14" lengthAdjust="spacing" textLength="44.8643" x="148.7949" y="77.9951">Admin</text><ellipse cx="174.2271" cy="13.5" fill="#E3E3E3" rx="8" ry="8" style="stroke:#181818;stroke-width:0.5;"/><path d="M174.2271,21.5 L174.2271,48.5 M161.2271,29.5 L187.2271,29.5 M174.2271,48.5 L161.2271,63.5 M174.2271,48.5 L187.2271,63.5" fill="none" style="stroke:#181818;stroke-width:0.5;"/></g><g class="participant participant-tail" data-participant="Admin"><text fill="#000000" font-family="sans-serif" font-size="14" lengthAdjust="spacing" textLength="44.8643" x="148.7949" y="521.1514">Admin</text><ellipse cx="174.2271" cy="532.9531" fill="#E3E3E3" rx="8" ry="8" style="stroke:#181818;stroke-width:0.5;"/><path d="M174.2271,540.9531 L174.2271,567.9531 M161.2271,548.9531 L187.2271,548.9531 M174.2271,567.9531 L161.2271,582.9531 M174.2271,567.9531 L187.2271,582.9531" fill="none" style="stroke:#181818;stroke-width:0.5;"/></g><g class="participant participant-head" data-participant="UAP"><rect fill="#E3E3E3" height="30.2969" rx="2.5" ry="2.5" style="stroke:#181818;stroke-width:0.5;" width="42.2666" x="209.6592" y="50"/><text fill="#000000" font-family="sans-serif" font-size="14" lengthAdjust="spacing" textLength="28.2666" x="216.6592" y="69.9951">UAP</text></g><g class="participant participant-tail" data-participant="UAP"><rect fill="#E3E3E3" height="30.2969" rx="2.5" ry="2.5" style="stroke:#181818;stroke-width:0.5;" width="42.2666" x="209.6592" y="508.1563"/><text fill="#000000" font-family="sans-serif" font-size="14" lengthAdjust="spacing" textLength="28.2666" x="216.6592" y="528.1514">UAP</text></g><g class="participant participant-head" data-participant="CMP"><rect fill="#E3E3E3" height="30.2969" rx="2.5" ry="2.5" style="stroke:#181818;stroke-width:0.5;" width="44.2969" x="261.9258" y="50"/><text fill="#000000" font-family="sans-serif" font-size="14" lengthAdjust="spacing" textLength="30.2969" x="268.9258" y="69.9951">CMP</text></g><g class="participant participant-tail" data-participant="CMP"><rect fill="#E3E3E3" height="30.2969" rx="2.5" ry="2.5" style="stroke:#181818;stroke-width:0.5;" width="44.2969" x="261.9258" y="508.1563"/><text fill="#000000" font-family="sans-serif" font-size="14" lengthAdjust="spacing" textLength="30.2969" x="268.9258" y="528.1514">CMP</text></g><g class="participant participant-head" data-participant="SRP"><rect fill="#E3E3E3" height="30.2969" rx="2.5" ry="2.5" style="stroke:#181818;stroke-width:0.5;" width="41.0566" x="378.8252" y="50"/><text fill="#000000" font-family="sans-serif" font-size="14" lengthAdjust="spacing" textLength="27.0566" x="385.8252" y="69.9951">SRP</text></g><g class="participant participant-tail" data-participant="SRP"><rect fill="#E3E3E3" height="30.2969" rx="2.5" ry="2.5" style="stroke:#181818;stroke-width:0.5;" width="41.0566" x="378.8252" y="508.1563"/><text fill="#000000" font-family="sans-serif" font-size="14" lengthAdjust="spacing" textLength="27.0566" x="385.8252" y="528.1514">SRP</text></g><g class="participant participant-head" data-participant="AMP"><rect fill="#E3E3E3" height="30.2969" rx="2.5" ry="2.5" style="stroke:#181818;stroke-width:0.5;" width="44.0986" x="429.8818" y="50"/><text fill="#000000" font-family="sans-serif" font-size="14" lengthAdjust="spacing" textLength="30.0986" x="436.8818" y="69.9951">AMP</text></g><g class="participant participant-tail" data-participant="AMP"><rect fill="#E3E3E3" height="30.2969" rx="2.5" ry="2.5" style="stroke:#181818;stroke-width:0.5;" width="44.0986" x="429.8818" y="508.1563"/><text fill="#000000" font-family="sans-serif" font-size="14" lengthAdjust="spacing" textLength="30.0986" x="436.8818" y="528.1514">AMP</text></g><g class="participant participant-head" data-participant="SMP"><rect fill="#E3E3E3" height="30.2969" rx="2.5" ry="2.5" style="stroke:#181818;stroke-width:0.5;" width="43.4082" x="483.9805" y="50"/><text fill="#000000" font-family="sans-serif" font-size="14" lengthAdjust="spacing" textLength="29.4082" x="490.9805" y="69.9951">SMP</text></g><g class="participant participant-tail" data-participant="SMP"><rect fill="#E3E3E3" height="30.2969" rx="2.5" ry="2.5" style="stroke:#181818;stroke-width:0.5;" width="43.4082" x="483.9805" y="508.1563"/><text fill="#000000" font-family="sans-serif" font-size="14" lengthAdjust="spacing" textLength="29.4082" x="490.9805" y="528.1514">SMP</text></g><g class="participant participant-head" data-participant="CIP"><rect fill="#E3E3E3" height="30.2969" rx="2.5" ry="2.5" style="stroke:#181818;stroke-width:0.5;" width="36.3467" x="537.3887" y="50"/><text fill="#000000" font-family="sans-serif" font-size="14" lengthAdjust="spacing" textLength="22.3467" x="544.3887" y="69.9951">CIP</text></g><g class="participant participant-tail" data-participant="CIP"><rect fill="#E3E3E3" height="30.2969" rx="2.5" ry="2.5" style="stroke:#181818;stroke-width:0.5;" width="36.3467" x="537.3887" y="508.1563"/><text fill="#000000" font-family="sans-serif" font-size="14" lengthAdjust="spacing" textLength="22.3467" x="544.3887" y="528.1514">CIP</text></g><g class="participant participant-head" data-participant="NS"><rect fill="#E3E3E3" height="30.2969" rx="2.5" ry="2.5" style="stroke:#181818;stroke-width:0.5;" width="33.3594" x="666.4761" y="50"/><text fill="#000000" font-family="sans-serif" font-size="14" lengthAdjust="spacing" textLength="19.3594" x="673.4761" y="69.9951">NS</text></g><g class="participant participant-tail" data-participant="NS"><rect fill="#E3E3E3" height="30.2969" rx="2.5" ry="2.5" style="stroke:#181818;stroke-width:0.5;" width="33.3594" x="666.4761" y="508.1563"/><text fill="#000000" font-family="sans-serif" font-size="14" lengthAdjust="spacing" textLength="19.3594" x="673.4761" y="528.1514">NS</text></g><g class="message" data-participant-1="Student" data-participant-2="UAP"><polygon fill="#181818" points="218.7925,108.4297,228.7925,112.4297,218.7925,116.4297,222.7925,112.4297" style="stroke:#181818;stroke-width:1;"/><line style="stroke:#181818;stroke-width:1;" x1="35.5557" x2="224.7925" y1="112.4297" y2="112.4297"/><text fill="#000000" font-family="sans-serif" font-size="13" lengthAdjust="spacing" textLength="35.2993" x="42.5557" y="107.3638">Login</text></g><g class="message" data-participant-1="UAP" data-participant-2="Student"><polygon fill="#181818" points="46.5557,137.5625,36.5557,141.5625,46.5557,145.5625,42.5557,141.5625" style="stroke:#181818;stroke-width:1;"/><line style="stroke:#181818;stroke-width:1;stroke-dasharray:2.0,2.0;" x1="40.5557" x2="229.7925" y1="141.5625" y2="141.5625"/><text fill="#000000" font-family="sans-serif" font-size="13" lengthAdjust="spacing" textLength="24.6289" x="52.5557" y="136.4966">JWT</text></g><g class="message" data-participant-1="Student" data-participant-2="SRP"><polygon fill="#181818" points="387.3535,166.6953,397.3535,170.6953,387.3535,174.6953,391.3535,170.6953" style="stroke:#181818;stroke-width:1;"/><line style="stroke:#181818;stroke-width:1;" x1="35.5557" x2="393.3535" y1="170.6953" y2="170.6953"/><text fill="#000000" font-family="sans-serif" font-size="13" lengthAdjust="spacing" textLength="99.4932" x="42.5557" y="165.6294">RegisterCourse</text></g><g class="message" data-participant-1="SRP" data-participant-2="CMP"><polygon fill="#181818" points="295.0742,195.8281,285.0742,199.8281,295.0742,203.8281,291.0742,199.8281" style="stroke:#181818;stroke-width:1;"/><line style="stroke:#181818;stroke-width:1;" x1="289.0742" x2="398.3535" y1="199.8281" y2="199.8281"/><text fill="#000000" font-family="sans-serif" font-size="13" lengthAdjust="spacing" textLength="91.2793" x="301.0742" y="194.7622">GetCourseList</text></g><g class="message" data-participant-1="CMP" data-participant-2="SRP"><polygon fill="#181818" points="387.3535,224.9609,397.3535,228.9609,387.3535,232.9609,391.3535,228.9609" style="stroke:#181818;stroke-width:1;"/><line style="stroke:#181818;stroke-width:1;stroke-dasharray:2.0,2.0;" x1="284.0742" x2="393.3535" y1="228.9609" y2="228.9609"/><text fill="#000000" font-family="sans-serif" font-size="13" lengthAdjust="spacing" textLength="68.1104" x="291.0742" y="223.895">CourseList</text></g><g class="message" data-participant-1="SRP" data-participant-2="NS"><polygon fill="#181818" points="671.1558,254.0938,681.1558,258.0938,671.1558,262.0938,675.1558,258.0938" style="stroke:#181818;stroke-width:1;"/><line style="stroke:#181818;stroke-width:1;" x1="399.3535" x2="677.1558" y1="258.0938" y2="258.0938"/><text fill="#000000" font-family="sans-serif" font-size="13" lengthAdjust="spacing" textLength="84.335" x="406.3535" y="253.0278">Confirmation</text></g><g class="message" data-participant-1="Teacher" data-participant-2="AMP"><polygon fill="#181818" points="439.9312,283.2266,449.9312,287.2266,439.9312,291.2266,443.9312,287.2266" style="stroke:#181818;stroke-width:1;"/><line style="stroke:#181818;stroke-width:1;" x1="107.4531" x2="445.9312" y1="287.2266" y2="287.2266"/><text fill="#000000" font-family="sans-serif" font-size="13" lengthAdjust="spacing" textLength="120.0215" x="114.4531" y="282.1606">CreateAssignment</text></g><g class="message" data-participant-1="AMP" data-participant-2="NS"><polygon fill="#181818" points="671.1558,312.3594,681.1558,316.3594,671.1558,320.3594,675.1558,316.3594" style="stroke:#181818;stroke-width:1;"/><line style="stroke:#181818;stroke-width:1;" x1="451.9312" x2="677.1558" y1="316.3594" y2="316.3594"/><text fill="#000000" font-family="sans-serif" font-size="13" lengthAdjust="spacing" textLength="151.1313" x="458.9312" y="311.2935">AssignmentNotification</text></g><g class="message" data-participant-1="Student" data-participant-2="AMP"><polygon fill="#181818" points="439.9312,341.4922,449.9312,345.4922,439.9312,349.4922,443.9312,345.4922" style="stroke:#181818;stroke-width:1;"/><line style="stroke:#181818;stroke-width:1;" x1="35.5557" x2="445.9312" y1="345.4922" y2="345.4922"/><text fill="#000000" font-family="sans-serif" font-size="13" lengthAdjust="spacing" textLength="122.6558" x="42.5557" y="340.4263">SubmitAssignment</text></g><g class="message" data-participant-1="AMP" data-participant-2="Teacher"><polygon fill="#181818" points="118.4531,370.625,108.4531,374.625,118.4531,378.625,114.4531,374.625" style="stroke:#181818;stroke-width:1;"/><line style="stroke:#181818;stroke-width:1;" x1="112.4531" x2="450.9312" y1="374.625" y2="374.625"/><text fill="#000000" font-family="sans-serif" font-size="13" lengthAdjust="spacing" textLength="148.9604" x="124.4531" y="369.5591">SubmissionNotification</text></g><g class="message" data-participant-1="Teacher" data-participant-2="SMP"><polygon fill="#181818" points="493.6846,399.7578,503.6846,403.7578,493.6846,407.7578,497.6846,403.7578" style="stroke:#181818;stroke-width:1;"/><line style="stroke:#181818;stroke-width:1;" x1="107.4531" x2="499.6846" y1="403.7578" y2="403.7578"/><text fill="#000000" font-family="sans-serif" font-size="13" lengthAdjust="spacing" textLength="106.9834" x="114.4531" y="398.6919">MarkAttendance</text></g><g class="message" data-participant-1="SMP" data-participant-2="NS"><polygon fill="#181818" points="671.1558,428.8906,681.1558,432.8906,671.1558,436.8906,675.1558,432.8906" style="stroke:#181818;stroke-width:1;"/><line style="stroke:#181818;stroke-width:1;" x1="505.6846" x2="677.1558" y1="432.8906" y2="432.8906"/><text fill="#000000" font-family="sans-serif" font-size="13" lengthAdjust="spacing" textLength="112.7407" x="512.6846" y="427.8247">SessionReminder</text></g><g class="message" data-participant-1="Admin" data-participant-2="CIP"><polygon fill="#181818" points="543.562,458.0234,553.562,462.0234,543.562,466.0234,547.562,462.0234" style="stroke:#181818;stroke-width:1;"/><line style="stroke:#181818;stroke-width:1;" x1="174.2271" x2="549.562" y1="462.0234" y2="462.0234"/><text fill="#000000" font-family="sans-serif" font-size="13" lengthAdjust="spacing" textLength="101.1436" x="181.2271" y="456.9575">IssueCertificate</text></g><g class="message" data-participant-1="CIP" data-participant-2="NS"><polygon fill="#181818" points="671.1558,487.1563,681.1558,491.1563,671.1558,495.1563,675.1558,491.1563" style="stroke:#181818;stroke-width:1;"/><line style="stroke:#181818;stroke-width:1;" x1="555.562" x2="677.1558" y1="491.1563" y2="491.1563"/><text fill="#000000" font-family="sans-serif" font-size="13" lengthAdjust="spacing" textLength="103.5938" x="562.562" y="486.0903">CertificateEmail</text></g><!--SRC=[PL51ZiCW3Bpp2ZxG3-Im4eggLLPDj0fTzSmIDxMwG0NE_siIr2JT6pFsZ0SxtT4_J3HEkk23lSNWG5ASG0XZAKIfQHh0Kq5dCFO6iI0rEFH2i9xGuiDuaZ_gUuVhTezrlyVglVw6wsQFEor4YIGF7tbS9KzXv1Zyb0UcIhMINvVpjfKdLxA74HD1hCCK4mZcSeb3Ll8JQ65Ft26OMjooQiCNHQSpwwyOdI4CNfJ5v9hARdK4Gw1Imj6xl3_LleGhsmN2Azh5OfDrjj3JhqFwRr56bGOk1x_psKJHsQSryQw8m0_6M_xp6aJ3hEw1ppZmLUTxpWjfMDUaD44DiLY3OFRrzvK-EeD_Jm00]--></g></svg>