<svg xmlns="http://www.w3.org/2000/svg" xmlns:xlink="http://www.w3.org/1999/xlink" contentStyleType="text/css" data-diagram-type="SEQUENCE" height="356px" preserveAspectRatio="none" style="width:526px;height:356px;background:#FFFFFF;" version="1.1" viewBox="0 0 526 356" width="526px" zoomAndPan="magnify"><defs/><g><g><title>Teacher</title><rect fill="#000000" fill-opacity="0.00000" height="194.7969" width="8" x="32.3418" y="81.2969"/><line style="stroke:#181818;stroke-width:0.5;stroke-dasharray:5.0,5.0;" x1="36" x2="36" y1="81.2969" y2="276.0938"/></g><g><title>ClientWebApp</title><rect fill="#000000" fill-opacity="0.00000" height="194.7969" width="8" x="163.3252" y="81.2969"/><line style="stroke:#181818;stroke-width:0.5;stroke-dasharray:5.0,5.0;" x1="166.7134" x2="166.7134" y1="81.2969" y2="276.0938"/></g><g><title>SessionController</title><rect fill="#000000" fill-opacity="0.00000" height="194.7969" width="8" x="298.2314" y="81.2969"/><line style="stroke:#181818;stroke-width:0.5;stroke-dasharray:5.0,5.0;" x1="301.937" x2="301.937" y1="81.2969" y2="276.0938"/></g><g><title>SQLServer</title><rect fill="#000000" fill-opacity="0.00000" height="194.7969" width="8" x="429.0688" y="81.2969"/><line style="stroke:#181818;stroke-width:0.5;stroke-dasharray:5.0,5.0;" x1="432.2607" x2="432.2607" y1="81.2969" y2="276.0938"/></g><g><title>NS</title><rect fill="#000000" fill-opacity="0.00000" height="194.7969" width="8" x="499.5566" y="81.2969"/><line style="stroke:#181818;stroke-width:0.5;stroke-dasharray:5.0,5.0;" x1="502.877" x2="502.877" y1="81.2969" y2="276.0938"/></g><g class="participant participant-head" data-participant="Teacher"><text fill="#000000" font-family="sans-serif" font-size="14" lengthAdjust="spacing" textLength="56.6836" x="5" y="77.9951">Teacher</text><ellipse cx="36.3418" cy="13.5" fill="#E3E3E3" rx="8" ry="8" style="stroke:#181818;stroke-width:0.5;"/><path d="M36.3418,21.5 L36.3418,48.5 M23.3418,29.5 L49.3418,29.5 M36.3418,48.5 L23.3418,63.5 M36.3418,48.5 L49.3418,63.5" fill="none" style="stroke:#181818;stroke-width:0.5;"/></g><g class="participant participant-tail" data-participant="Teacher"><text fill="#000000" font-family="sans-serif" font-size="14" lengthAdjust="spacing" textLength="56.6836" x="5" y="288.0889">Teacher</text><ellipse cx="36.3418" cy="299.8906" fill="#E3E3E3" rx="8" ry="8" style="stroke:#181818;stroke-width:0.5;"/><path d="M36.3418,307.8906 L36.3418,334.8906 M23.3418,315.8906 L49.3418,315.8906 M36.3418,334.8906 L23.3418,349.8906 M36.3418,334.8906 L49.3418,349.8906" fill="none" style="stroke:#181818;stroke-width:0.5;"/></g><g class="participant participant-head" data-participant="ClientWebApp"><rect fill="#E3E3E3" height="30.2969" rx="2.5" ry="2.5" style="stroke:#181818;stroke-width:0.5;" width="113.2236" x="110.7134" y="50"/><text fill="#000000" font-family="sans-serif" font-size="14" lengthAdjust="spacing" textLength="99.2236" x="117.7134" y="69.9951">ClientWebApp</text></g><g class="participant participant-tail" data-participant="ClientWebApp"><rect fill="#E3E3E3" height="30.2969" rx="2.5" ry="2.5" style="stroke:#181818;stroke-width:0.5;" width="113.2236" x="110.7134" y="275.0938"/><text fill="#000000" font-family="sans-serif" font-size="14" lengthAdjust="spacing" textLength="99.2236" x="117.7134" y="295.0889">ClientWebApp</text></g><g class="participant participant-head" data-participant="SessionController"><rect fill="#E3E3E3" height="30.2969" rx="2.5" ry="2.5" style="stroke:#181818;stroke-width:0.5;" width="136.5889" x="233.937" y="50"/><text fill="#000000" font-family="sans-serif" font-size="14" lengthAdjust="spacing" textLength="122.5889" x="240.937" y="69.9951">SessionController</text></g><g class="participant participant-tail" data-participant="SessionController"><rect fill="#E3E3E3" height="30.2969" rx="2.5" ry="2.5" style="stroke:#181818;stroke-width:0.5;" width="136.5889" x="233.937" y="275.0938"/><text fill="#000000" font-family="sans-serif" font-size="14" lengthAdjust="spacing" textLength="122.5889" x="240.937" y="295.0889">SessionController</text></g><g class="participant participant-head" data-participant="SQLServer"><rect fill="#E3E3E3" height="30.2969" rx="2.5" ry="2.5" style="stroke:#181818;stroke-width:0.5;" width="87.6162" x="389.2607" y="50"/><text fill="#000000" font-family="sans-serif" font-size="14" lengthAdjust="spacing" textLength="73.6162" x="396.2607" y="69.9951">SQLServer</text></g><g class="participant participant-tail" data-participant="SQLServer"><rect fill="#E3E3E3" height="30.2969" rx="2.5" ry="2.5" style="stroke:#181818;stroke-width:0.5;" width="87.6162" x="389.2607" y="275.0938"/><text fill="#000000" font-family="sans-serif" font-size="14" lengthAdjust="spacing" textLength="73.6162" x="396.2607" y="295.0889">SQLServer</text></g><g class="participant participant-head" data-participant="NS"><rect fill="#E3E3E3" height="30.2969" rx="2.5" ry="2.5" style="stroke:#181818;stroke-width:0.5;" width="33.3594" x="486.877" y="50"/><text fill="#000000" font-family="sans-serif" font-size="14" lengthAdjust="spacing" textLength="19.3594" x="493.877" y="69.9951">NS</text></g><g class="participant participant-tail" data-participant="NS"><rect fill="#E3E3E3" height="30.2969" rx="2.5" ry="2.5" style="stroke:#181818;stroke-width:0.5;" width="33.3594" x="486.877" y="275.0938"/><text fill="#000000" font-family="sans-serif" font-size="14" lengthAdjust="spacing" textLength="19.3594" x="493.877" y="295.0889">NS</text></g><g class="message" data-participant-1="Teacher" data-participant-2="ClientWebApp"><polygon fill="#181818" points="155.3252,108.4297,165.3252,112.4297,155.3252,116.4297,159.3252,112.4297" style="stroke:#181818;stroke-width:1;"/><line style="stroke:#181818;stroke-width:1;" x1="36.3418" x2="161.3252" y1="112.4297" y2="112.4297"/><text fill="#000000" font-family="sans-serif" font-size="13" lengthAdjust="spacing" textLength="106.9834" x="43.3418" y="107.3638">MarkAttendance</text></g><g class="message" data-participant-1="ClientWebApp" data-participant-2="SessionController"><polygon fill="#181818" points="290.2314,137.5625,300.2314,141.5625,290.2314,145.5625,294.2314,141.5625" style="stroke:#181818;stroke-width:1;"/><line style="stroke:#181818;stroke-width:1;" x1="167.3252" x2="296.2314" y1="141.5625" y2="141.5625"/><text fill="#000000" font-family="sans-serif" font-size="13" lengthAdjust="spacing" textLength="107.6689" x="174.3252" y="136.4966">SendAttendance</text></g><g class="message" data-participant-1="SessionController" data-participant-2="SQLServer"><polygon fill="#181818" points="421.0688,166.6953,431.0688,170.6953,421.0688,174.6953,425.0688,170.6953" style="stroke:#181818;stroke-width:1;"/><line style="stroke:#181818;stroke-width:1;" x1="302.2314" x2="427.0688" y1="170.6953" y2="170.6953"/><text fill="#000000" font-family="sans-serif" font-size="13" lengthAdjust="spacing" textLength="106.8374" x="309.2314" y="165.6294">SaveAttendance</text></g><g class="message" data-participant-1="SQLServer" data-participant-2="SessionController"><polygon fill="#181818" points="313.2314,195.8281,303.2314,199.8281,313.2314,203.8281,309.2314,199.8281" style="stroke:#181818;stroke-width:1;"/><line style="stroke:#181818;stroke-width:1;stroke-dasharray:2.0,2.0;" x1="307.2314" x2="432.0688" y1="199.8281" y2="199.8281"/><text fill="#000000" font-family="sans-serif" font-size="13" lengthAdjust="spacing" textLength="84.335" x="319.2314" y="194.7622">Confirmation</text></g><g class="message" data-participant-1="SessionController" data-participant-2="NS"><polygon fill="#181818" points="491.5566,224.9609,501.5566,228.9609,491.5566,232.9609,495.5566,228.9609" style="stroke:#181818;stroke-width:1;"/><line style="stroke:#181818;stroke-width:1;" x1="302.2314" x2="497.5566" y1="228.9609" y2="228.9609"/><text fill="#000000" font-family="sans-serif" font-size="13" lengthAdjust="spacing" textLength="63.1401" x="309.2314" y="223.895">Reminder</text></g><g class="message" data-participant-1="NS" data-participant-2="Teacher"><polygon fill="#181818" points="47.3418,254.0938,37.3418,258.0938,47.3418,262.0938,43.3418,258.0938" style="stroke:#181818;stroke-width:1;"/><line style="stroke:#181818;stroke-width:1;stroke-dasharray:2.0,2.0;" x1="41.3418" x2="502.5566" y1="258.0938" y2="258.0938"/><text fill="#000000" font-family="sans-serif" font-size="13" lengthAdjust="spacing" textLength="74.458" x="53.3418" y="253.0278">Completion</text></g><!--SRC=[ROzB2iCm34JtFeKla0jaKGZTje7MXQvLHoKcjcmKDUUl4nB8RoTcteoaldEKW27e42dQbcD0BVn3fS1APFr2i2soof0uwnAGwAjtIFB6JvNInZ3OzoxIDP9mz7uNCu-RGHvsQcsKcfVeuhBfBlKTkAj4a1eWYsfjZl1XNvabQbQ90p75baCo3WEkySNHnNbzdh-E0qZMpyjhK-ed1aTDVhGsKz7ytnWFoUCO_WC0]--></g></svg>