<svg xmlns="http://www.w3.org/2000/svg" xmlns:xlink="http://www.w3.org/1999/xlink" contentStyleType="text/css" data-diagram-type="SEQUENCE" height="356px" preserveAspectRatio="none" style="width:474px;height:356px;background:#FFFFFF;" version="1.1" viewBox="0 0 474 356" width="474px" zoomAndPan="magnify"><defs/><g><g><title>User</title><rect fill="#000000" fill-opacity="0.00000" height="194.7969" width="8" x="19.9551" y="81.2969"/><line style="stroke:#181818;stroke-width:0.5;stroke-dasharray:5.0,5.0;" x1="23" x2="23" y1="81.2969" y2="276.0938"/></g><g><title>ClientWebApp</title><rect fill="#000000" fill-opacity="0.00000" height="194.7969" width="8" x="152.8174" y="81.2969"/><line style="stroke:#181818;stroke-width:0.5;stroke-dasharray:5.0,5.0;" x1="156.2056" x2="156.2056" y1="81.2969" y2="276.0938"/></g><g><title>UserAuthController</title><rect fill="#000000" fill-opacity="0.00000" height="194.7969" width="8" x="293.377" y="81.2969"/><line style="stroke:#181818;stroke-width:0.5;stroke-dasharray:5.0,5.0;" x1="296.4292" x2="296.4292" y1="81.2969" y2="276.0938"/></g><g><title>SQLServer</title><rect fill="#000000" fill-opacity="0.00000" height="194.7969" width="8" x="421.1328" y="81.2969"/><line style="stroke:#181818;stroke-width:0.5;stroke-dasharray:5.0,5.0;" x1="424.3247" x2="424.3247" y1="81.2969" y2="276.0938"/></g><g class="participant participant-head" data-participant="User"><text fill="#000000" font-family="sans-serif" font-size="14" lengthAdjust="spacing" textLength="31.9102" x="5" y="77.9951">User</text><ellipse cx="23.9551" cy="13.5" fill="#E3E3E3" rx="8" ry="8" style="stroke:#181818;stroke-width:0.5;"/><path d="M23.9551,21.5 L23.9551,48.5 M10.9551,29.5 L36.9551,29.5 M23.9551,48.5 L10.9551,63.5 M23.9551,48.5 L36.9551,63.5" fill="none" style="stroke:#181818;stroke-width:0.5;"/></g><g class="participant participant-tail" data-participant="User"><text fill="#000000" font-family="sans-serif" font-size="14" lengthAdjust="spacing" textLength="31.9102" x="5" y="288.0889">User</text><ellipse cx="23.9551" cy="299.8906" fill="#E3E3E3" rx="8" ry="8" style="stroke:#181818;stroke-width:0.5;"/><path d="M23.9551,307.8906 L23.9551,334.8906 M10.9551,315.8906 L36.9551,315.8906 M23.9551,334.8906 L10.9551,349.8906 M23.9551,334.8906 L36.9551,349.8906" fill="none" style="stroke:#181818;stroke-width:0.5;"/></g><g class="participant participant-head" data-participant="ClientWebApp"><rect fill="#E3E3E3" height="30.2969" rx="2.5" ry="2.5" style="stroke:#181818;stroke-width:0.5;" width="113.2236" x="100.2056" y="50"/><text fill="#000000" font-family="sans-serif" font-size="14" lengthAdjust="spacing" textLength="99.2236" x="107.2056" y="69.9951">ClientWebApp</text></g><g class="participant participant-tail" data-participant="ClientWebApp"><rect fill="#E3E3E3" height="30.2969" rx="2.5" ry="2.5" style="stroke:#181818;stroke-width:0.5;" width="113.2236" x="100.2056" y="275.0938"/><text fill="#000000" font-family="sans-serif" font-size="14" lengthAdjust="spacing" textLength="99.2236" x="107.2056" y="295.0889">ClientWebApp</text></g><g class="participant participant-head" data-participant="UserAuthController"><rect fill="#E3E3E3" height="30.2969" rx="2.5" ry="2.5" style="stroke:#181818;stroke-width:0.5;" width="147.8955" x="223.4292" y="50"/><text fill="#000000" font-family="sans-serif" font-size="14" lengthAdjust="spacing" textLength="133.8955" x="230.4292" y="69.9951">UserAuthController</text></g><g class="participant participant-tail" data-participant="UserAuthController"><rect fill="#E3E3E3" height="30.2969" rx="2.5" ry="2.5" style="stroke:#181818;stroke-width:0.5;" width="147.8955" x="223.4292" y="275.0938"/><text fill="#000000" font-family="sans-serif" font-size="14" lengthAdjust="spacing" textLength="133.8955" x="230.4292" y="295.0889">UserAuthController</text></g><g class="participant participant-head" data-participant="SQLServer"><rect fill="#E3E3E3" height="30.2969" rx="2.5" ry="2.5" style="stroke:#181818;stroke-width:0.5;" width="87.6162" x="381.3247" y="50"/><text fill="#000000" font-family="sans-serif" font-size="14" lengthAdjust="spacing" textLength="73.6162" x="388.3247" y="69.9951">SQLServer</text></g><g class="participant participant-tail" data-participant="SQLServer"><rect fill="#E3E3E3" height="30.2969" rx="2.5" ry="2.5" style="stroke:#181818;stroke-width:0.5;" width="87.6162" x="381.3247" y="275.0938"/><text fill="#000000" font-family="sans-serif" font-size="14" lengthAdjust="spacing" textLength="73.6162" x="388.3247" y="295.0889">SQLServer</text></g><g class="message" data-participant-1="User" data-participant-2="ClientWebApp"><polygon fill="#181818" points="144.8174,108.4297,154.8174,112.4297,144.8174,116.4297,148.8174,112.4297" style="stroke:#181818;stroke-width:1;"/><line style="stroke:#181818;stroke-width:1;" x1="23.9551" x2="150.8174" y1="112.4297" y2="112.4297"/><text fill="#000000" font-family="sans-serif" font-size="13" lengthAdjust="spacing" textLength="108.8623" x="30.9551" y="107.3638">EnterCredentials</text></g><g class="message" data-participant-1="ClientWebApp" data-participant-2="UserAuthController"><polygon fill="#181818" points="285.377,137.5625,295.377,141.5625,285.377,145.5625,289.377,141.5625" style="stroke:#181818;stroke-width:1;"/><line style="stroke:#181818;stroke-width:1;" x1="156.8174" x2="291.377" y1="141.5625" y2="141.5625"/><text fill="#000000" font-family="sans-serif" font-size="13" lengthAdjust="spacing" textLength="68.0405" x="163.8174" y="136.4966">SendLogin</text></g><g class="message" data-participant-1="UserAuthController" data-participant-2="SQLServer"><polygon fill="#181818" points="413.1328,166.6953,423.1328,170.6953,413.1328,174.6953,417.1328,170.6953" style="stroke:#181818;stroke-width:1;"/><line style="stroke:#181818;stroke-width:1;" x1="297.377" x2="419.1328" y1="170.6953" y2="170.6953"/><text fill="#000000" font-family="sans-serif" font-size="13" lengthAdjust="spacing" textLength="38.1177" x="304.377" y="165.6294">Verify</text></g><g class="message" data-participant-1="SQLServer" data-participant-2="UserAuthController"><polygon fill="#181818" points="308.377,195.8281,298.377,199.8281,308.377,203.8281,304.377,199.8281" style="stroke:#181818;stroke-width:1;"/><line style="stroke:#181818;stroke-width:1;stroke-dasharray:2.0,2.0;" x1="302.377" x2="424.1328" y1="199.8281" y2="199.8281"/><text fill="#000000" font-family="sans-serif" font-size="13" lengthAdjust="spacing" textLength="40.752" x="314.377" y="194.7622">Result</text></g><g class="message" data-participant-1="UserAuthController" data-participant-2="ClientWebApp"><polygon fill="#181818" points="167.8174,224.9609,157.8174,228.9609,167.8174,232.9609,163.8174,228.9609" style="stroke:#181818;stroke-width:1;"/><line style="stroke:#181818;stroke-width:1;" x1="161.8174" x2="296.377" y1="228.9609" y2="228.9609"/><text fill="#000000" font-family="sans-serif" font-size="13" lengthAdjust="spacing" textLength="24.6289" x="173.8174" y="223.895">JWT</text></g><g class="message" data-participant-1="ClientWebApp" data-participant-2="User"><polygon fill="#181818" points="34.9551,254.0938,24.9551,258.0938,34.9551,262.0938,30.9551,258.0938" style="stroke:#181818;stroke-width:1;"/><line style="stroke:#181818;stroke-width:1;stroke-dasharray:2.0,2.0;" x1="28.9551" x2="155.8174" y1="258.0938" y2="258.0938"/><text fill="#000000" font-family="sans-serif" font-size="13" lengthAdjust="spacing" textLength="89.2354" x="40.9551" y="253.0278">MainInterface</text></g><!--SRC=[TO_13e8m44Jl_Ohz0NwW1nD2F6ZmeAYSAopIMBRDifZuzzB4485mdNapizk_B0N3feFEawzQzXs2y81AcKeymwr7LYCXjhB1a43cB9AK-4X3c1cHJ0TfCq_2thb5hZZd1V9xL5Ka8TdDgZJiIP0pndhKh76z-hSZlXxGK23LkNzQKcitPgPL3NTastpKf42oqNd1Vd2oKJY_-LXU5sV-EZMSZAL3VAan5Nu1]--></g></svg>