<svg xmlns="http://www.w3.org/2000/svg" xmlns:xlink="http://www.w3.org/1999/xlink" contentStyleType="text/css" data-diagram-type="SEQUENCE" height="356px" preserveAspectRatio="none" style="width:488px;height:356px;background:#FFFFFF;" version="1.1" viewBox="0 0 488 356" width="488px" zoomAndPan="magnify"><defs/><g><g><title>Admin</title><rect fill="#000000" fill-opacity="0.00000" height="194.7969" width="8" x="26.4321" y="81.2969"/><line style="stroke:#181818;stroke-width:0.5;stroke-dasharray:5.0,5.0;" x1="30" x2="30" y1="81.2969" y2="276.0938"/></g><g><title>ClientWebApp</title><rect fill="#000000" fill-opacity="0.00000" height="194.7969" width="8" x="139.2993" y="81.2969"/><line style="stroke:#181818;stroke-width:0.5;stroke-dasharray:5.0,5.0;" x1="142.6875" x2="142.6875" y1="81.2969" y2="276.0938"/></g><g><title>CourseController</title><rect fill="#000000" fill-opacity="0.00000" height="194.7969" width="8" x="271.936" y="81.2969"/><line style="stroke:#181818;stroke-width:0.5;stroke-dasharray:5.0,5.0;" x1="275.9111" x2="275.9111" y1="81.2969" y2="276.0938"/></g><g><title>SQLServer</title><rect fill="#000000" fill-opacity="0.00000" height="194.7969" width="8" x="391.769" y="81.2969"/><line style="stroke:#181818;stroke-width:0.5;stroke-dasharray:5.0,5.0;" x1="394.9609" x2="394.9609" y1="81.2969" y2="276.0938"/></g><g><title>NS</title><rect fill="#000000" fill-opacity="0.00000" height="194.7969" width="8" x="462.2568" y="81.2969"/><line style="stroke:#181818;stroke-width:0.5;stroke-dasharray:5.0,5.0;" x1="465.5771" x2="465.5771" y1="81.2969" y2="276.0938"/></g><g class="participant participant-head" data-participant="Admin"><text fill="#000000" font-family="sans-serif" font-size="14" lengthAdjust="spacing" textLength="44.8643" x="5" y="77.9951">Admin</text><ellipse cx="30.4321" cy="13.5" fill="#E3E3E3" rx="8" ry="8" style="stroke:#181818;stroke-width:0.5;"/><path d="M30.4321,21.5 L30.4321,48.5 M17.4321,29.5 L43.4321,29.5 M30.4321,48.5 L17.4321,63.5 M30.4321,48.5 L43.4321,63.5" fill="none" style="stroke:#181818;stroke-width:0.5;"/></g><g class="participant participant-tail" data-participant="Admin"><text fill="#000000" font-family="sans-serif" font-size="14" lengthAdjust="spacing" textLength="44.8643" x="5" y="288.0889">Admin</text><ellipse cx="30.4321" cy="299.8906" fill="#E3E3E3" rx="8" ry="8" style="stroke:#181818;stroke-width:0.5;"/><path d="M30.4321,307.8906 L30.4321,334.8906 M17.4321,315.8906 L43.4321,315.8906 M30.4321,334.8906 L17.4321,349.8906 M30.4321,334.8906 L43.4321,349.8906" fill="none" style="stroke:#181818;stroke-width:0.5;"/></g><g class="participant participant-head" data-participant="ClientWebApp"><rect fill="#E3E3E3" height="30.2969" rx="2.5" ry="2.5" style="stroke:#181818;stroke-width:0.5;" width="113.2236" x="86.6875" y="50"/><text fill="#000000" font-family="sans-serif" font-size="14" lengthAdjust="spacing" textLength="99.2236" x="93.6875" y="69.9951">ClientWebApp</text></g><g class="participant participant-tail" data-participant="ClientWebApp"><rect fill="#E3E3E3" height="30.2969" rx="2.5" ry="2.5" style="stroke:#181818;stroke-width:0.5;" width="113.2236" x="86.6875" y="275.0938"/><text fill="#000000" font-family="sans-serif" font-size="14" lengthAdjust="spacing" textLength="99.2236" x="93.6875" y="295.0889">ClientWebApp</text></g><g class="participant participant-head" data-participant="CourseController"><rect fill="#E3E3E3" height="30.2969" rx="2.5" ry="2.5" style="stroke:#181818;stroke-width:0.5;" width="132.0498" x="209.9111" y="50"/><text fill="#000000" font-family="sans-serif" font-size="14" lengthAdjust="spacing" textLength="118.0498" x="216.9111" y="69.9951">CourseController</text></g><g class="participant participant-tail" data-participant="CourseController"><rect fill="#E3E3E3" height="30.2969" rx="2.5" ry="2.5" style="stroke:#181818;stroke-width:0.5;" width="132.0498" x="209.9111" y="275.0938"/><text fill="#000000" font-family="sans-serif" font-size="14" lengthAdjust="spacing" textLength="118.0498" x="216.9111" y="295.0889">CourseController</text></g><g class="participant participant-head" data-participant="SQLServer"><rect fill="#E3E3E3" height="30.2969" rx="2.5" ry="2.5" style="stroke:#181818;stroke-width:0.5;" width="87.6162" x="351.9609" y="50"/><text fill="#000000" font-family="sans-serif" font-size="14" lengthAdjust="spacing" textLength="73.6162" x="358.9609" y="69.9951">SQLServer</text></g><g class="participant participant-tail" data-participant="SQLServer"><rect fill="#E3E3E3" height="30.2969" rx="2.5" ry="2.5" style="stroke:#181818;stroke-width:0.5;" width="87.6162" x="351.9609" y="275.0938"/><text fill="#000000" font-family="sans-serif" font-size="14" lengthAdjust="spacing" textLength="73.6162" x="358.9609" y="295.0889">SQLServer</text></g><g class="participant participant-head" data-participant="NS"><rect fill="#E3E3E3" height="30.2969" rx="2.5" ry="2.5" style="stroke:#181818;stroke-width:0.5;" width="33.3594" x="449.5771" y="50"/><text fill="#000000" font-family="sans-serif" font-size="14" lengthAdjust="spacing" textLength="19.3594" x="456.5771" y="69.9951">NS</text></g><g class="participant participant-tail" data-participant="NS"><rect fill="#E3E3E3" height="30.2969" rx="2.5" ry="2.5" style="stroke:#181818;stroke-width:0.5;" width="33.3594" x="449.5771" y="275.0938"/><text fill="#000000" font-family="sans-serif" font-size="14" lengthAdjust="spacing" textLength="19.3594" x="456.5771" y="295.0889">NS</text></g><g class="message" data-participant-1="Admin" data-participant-2="ClientWebApp"><polygon fill="#181818" points="131.2993,108.4297,141.2993,112.4297,131.2993,116.4297,135.2993,112.4297" style="stroke:#181818;stroke-width:1;"/><line style="stroke:#181818;stroke-width:1;" x1="30.4321" x2="137.2993" y1="112.4297" y2="112.4297"/><text fill="#000000" font-family="sans-serif" font-size="13" lengthAdjust="spacing" textLength="88.8672" x="37.4321" y="107.3638">CreateCourse</text></g><g class="message" data-participant-1="ClientWebApp" data-participant-2="CourseController"><polygon fill="#181818" points="263.936,137.5625,273.936,141.5625,263.936,145.5625,267.936,141.5625" style="stroke:#181818;stroke-width:1;"/><line style="stroke:#181818;stroke-width:1;" x1="143.2993" x2="269.936" y1="141.5625" y2="141.5625"/><text fill="#000000" font-family="sans-serif" font-size="13" lengthAdjust="spacing" textLength="102.7305" x="150.2993" y="136.4966">SendCourseInfo</text></g><g class="message" data-participant-1="CourseController" data-participant-2="SQLServer"><polygon fill="#181818" points="383.769,166.6953,393.769,170.6953,383.769,174.6953,387.769,170.6953" style="stroke:#181818;stroke-width:1;"/><line style="stroke:#181818;stroke-width:1;" x1="275.936" x2="389.769" y1="170.6953" y2="170.6953"/><text fill="#000000" font-family="sans-serif" font-size="13" lengthAdjust="spacing" textLength="77.2954" x="282.936" y="165.6294">SaveCourse</text></g><g class="message" data-participant-1="SQLServer" data-participant-2="CourseController"><polygon fill="#181818" points="286.936,195.8281,276.936,199.8281,286.936,203.8281,282.936,199.8281" style="stroke:#181818;stroke-width:1;"/><line style="stroke:#181818;stroke-width:1;stroke-dasharray:2.0,2.0;" x1="280.936" x2="394.769" y1="199.8281" y2="199.8281"/><text fill="#000000" font-family="sans-serif" font-size="13" lengthAdjust="spacing" textLength="84.335" x="292.936" y="194.7622">Confirmation</text></g><g class="message" data-participant-1="CourseController" data-participant-2="NS"><polygon fill="#181818" points="454.2568,224.9609,464.2568,228.9609,454.2568,232.9609,458.2568,228.9609" style="stroke:#181818;stroke-width:1;"/><line style="stroke:#181818;stroke-width:1;" x1="275.936" x2="460.2568" y1="228.9609" y2="228.9609"/><text fill="#000000" font-family="sans-serif" font-size="13" lengthAdjust="spacing" textLength="74.5913" x="282.936" y="223.895">Notification</text></g><g class="message" data-participant-1="NS" data-participant-2="Admin"><polygon fill="#181818" points="41.4321,254.0938,31.4321,258.0938,41.4321,262.0938,37.4321,258.0938" style="stroke:#181818;stroke-width:1;"/><line style="stroke:#181818;stroke-width:1;stroke-dasharray:2.0,2.0;" x1="35.4321" x2="465.2568" y1="258.0938" y2="258.0938"/><text fill="#000000" font-family="sans-serif" font-size="13" lengthAdjust="spacing" textLength="52.3301" x="47.4321" y="253.0278">Success</text></g><!--SRC=[ROz12eCm44NtESLSm0kuA8YhGX5A5bsdSQH3pOoCe-UlZLIgk0l_lxoVZ6_Y8MX8a8GblbGIWkc4peLeeb2rYTWjY56a8R11tHEoFV1P3SE-a4b7h8LDfUzHTwM_tppgV4WRxrnUWEAo4vTGAmR3rUd-gumUfahmoEsQNhaJTmI-bxOdB7IOV-ejXU9Kl9mxqXICX4-rZI-X4QEEuWerFglolvQfAKOSnmy0]--></g></svg>