<svg xmlns="http://www.w3.org/2000/svg" xmlns:xlink="http://www.w3.org/1999/xlink" contentStyleType="text/css" data-diagram-type="SEQUENCE" height="415px" preserveAspectRatio="none" style="width:599px;height:415px;background:#FFFFFF;" version="1.1" viewBox="0 0 599 415" width="599px" zoomAndPan="magnify"><defs/><g><g><title>Admin</title><rect fill="#000000" fill-opacity="0.00000" height="253.0625" width="8" x="26.4321" y="81.2969"/><line style="stroke:#181818;stroke-width:0.5;stroke-dasharray:5.0,5.0;" x1="30" x2="30" y1="81.2969" y2="334.3594"/></g><g><title>ClientWebApp</title><rect fill="#000000" fill-opacity="0.00000" height="253.0625" width="8" x="151.5757" y="81.2969"/><line style="stroke:#181818;stroke-width:0.5;stroke-dasharray:5.0,5.0;" x1="154.9639" x2="154.9639" y1="81.2969" y2="334.3594"/></g><g><title>CertificateController</title><rect fill="#000000" fill-opacity="0.00000" height="253.0625" width="8" x="296.1343" y="81.2969"/><line style="stroke:#181818;stroke-width:0.5;stroke-dasharray:5.0,5.0;" x1="299.1875" x2="299.1875" y1="81.2969" y2="334.3594"/></g><g><title>AWSS3</title><rect fill="#000000" fill-opacity="0.00000" height="253.0625" width="8" x="416.1313" y="81.2969"/><line style="stroke:#181818;stroke-width:0.5;stroke-dasharray:5.0,5.0;" x1="420.0811" x2="420.0811" y1="81.2969" y2="334.3594"/></g><g><title>SQLServer</title><rect fill="#000000" fill-opacity="0.00000" height="253.0625" width="8" x="501.9897" y="81.2969"/><line style="stroke:#181818;stroke-width:0.5;stroke-dasharray:5.0,5.0;" x1="505.1816" x2="505.1816" y1="81.2969" y2="334.3594"/></g><g><title>NS</title><rect fill="#000000" fill-opacity="0.00000" height="253.0625" width="8" x="572.4775" y="81.2969"/><line style="stroke:#181818;stroke-width:0.5;stroke-dasharray:5.0,5.0;" x1="575.7979" x2="575.7979" y1="81.2969" y2="334.3594"/></g><g class="participant participant-head" data-participant="Admin"><text fill="#000000" font-family="sans-serif" font-size="14" lengthAdjust="spacing" textLength="44.8643" x="5" y="77.9951">Admin</text><ellipse cx="30.4321" cy="13.5" fill="#E3E3E3" rx="8" ry="8" style="stroke:#181818;stroke-width:0.5;"/><path d="M30.4321,21.5 L30.4321,48.5 M17.4321,29.5 L43.4321,29.5 M30.4321,48.5 L17.4321,63.5 M30.4321,48.5 L43.4321,63.5" fill="none" style="stroke:#181818;stroke-width:0.5;"/></g><g class="participant participant-tail" data-participant="Admin"><text fill="#000000" font-family="sans-serif" font-size="14" lengthAdjust="spacing" textLength="44.8643" x="5" y="346.3545">Admin</text><ellipse cx="30.4321" cy="358.1563" fill="#E3E3E3" rx="8" ry="8" style="stroke:#181818;stroke-width:0.5;"/><path d="M30.4321,366.1563 L30.4321,393.1563 M17.4321,374.1563 L43.4321,374.1563 M30.4321,393.1563 L17.4321,408.1563 M30.4321,393.1563 L43.4321,408.1563" fill="none" style="stroke:#181818;stroke-width:0.5;"/></g><g class="participant participant-head" data-participant="ClientWebApp"><rect fill="#E3E3E3" height="30.2969" rx="2.5" ry="2.5" style="stroke:#181818;stroke-width:0.5;" width="113.2236" x="98.9639" y="50"/><text fill="#000000" font-family="sans-serif" font-size="14" lengthAdjust="spacing" textLength="99.2236" x="105.9639" y="69.9951">ClientWebApp</text></g><g class="participant participant-tail" data-participant="ClientWebApp"><rect fill="#E3E3E3" height="30.2969" rx="2.5" ry="2.5" style="stroke:#181818;stroke-width:0.5;" width="113.2236" x="98.9639" y="333.3594"/><text fill="#000000" font-family="sans-serif" font-size="14" lengthAdjust="spacing" textLength="99.2236" x="105.9639" y="353.3545">ClientWebApp</text></g><g class="participant participant-head" data-participant="CertificateController"><rect fill="#E3E3E3" height="30.2969" rx="2.5" ry="2.5" style="stroke:#181818;stroke-width:0.5;" width="155.8936" x="222.1875" y="50"/><text fill="#000000" font-family="sans-serif" font-size="14" lengthAdjust="spacing" textLength="141.8936" x="229.1875" y="69.9951">CertificateController</text></g><g class="participant participant-tail" data-participant="CertificateController"><rect fill="#E3E3E3" height="30.2969" rx="2.5" ry="2.5" style="stroke:#181818;stroke-width:0.5;" width="155.8936" x="222.1875" y="333.3594"/><text fill="#000000" font-family="sans-serif" font-size="14" lengthAdjust="spacing" textLength="141.8936" x="229.1875" y="353.3545">CertificateController</text></g><g class="participant participant-head" data-participant="AWSS3"><rect fill="#E3E3E3" height="30.2969" rx="2.5" ry="2.5" style="stroke:#181818;stroke-width:0.5;" width="64.1006" x="388.0811" y="50"/><text fill="#000000" font-family="sans-serif" font-size="14" lengthAdjust="spacing" textLength="50.1006" x="395.0811" y="69.9951">AWSS3</text></g><g class="participant participant-tail" data-participant="AWSS3"><rect fill="#E3E3E3" height="30.2969" rx="2.5" ry="2.5" style="stroke:#181818;stroke-width:0.5;" width="64.1006" x="388.0811" y="333.3594"/><text fill="#000000" font-family="sans-serif" font-size="14" lengthAdjust="spacing" textLength="50.1006" x="395.0811" y="353.3545">AWSS3</text></g><g class="participant participant-head" data-participant="SQLServer"><rect fill="#E3E3E3" height="30.2969" rx="2.5" ry="2.5" style="stroke:#181818;stroke-width:0.5;" width="87.6162" x="462.1816" y="50"/><text fill="#000000" font-family="sans-serif" font-size="14" lengthAdjust="spacing" textLength="73.6162" x="469.1816" y="69.9951">SQLServer</text></g><g class="participant participant-tail" data-participant="SQLServer"><rect fill="#E3E3E3" height="30.2969" rx="2.5" ry="2.5" style="stroke:#181818;stroke-width:0.5;" width="87.6162" x="462.1816" y="333.3594"/><text fill="#000000" font-family="sans-serif" font-size="14" lengthAdjust="spacing" textLength="73.6162" x="469.1816" y="353.3545">SQLServer</text></g><g class="participant participant-head" data-participant="NS"><rect fill="#E3E3E3" height="30.2969" rx="2.5" ry="2.5" style="stroke:#181818;stroke-width:0.5;" width="33.3594" x="559.7979" y="50"/><text fill="#000000" font-family="sans-serif" font-size="14" lengthAdjust="spacing" textLength="19.3594" x="566.7979" y="69.9951">NS</text></g><g class="participant participant-tail" data-participant="NS"><rect fill="#E3E3E3" height="30.2969" rx="2.5" ry="2.5" style="stroke:#181818;stroke-width:0.5;" width="33.3594" x="559.7979" y="333.3594"/><text fill="#000000" font-family="sans-serif" font-size="14" lengthAdjust="spacing" textLength="19.3594" x="566.7979" y="353.3545">NS</text></g><g class="message" data-participant-1="Admin" data-participant-2="ClientWebApp"><polygon fill="#181818" points="143.5757,108.4297,153.5757,112.4297,143.5757,116.4297,147.5757,112.4297" style="stroke:#181818;stroke-width:1;"/><line style="stroke:#181818;stroke-width:1;" x1="30.4321" x2="149.5757" y1="112.4297" y2="112.4297"/><text fill="#000000" font-family="sans-serif" font-size="13" lengthAdjust="spacing" textLength="101.1436" x="37.4321" y="107.3638">IssueCertificate</text></g><g class="message" data-participant-1="ClientWebApp" data-participant-2="CertificateController"><polygon fill="#181818" points="288.1343,137.5625,298.1343,141.5625,288.1343,145.5625,292.1343,141.5625" style="stroke:#181818;stroke-width:1;"/><line style="stroke:#181818;stroke-width:1;" x1="155.5757" x2="294.1343" y1="141.5625" y2="141.5625"/><text fill="#000000" font-family="sans-serif" font-size="13" lengthAdjust="spacing" textLength="86.1313" x="162.5757" y="136.4966">SendRequest</text></g><g class="message" data-participant-1="CertificateController" data-participant-2="SQLServer"><polygon fill="#181818" points="493.9897,166.6953,503.9897,170.6953,493.9897,174.6953,497.9897,170.6953" style="stroke:#181818;stroke-width:1;"/><line style="stroke:#181818;stroke-width:1;" x1="300.1343" x2="499.9897" y1="170.6953" y2="170.6953"/><text fill="#000000" font-family="sans-serif" font-size="13" lengthAdjust="spacing" textLength="99.1694" x="307.1343" y="165.6294">CheckEligibility</text></g><g class="message" data-participant-1="SQLServer" data-participant-2="CertificateController"><polygon fill="#181818" points="311.1343,195.8281,301.1343,199.8281,311.1343,203.8281,307.1343,199.8281" style="stroke:#181818;stroke-width:1;"/><line style="stroke:#181818;stroke-width:1;stroke-dasharray:2.0,2.0;" x1="305.1343" x2="504.9897" y1="199.8281" y2="199.8281"/><text fill="#000000" font-family="sans-serif" font-size="13" lengthAdjust="spacing" textLength="40.752" x="317.1343" y="194.7622">Result</text></g><g class="message" data-participant-1="CertificateController" data-participant-2="AWSS3"><polygon fill="#181818" points="408.1313,224.9609,418.1313,228.9609,408.1313,232.9609,412.1313,228.9609" style="stroke:#181818;stroke-width:1;"/><line style="stroke:#181818;stroke-width:1;" x1="300.1343" x2="414.1313" y1="228.9609" y2="228.9609"/><text fill="#000000" font-family="sans-serif" font-size="13" lengthAdjust="spacing" textLength="57.2368" x="307.1343" y="223.895">SavePDF</text></g><g class="message" data-participant-1="AWSS3" data-participant-2="CertificateController"><polygon fill="#181818" points="311.1343,254.0938,301.1343,258.0938,311.1343,262.0938,307.1343,258.0938" style="stroke:#181818;stroke-width:1;"/><line style="stroke:#181818;stroke-width:1;stroke-dasharray:2.0,2.0;" x1="305.1343" x2="419.1313" y1="258.0938" y2="258.0938"/><text fill="#000000" font-family="sans-serif" font-size="13" lengthAdjust="spacing" textLength="84.335" x="317.1343" y="253.0278">Confirmation</text></g><g class="message" data-participant-1="CertificateController" data-participant-2="NS"><polygon fill="#181818" points="564.4775,283.2266,574.4775,287.2266,564.4775,291.2266,568.4775,287.2266" style="stroke:#181818;stroke-width:1;"/><line style="stroke:#181818;stroke-width:1;" x1="300.1343" x2="570.4775" y1="287.2266" y2="287.2266"/><text fill="#000000" font-family="sans-serif" font-size="13" lengthAdjust="spacing" textLength="103.5938" x="307.1343" y="282.1606">EmailCertificate</text></g><g class="message" data-participant-1="NS" data-participant-2="Admin"><polygon fill="#181818" points="41.4321,312.3594,31.4321,316.3594,41.4321,320.3594,37.4321,316.3594" style="stroke:#181818;stroke-width:1;"/><line style="stroke:#181818;stroke-width:1;stroke-dasharray:2.0,2.0;" x1="35.4321" x2="575.4775" y1="316.3594" y2="316.3594"/><text fill="#000000" font-family="sans-serif" font-size="13" lengthAdjust="spacing" textLength="74.458" x="47.4321" y="311.2935">Completion</text></g><!--SRC=[VL2xZi903Epz5Vu1AheK9qMvd7GIYeviGRrP35ZiwtOT9Fx-aYrGSW8wspEU6Ks-ieywQOSk-60kAJX2IIC1Q2CXONrqx66Y21kEsWisbidBWOOwnZL0qtnYeuMQu2K5Qocj6FL1gUtgelOxHUdsZzSfW6ACcu-LNuNVEO-qS88bNEZFKbIeo1zx-Xqf2pobpB-FD1Ks5pBNrlAP1xOiTtXWk7djqbCUxHk3Ki0KHj_ev_CBolfERvfFd9mM3lwrQgSgR9rck-obKqMur3WBkMXfbla3]--></g></svg>