<svg xmlns="http://www.w3.org/2000/svg" xmlns:xlink="http://www.w3.org/1999/xlink" contentStyleType="text/css" data-diagram-type="SEQUENCE" height="531px" preserveAspectRatio="none" style="width:716px;height:531px;background:#FFFFFF;" version="1.1" viewBox="0 0 716 531" width="716px" zoomAndPan="magnify"><defs/><g><g><title>Teacher</title><rect fill="#000000" fill-opacity="0.00000" height="369.5938" width="8" x="32.3418" y="81.2969"/><line style="stroke:#181818;stroke-width:0.5;stroke-dasharray:5.0,5.0;" x1="36" x2="36" y1="81.2969" y2="450.8906"/></g><g><title>Student</title><rect fill="#000000" fill-opacity="0.00000" height="369.5938" width="8" x="104.2393" y="81.2969"/><line style="stroke:#181818;stroke-width:0.5;stroke-dasharray:5.0,5.0;" x1="107.6836" x2="107.6836" y1="81.2969" y2="450.8906"/></g><g><title>ClientWebApp</title><rect fill="#000000" fill-opacity="0.00000" height="369.5938" width="8" x="250.895" y="81.2969"/><line style="stroke:#181818;stroke-width:0.5;stroke-dasharray:5.0,5.0;" x1="254.2832" x2="254.2832" y1="81.2969" y2="450.8906"/></g><g><title>AssignmentController</title><rect fill="#000000" fill-opacity="0.00000" height="369.5938" width="8" x="408.7798" y="81.2969"/><line style="stroke:#181818;stroke-width:0.5;stroke-dasharray:5.0,5.0;" x1="411.9795" x2="411.9795" y1="81.2969" y2="450.8906"/></g><g><title>AWSS3</title><rect fill="#000000" fill-opacity="0.00000" height="369.5938" width="8" x="533.6304" y="81.2969"/><line style="stroke:#181818;stroke-width:0.5;stroke-dasharray:5.0,5.0;" x1="537.5801" x2="537.5801" y1="81.2969" y2="450.8906"/></g><g><title>SQLServer</title><rect fill="#000000" fill-opacity="0.00000" height="369.5938" width="8" x="619.4888" y="81.2969"/><line style="stroke:#181818;stroke-width:0.5;stroke-dasharray:5.0,5.0;" x1="622.6807" x2="622.6807" y1="81.2969" y2="450.8906"/></g><g><title>NS</title><rect fill="#000000" fill-opacity="0.00000" height="369.5938" width="8" x="689.9766" y="81.2969"/><line style="stroke:#181818;stroke-width:0.5;stroke-dasharray:5.0,5.0;" x1="693.2969" x2="693.2969" y1="81.2969" y2="450.8906"/></g><g class="participant participant-head" data-participant="Teacher"><text fill="#000000" font-family="sans-serif" font-size="14" lengthAdjust="spacing" textLength="56.6836" x="5" y="77.9951">Teacher</text><ellipse cx="36.3418" cy="13.5" fill="#E3E3E3" rx="8" ry="8" style="stroke:#181818;stroke-width:0.5;"/><path d="M36.3418,21.5 L36.3418,48.5 M23.3418,29.5 L49.3418,29.5 M36.3418,48.5 L23.3418,63.5 M36.3418,48.5 L49.3418,63.5" fill="none" style="stroke:#181818;stroke-width:0.5;"/></g><g class="participant participant-tail" data-participant="Teacher"><text fill="#000000" font-family="sans-serif" font-size="14" lengthAdjust="spacing" textLength="56.6836" x="5" y="462.8857">Teacher</text><ellipse cx="36.3418" cy="474.6875" fill="#E3E3E3" rx="8" ry="8" style="stroke:#181818;stroke-width:0.5;"/><path d="M36.3418,482.6875 L36.3418,509.6875 M23.3418,490.6875 L49.3418,490.6875 M36.3418,509.6875 L23.3418,524.6875 M36.3418,509.6875 L49.3418,524.6875" fill="none" style="stroke:#181818;stroke-width:0.5;"/></g><g class="participant participant-head" data-participant="Student"><text fill="#000000" font-family="sans-serif" font-size="14" lengthAdjust="spacing" textLength="55.1113" x="77.6836" y="77.9951">Student</text><ellipse cx="108.2393" cy="13.5" fill="#E3E3E3" rx="8" ry="8" style="stroke:#181818;stroke-width:0.5;"/><path d="M108.2393,21.5 L108.2393,48.5 M95.2393,29.5 L121.2393,29.5 M108.2393,48.5 L95.2393,63.5 M108.2393,48.5 L121.2393,63.5" fill="none" style="stroke:#181818;stroke-width:0.5;"/></g><g class="participant participant-tail" data-participant="Student"><text fill="#000000" font-family="sans-serif" font-size="14" lengthAdjust="spacing" textLength="55.1113" x="77.6836" y="462.8857">Student</text><ellipse cx="108.2393" cy="474.6875" fill="#E3E3E3" rx="8" ry="8" style="stroke:#181818;stroke-width:0.5;"/><path d="M108.2393,482.6875 L108.2393,509.6875 M95.2393,490.6875 L121.2393,490.6875 M108.2393,509.6875 L95.2393,524.6875 M108.2393,509.6875 L121.2393,524.6875" fill="none" style="stroke:#181818;stroke-width:0.5;"/></g><g class="participant participant-head" data-participant="ClientWebApp"><rect fill="#E3E3E3" height="30.2969" rx="2.5" ry="2.5" style="stroke:#181818;stroke-width:0.5;" width="113.2236" x="198.2832" y="50"/><text fill="#000000" font-family="sans-serif" font-size="14" lengthAdjust="spacing" textLength="99.2236" x="205.2832" y="69.9951">ClientWebApp</text></g><g class="participant participant-tail" data-participant="ClientWebApp"><rect fill="#E3E3E3" height="30.2969" rx="2.5" ry="2.5" style="stroke:#181818;stroke-width:0.5;" width="113.2236" x="198.2832" y="449.8906"/><text fill="#000000" font-family="sans-serif" font-size="14" lengthAdjust="spacing" textLength="99.2236" x="205.2832" y="469.8857">ClientWebApp</text></g><g class="participant participant-head" data-participant="AssignmentController"><rect fill="#E3E3E3" height="30.2969" rx="2.5" ry="2.5" style="stroke:#181818;stroke-width:0.5;" width="165.6006" x="329.9795" y="50"/><text fill="#000000" font-family="sans-serif" font-size="14" lengthAdjust="spacing" textLength="151.6006" x="336.9795" y="69.9951">AssignmentController</text></g><g class="participant participant-tail" data-participant="AssignmentController"><rect fill="#E3E3E3" height="30.2969" rx="2.5" ry="2.5" style="stroke:#181818;stroke-width:0.5;" width="165.6006" x="329.9795" y="449.8906"/><text fill="#000000" font-family="sans-serif" font-size="14" lengthAdjust="spacing" textLength="151.6006" x="336.9795" y="469.8857">AssignmentController</text></g><g class="participant participant-head" data-participant="AWSS3"><rect fill="#E3E3E3" height="30.2969" rx="2.5" ry="2.5" style="stroke:#181818;stroke-width:0.5;" width="64.1006" x="505.5801" y="50"/><text fill="#000000" font-family="sans-serif" font-size="14" lengthAdjust="spacing" textLength="50.1006" x="512.5801" y="69.9951">AWSS3</text></g><g class="participant participant-tail" data-participant="AWSS3"><rect fill="#E3E3E3" height="30.2969" rx="2.5" ry="2.5" style="stroke:#181818;stroke-width:0.5;" width="64.1006" x="505.5801" y="449.8906"/><text fill="#000000" font-family="sans-serif" font-size="14" lengthAdjust="spacing" textLength="50.1006" x="512.5801" y="469.8857">AWSS3</text></g><g class="participant participant-head" data-participant="SQLServer"><rect fill="#E3E3E3" height="30.2969" rx="2.5" ry="2.5" style="stroke:#181818;stroke-width:0.5;" width="87.6162" x="579.6807" y="50"/><text fill="#000000" font-family="sans-serif" font-size="14" lengthAdjust="spacing" textLength="73.6162" x="586.6807" y="69.9951">SQLServer</text></g><g class="participant participant-tail" data-participant="SQLServer"><rect fill="#E3E3E3" height="30.2969" rx="2.5" ry="2.5" style="stroke:#181818;stroke-width:0.5;" width="87.6162" x="579.6807" y="449.8906"/><text fill="#000000" font-family="sans-serif" font-size="14" lengthAdjust="spacing" textLength="73.6162" x="586.6807" y="469.8857">SQLServer</text></g><g class="participant participant-head" data-participant="NS"><rect fill="#E3E3E3" height="30.2969" rx="2.5" ry="2.5" style="stroke:#181818;stroke-width:0.5;" width="33.3594" x="677.2969" y="50"/><text fill="#000000" font-family="sans-serif" font-size="14" lengthAdjust="spacing" textLength="19.3594" x="684.2969" y="69.9951">NS</text></g><g class="participant participant-tail" data-participant="NS"><rect fill="#E3E3E3" height="30.2969" rx="2.5" ry="2.5" style="stroke:#181818;stroke-width:0.5;" width="33.3594" x="677.2969" y="449.8906"/><text fill="#000000" font-family="sans-serif" font-size="14" lengthAdjust="spacing" textLength="19.3594" x="684.2969" y="469.8857">NS</text></g><g class="message" data-participant-1="Teacher" data-participant-2="ClientWebApp"><polygon fill="#181818" points="242.895,108.4297,252.895,112.4297,242.895,116.4297,246.895,112.4297" style="stroke:#181818;stroke-width:1;"/><line style="stroke:#181818;stroke-width:1;" x1="36.3418" x2="248.895" y1="112.4297" y2="112.4297"/><text fill="#000000" font-family="sans-serif" font-size="13" lengthAdjust="spacing" textLength="120.0215" x="43.3418" y="107.3638">CreateAssignment</text></g><g class="message" data-participant-1="ClientWebApp" data-participant-2="AssignmentController"><polygon fill="#181818" points="400.7798,137.5625,410.7798,141.5625,400.7798,145.5625,404.7798,141.5625" style="stroke:#181818;stroke-width:1;"/><line style="stroke:#181818;stroke-width:1;" x1="254.895" x2="406.7798" y1="141.5625" y2="141.5625"/><text fill="#000000" font-family="sans-serif" font-size="13" lengthAdjust="spacing" textLength="133.8848" x="261.895" y="136.4966">SendAssignmentInfo</text></g><g class="message" data-participant-1="AssignmentController" data-participant-2="SQLServer"><polygon fill="#181818" points="611.4888,166.6953,621.4888,170.6953,611.4888,174.6953,615.4888,170.6953" style="stroke:#181818;stroke-width:1;"/><line style="stroke:#181818;stroke-width:1;" x1="412.7798" x2="617.4888" y1="170.6953" y2="170.6953"/><text fill="#000000" font-family="sans-serif" font-size="13" lengthAdjust="spacing" textLength="108.4497" x="419.7798" y="165.6294">SaveAssignment</text></g><g class="message" data-participant-1="SQLServer" data-participant-2="AssignmentController"><polygon fill="#181818" points="423.7798,195.8281,413.7798,199.8281,423.7798,203.8281,419.7798,199.8281" style="stroke:#181818;stroke-width:1;"/><line style="stroke:#181818;stroke-width:1;stroke-dasharray:2.0,2.0;" x1="417.7798" x2="622.4888" y1="199.8281" y2="199.8281"/><text fill="#000000" font-family="sans-serif" font-size="13" lengthAdjust="spacing" textLength="84.335" x="429.7798" y="194.7622">Confirmation</text></g><g class="message" data-participant-1="AssignmentController" data-participant-2="NS"><polygon fill="#181818" points="681.9766,224.9609,691.9766,228.9609,681.9766,232.9609,685.9766,228.9609" style="stroke:#181818;stroke-width:1;"/><line style="stroke:#181818;stroke-width:1;" x1="412.7798" x2="687.9766" y1="228.9609" y2="228.9609"/><text fill="#000000" font-family="sans-serif" font-size="13" lengthAdjust="spacing" textLength="74.5913" x="419.7798" y="223.895">Notification</text></g><g class="message" data-participant-1="NS" data-participant-2="Student"><polygon fill="#181818" points="119.2393,254.0938,109.2393,258.0938,119.2393,262.0938,115.2393,258.0938" style="stroke:#181818;stroke-width:1;"/><line style="stroke:#181818;stroke-width:1;stroke-dasharray:2.0,2.0;" x1="113.2393" x2="692.9766" y1="258.0938" y2="258.0938"/><text fill="#000000" font-family="sans-serif" font-size="13" lengthAdjust="spacing" textLength="151.1313" x="125.2393" y="253.0278">AssignmentNotification</text></g><g class="message" data-participant-1="Student" data-participant-2="ClientWebApp"><polygon fill="#181818" points="242.895,283.2266,252.895,287.2266,242.895,291.2266,246.895,287.2266" style="stroke:#181818;stroke-width:1;"/><line style="stroke:#181818;stroke-width:1;" x1="108.2393" x2="248.895" y1="287.2266" y2="287.2266"/><text fill="#000000" font-family="sans-serif" font-size="13" lengthAdjust="spacing" textLength="122.6558" x="115.2393" y="282.1606">SubmitAssignment</text></g><g class="message" data-participant-1="ClientWebApp" data-participant-2="AssignmentController"><polygon fill="#181818" points="400.7798,312.3594,410.7798,316.3594,400.7798,320.3594,404.7798,316.3594" style="stroke:#181818;stroke-width:1;"/><line style="stroke:#181818;stroke-width:1;" x1="254.895" x2="406.7798" y1="316.3594" y2="316.3594"/><text fill="#000000" font-family="sans-serif" font-size="13" lengthAdjust="spacing" textLength="55.4404" x="261.895" y="311.2935">SendFile</text></g><g class="message" data-participant-1="AssignmentController" data-participant-2="AWSS3"><polygon fill="#181818" points="525.6304,341.4922,535.6304,345.4922,525.6304,349.4922,529.6304,345.4922" style="stroke:#181818;stroke-width:1;"/><line style="stroke:#181818;stroke-width:1;" x1="412.7798" x2="531.6304" y1="345.4922" y2="345.4922"/><text fill="#000000" font-family="sans-serif" font-size="13" lengthAdjust="spacing" textLength="54.6089" x="419.7798" y="340.4263">SaveFile</text></g><g class="message" data-participant-1="AWSS3" data-participant-2="AssignmentController"><polygon fill="#181818" points="423.7798,370.625,413.7798,374.625,423.7798,378.625,419.7798,374.625" style="stroke:#181818;stroke-width:1;"/><line style="stroke:#181818;stroke-width:1;stroke-dasharray:2.0,2.0;" x1="417.7798" x2="536.6304" y1="374.625" y2="374.625"/><text fill="#000000" font-family="sans-serif" font-size="13" lengthAdjust="spacing" textLength="84.335" x="429.7798" y="369.5591">Confirmation</text></g><g class="message" data-participant-1="AssignmentController" data-participant-2="NS"><polygon fill="#181818" points="681.9766,399.7578,691.9766,403.7578,681.9766,407.7578,685.9766,403.7578" style="stroke:#181818;stroke-width:1;"/><line style="stroke:#181818;stroke-width:1;" x1="412.7798" x2="687.9766" y1="403.7578" y2="403.7578"/><text fill="#000000" font-family="sans-serif" font-size="13" lengthAdjust="spacing" textLength="74.5913" x="419.7798" y="398.6919">Notification</text></g><g class="message" data-participant-1="NS" data-participant-2="Teacher"><polygon fill="#181818" points="47.3418,428.8906,37.3418,432.8906,47.3418,436.8906,43.3418,432.8906" style="stroke:#181818;stroke-width:1;"/><line style="stroke:#181818;stroke-width:1;stroke-dasharray:2.0,2.0;" x1="41.3418" x2="692.9766" y1="432.8906" y2="432.8906"/><text fill="#000000" font-family="sans-serif" font-size="13" lengthAdjust="spacing" textLength="148.9604" x="53.3418" y="427.8247">SubmissionNotification</text></g><!--SRC=[jL71QiCm3BtxA_m3FUsMmw041eCIA1hqxBhAAXfBmL7w_NCQqyPhSndiPlazwJqz3HVYtaKNR10MVuuIq6eSqHZdLQBzGkVF67C5EfwGrQGM9K-zOxLrH-dhWCTjtnV0TXZecqC2Qs6DqdLfJa4u0BmLFx3V0SRhBru3ncGVTlDU25QsZkWK7rfc2K_qLpOg2yYd1_B9hPXNn6d0tLJgSjUbr1sncrMXz6uf1gSal2hHG6KRKMh9pyG6RYDptjLYTa7B-7CgC1u3wPzI-Q0ELutUJZRdCFEc-h-sppVFswHcuINj1m00]--></g></svg>