<svg xmlns="http://www.w3.org/2000/svg" xmlns:xlink="http://www.w3.org/1999/xlink" contentStyleType="text/css" data-diagram-type="CLASS" height="268px" preserveAspectRatio="none" style="width:119px;height:268px;background:#FFFFFF;" version="1.1" viewBox="0 0 119 268" width="119px" zoomAndPan="magnify"><defs/><g><!--class Session--><g class="entity" data-entity="Session" data-source-line="3" data-uid="ent0002" id="entity_Session"><rect fill="#F1F1F1" height="129.4844" rx="2.5" ry="2.5" style="stroke:#181818;stroke-width:0.5;" width="105.6934" x="7" y="7"/><ellipse cx="31.1248" cy="23" fill="#C2C2C2" rx="11" ry="11" style="stroke:#181818;stroke-width:1;"/><path d="M34.0936,28.6406 Q33.5154,28.9375 32.8748,29.0781 Q32.2342,29.2344 31.5311,29.2344 Q29.0311,29.2344 27.7029,27.5938 Q26.3904,25.9375 26.3904,22.8125 Q26.3904,19.6875 27.7029,18.0313 Q29.0311,16.375 31.5311,16.375 Q32.2342,16.375 32.8748,16.5313 Q33.5311,16.6875 34.0936,16.9844 L34.0936,19.7031 Q33.4686,19.125 32.8748,18.8594 Q32.2811,18.5781 31.6561,18.5781 Q30.3123,18.5781 29.6248,19.6563 Q28.9373,20.7188 28.9373,22.8125 Q28.9373,24.9063 29.6248,25.9844 Q30.3123,27.0469 31.6561,27.0469 Q32.2811,27.0469 32.8748,26.7813 Q33.4686,26.5 34.0936,25.9219 L34.0936,28.6406 Z " fill="#000000"/><text fill="#000000" font-family="sans-serif" font-size="14" lengthAdjust="spacing" textLength="53.416" x="47.1525" y="27.8467">Session</text><line style="stroke:#181818;stroke-width:0.5;" x1="8" x2="111.6934" y1="39" y2="39"/><rect fill="none" height="6" style="stroke:#595959;stroke-width:1;" width="6" x="15" y="49.6484"/><text fill="#000000" font-family="sans-serif" font-size="14" lengthAdjust="spacing" textLength="12.7764" x="27" y="55.9951">id</text><rect fill="none" height="6" style="stroke:#595959;stroke-width:1;" width="6" x="15" y="65.9453"/><text fill="#000000" font-family="sans-serif" font-size="14" lengthAdjust="spacing" textLength="31.5684" x="27" y="72.292">date</text><rect fill="none" height="6" style="stroke:#595959;stroke-width:1;" width="6" x="15" y="82.2422"/><text fill="#000000" font-family="sans-serif" font-size="14" lengthAdjust="spacing" textLength="43.0186" x="27" y="88.5889">status</text><rect fill="none" height="6" style="stroke:#595959;stroke-width:1;" width="6" x="15" y="98.5391"/><text fill="#000000" font-family="sans-serif" font-size="14" lengthAdjust="spacing" textLength="47.7695" x="27" y="104.8857">classId</text><rect fill="none" height="6" style="stroke:#595959;stroke-width:1;" width="6" x="15" y="114.8359"/><text fill="#000000" font-family="sans-serif" font-size="14" lengthAdjust="spacing" textLength="79.6934" x="27" y="121.1826">attendance</text><line style="stroke:#181818;stroke-width:0.5;" x1="8" x2="111.6934" y1="128.4844" y2="128.4844"/></g><!--class SQLServer--><g class="entity" data-entity="SQLServer" data-source-line="11" data-uid="ent0003" id="entity_SQLServer"><rect fill="#F1F1F1" height="48" rx="2.5" ry="2.5" style="stroke:#181818;stroke-width:0.5;" width="105.6162" x="7.04" y="213.48"/><ellipse cx="22.04" cy="229.48" fill="#C2C2C2" rx="11" ry="11" style="stroke:#181818;stroke-width:1;"/><path d="M25.0088,235.1206 Q24.4306,235.4175 23.79,235.5581 Q23.1494,235.7144 22.4463,235.7144 Q19.9463,235.7144 18.6181,234.0738 Q17.3056,232.4175 17.3056,229.2925 Q17.3056,226.1675 18.6181,224.5113 Q19.9463,222.855 22.4463,222.855 Q23.1494,222.855 23.79,223.0113 Q24.4463,223.1675 25.0088,223.4644 L25.0088,226.1831 Q24.3838,225.605 23.79,225.3394 Q23.1963,225.0581 22.5713,225.0581 Q21.2275,225.0581 20.54,226.1363 Q19.8525,227.1988 19.8525,229.2925 Q19.8525,231.3863 20.54,232.4644 Q21.2275,233.5269 22.5713,233.5269 Q23.1963,233.5269 23.79,233.2613 Q24.3838,232.98 25.0088,232.4019 L25.0088,235.1206 Z " fill="#000000"/><text fill="#000000" font-family="sans-serif" font-size="14" lengthAdjust="spacing" textLength="73.6162" x="36.04" y="234.3267">SQLServer</text><line style="stroke:#181818;stroke-width:0.5;" x1="8.04" x2="111.6562" y1="245.48" y2="245.48"/><line style="stroke:#181818;stroke-width:0.5;" x1="8.04" x2="111.6562" y1="253.48" y2="253.48"/></g><!--link Session to SQLServer--><g class="link" data-entity-1="Session" data-entity-2="SQLServer" data-source-line="11" data-uid="lnk4" id="link_Session_SQLServer"><path codeLine="11" d="M59.85,136.51 C59.85,163.45 59.85,187.14 59.85,207.11" fill="none" id="Session-to-SQLServer" style="stroke:#181818;stroke-width:1;"/><polygon fill="#181818" points="59.85,213.11,63.85,204.11,59.85,208.11,55.85,204.11,59.85,213.11" style="stroke:#181818;stroke-width:1;"/><text fill="#000000" font-family="sans-serif" font-size="13" lengthAdjust="spacing" textLength="50.8638" x="60.85" y="179.5469">Storage</text></g><!--SRC=[DOj12a8n34JtEKKkq0kuS2-uaPuWj8CMRI99lXlnxj8FVpFpODx4S-XRN2PFKsiFjmbEtq3KNXB15H73bB_4N4PVsIMnEb9oYqMxUjb7oOHsqGRw4HtlKivSRzSA_y3vn3NDvOu_]--></g></svg>