<svg xmlns="http://www.w3.org/2000/svg" xmlns:xlink="http://www.w3.org/1999/xlink" contentStyleType="text/css" data-diagram-type="CLASS" height="252px" preserveAspectRatio="none" style="width:236px;height:252px;background:#FFFFFF;" version="1.1" viewBox="0 0 236 252" width="236px" zoomAndPan="magnify"><defs/><g><!--class Certificate--><g class="entity" data-entity="Certificate" data-source-line="3" data-uid="ent0002" id="entity_Certificate"><rect fill="#F1F1F1" height="113.1875" rx="2.5" ry="2.5" style="stroke:#181818;stroke-width:0.5;" width="104.7207" x="59.69" y="7"/><ellipse cx="74.69" cy="23" fill="#C2C2C2" rx="11" ry="11" style="stroke:#181818;stroke-width:1;"/><path d="M77.6588,28.6406 Q77.0806,28.9375 76.44,29.0781 Q75.7994,29.2344 75.0963,29.2344 Q72.5963,29.2344 71.2681,27.5938 Q69.9556,25.9375 69.9556,22.8125 Q69.9556,19.6875 71.2681,18.0313 Q72.5963,16.375 75.0963,16.375 Q75.7994,16.375 76.44,16.5313 Q77.0963,16.6875 77.6588,16.9844 L77.6588,19.7031 Q77.0338,19.125 76.44,18.8594 Q75.8463,18.5781 75.2213,18.5781 Q73.8775,18.5781 73.19,19.6563 Q72.5025,20.7188 72.5025,22.8125 Q72.5025,24.9063 73.19,25.9844 Q73.8775,27.0469 75.2213,27.0469 Q75.8463,27.0469 76.44,26.7813 Q77.0338,26.5 77.6588,25.9219 L77.6588,28.6406 Z " fill="#000000"/><text fill="#000000" font-family="sans-serif" font-size="14" lengthAdjust="spacing" textLength="72.7207" x="88.69" y="27.8467">Certificate</text><line style="stroke:#181818;stroke-width:0.5;" x1="60.69" x2="163.4107" y1="39" y2="39"/><rect fill="none" height="6" style="stroke:#595959;stroke-width:1;" width="6" x="67.69" y="49.6484"/><text fill="#000000" font-family="sans-serif" font-size="14" lengthAdjust="spacing" textLength="12.7764" x="79.69" y="55.9951">id</text><rect fill="none" height="6" style="stroke:#595959;stroke-width:1;" width="6" x="67.69" y="65.9453"/><text fill="#000000" font-family="sans-serif" font-size="14" lengthAdjust="spacing" textLength="66.5342" x="79.69" y="72.292">studentId</text><rect fill="none" height="6" style="stroke:#595959;stroke-width:1;" width="6" x="67.69" y="82.2422"/><text fill="#000000" font-family="sans-serif" font-size="14" lengthAdjust="spacing" textLength="59.8145" x="79.69" y="88.5889">courseId</text><rect fill="none" height="6" style="stroke:#595959;stroke-width:1;" width="6" x="67.69" y="98.5391"/><text fill="#000000" font-family="sans-serif" font-size="14" lengthAdjust="spacing" textLength="69.4258" x="79.69" y="104.8857">issueDate</text><line style="stroke:#181818;stroke-width:0.5;" x1="60.69" x2="163.4107" y1="112.1875" y2="112.1875"/></g><!--class AWSS3--><g class="entity" data-entity="AWSS3" data-source-line="10" data-uid="ent0003" id="entity_AWSS3"><rect fill="#F1F1F1" height="48" rx="2.5" ry="2.5" style="stroke:#181818;stroke-width:0.5;" width="82.1006" x="7" y="197.19"/><ellipse cx="22" cy="213.19" fill="#C2C2C2" rx="11" ry="11" style="stroke:#181818;stroke-width:1;"/><path d="M24.9688,218.8306 Q24.3906,219.1275 23.75,219.2681 Q23.1094,219.4244 22.4063,219.4244 Q19.9063,219.4244 18.5781,217.7838 Q17.2656,216.1275 17.2656,213.0025 Q17.2656,209.8775 18.5781,208.2213 Q19.9063,206.565 22.4063,206.565 Q23.1094,206.565 23.75,206.7213 Q24.4063,206.8775 24.9688,207.1744 L24.9688,209.8931 Q24.3438,209.315 23.75,209.0494 Q23.1563,208.7681 22.5313,208.7681 Q21.1875,208.7681 20.5,209.8463 Q19.8125,210.9088 19.8125,213.0025 Q19.8125,215.0963 20.5,216.1744 Q21.1875,217.2369 22.5313,217.2369 Q23.1563,217.2369 23.75,216.9713 Q24.3438,216.69 24.9688,216.1119 L24.9688,218.8306 Z " fill="#000000"/><text fill="#000000" font-family="sans-serif" font-size="14" lengthAdjust="spacing" textLength="50.1006" x="36" y="218.0367">AWSS3</text><line style="stroke:#181818;stroke-width:0.5;" x1="8" x2="88.1006" y1="229.19" y2="229.19"/><line style="stroke:#181818;stroke-width:0.5;" x1="8" x2="88.1006" y1="237.19" y2="237.19"/></g><!--class SQLServer--><g class="entity" data-entity="SQLServer" data-source-line="11" data-uid="ent0005" id="entity_SQLServer"><rect fill="#F1F1F1" height="48" rx="2.5" ry="2.5" style="stroke:#181818;stroke-width:0.5;" width="105.6162" x="124.24" y="197.19"/><ellipse cx="139.24" cy="213.19" fill="#C2C2C2" rx="11" ry="11" style="stroke:#181818;stroke-width:1;"/><path d="M142.2088,218.8306 Q141.6306,219.1275 140.99,219.2681 Q140.3494,219.4244 139.6463,219.4244 Q137.1463,219.4244 135.8181,217.7838 Q134.5056,216.1275 134.5056,213.0025 Q134.5056,209.8775 135.8181,208.2213 Q137.1463,206.565 139.6463,206.565 Q140.3494,206.565 140.99,206.7213 Q141.6463,206.8775 142.2088,207.1744 L142.2088,209.8931 Q141.5838,209.315 140.99,209.0494 Q140.3963,208.7681 139.7713,208.7681 Q138.4275,208.7681 137.74,209.8463 Q137.0525,210.9088 137.0525,213.0025 Q137.0525,215.0963 137.74,216.1744 Q138.4275,217.2369 139.7713,217.2369 Q140.3963,217.2369 140.99,216.9713 Q141.5838,216.69 142.2088,216.1119 L142.2088,218.8306 Z " fill="#000000"/><text fill="#000000" font-family="sans-serif" font-size="14" lengthAdjust="spacing" textLength="73.6162" x="153.24" y="218.0367">SQLServer</text><line style="stroke:#181818;stroke-width:0.5;" x1="125.24" x2="228.8562" y1="229.19" y2="229.19"/><line style="stroke:#181818;stroke-width:0.5;" x1="125.24" x2="228.8562" y1="237.19" y2="237.19"/></g><!--link Certificate to AWSS3--><g class="link" data-entity-1="Certificate" data-entity-2="AWSS3" data-source-line="10" data-uid="lnk4" id="link_Certificate_AWSS3"><path codeLine="10" d="M70.2,120.67 C64.67,130.14 59.67,140.17 56.05,150.19 C50.65,165.15 48.9456,176.9663 48.3056,190.8863" fill="none" id="Certificate-to-AWSS3" style="stroke:#181818;stroke-width:1;"/><polygon fill="#181818" points="48.03,196.88,52.4391,188.0732,48.2596,191.8853,44.4476,187.7058,48.03,196.88" style="stroke:#181818;stroke-width:1;"/><text fill="#000000" font-family="sans-serif" font-size="13" lengthAdjust="spacing" textLength="76.1909" x="57.05" y="163.2569">PDFStorage</text></g><!--link Certificate to SQLServer--><g class="link" data-entity-1="Certificate" data-entity-2="SQLServer" data-source-line="11" data-uid="lnk6" id="link_Certificate_SQLServer"><path codeLine="11" d="M135.33,120.33 C146.33,146.66 156.5559,171.1342 164.9959,191.3242" fill="none" id="Certificate-to-SQLServer" style="stroke:#181818;stroke-width:1;"/><polygon fill="#181818" points="167.31,196.86,167.5293,187.0136,165.3816,192.2468,160.1483,190.0991,167.31,196.86" style="stroke:#181818;stroke-width:1;"/><text fill="#000000" font-family="sans-serif" font-size="13" lengthAdjust="spacing" textLength="50.8638" x="155.05" y="163.2569">Storage</text></g><!--SRC=[PSkn2W9130JGFb-H7zZgEWj1F0J1GjdYwcKlQj3TI9Ar4V_TyxGGR8OPU6CNhhUagM2HAlciKWXT6m7aQpB3DQdpaNDomWSW1XxVQTv6ghwTHvQcHf_EPetwISCJuFSSmX9NGumTBd3VRwABfXFzaNZOHT8xwSI-vWK0]--></g></svg>