<svg xmlns="http://www.w3.org/2000/svg" xmlns:xlink="http://www.w3.org/1999/xlink" contentStyleType="text/css" data-diagram-type="CLASS" height="268px" preserveAspectRatio="none" style="width:278px;height:268px;background:#FFFFFF;" version="1.1" viewBox="0 0 278 268" width="278px" zoomAndPan="magnify"><defs/><g><!--class Assignment--><g class="entity" data-entity="Assignment" data-source-line="3" data-uid="ent0002" id="entity_Assignment"><rect fill="#F1F1F1" height="129.4844" rx="2.5" ry="2.5" style="stroke:#181818;stroke-width:0.5;" width="114.4277" x="66.59" y="7"/><ellipse cx="81.59" cy="23" fill="#C2C2C2" rx="11" ry="11" style="stroke:#181818;stroke-width:1;"/><path d="M84.5588,28.6406 Q83.9806,28.9375 83.34,29.0781 Q82.6994,29.2344 81.9963,29.2344 Q79.4963,29.2344 78.1681,27.5938 Q76.8556,25.9375 76.8556,22.8125 Q76.8556,19.6875 78.1681,18.0313 Q79.4963,16.375 81.9963,16.375 Q82.6994,16.375 83.34,16.5313 Q83.9963,16.6875 84.5588,16.9844 L84.5588,19.7031 Q83.9338,19.125 83.34,18.8594 Q82.7463,18.5781 82.1213,18.5781 Q80.7775,18.5781 80.09,19.6563 Q79.4025,20.7188 79.4025,22.8125 Q79.4025,24.9063 80.09,25.9844 Q80.7775,27.0469 82.1213,27.0469 Q82.7463,27.0469 83.34,26.7813 Q83.9338,26.5 84.5588,25.9219 L84.5588,28.6406 Z " fill="#000000"/><text fill="#000000" font-family="sans-serif" font-size="14" lengthAdjust="spacing" textLength="82.4277" x="95.59" y="27.8467">Assignment</text><line style="stroke:#181818;stroke-width:0.5;" x1="67.59" x2="180.0177" y1="39" y2="39"/><rect fill="none" height="6" style="stroke:#595959;stroke-width:1;" width="6" x="74.59" y="49.6484"/><text fill="#000000" font-family="sans-serif" font-size="14" lengthAdjust="spacing" textLength="12.7764" x="86.59" y="55.9951">id</text><rect fill="none" height="6" style="stroke:#595959;stroke-width:1;" width="6" x="74.59" y="65.9453"/><text fill="#000000" font-family="sans-serif" font-size="14" lengthAdjust="spacing" textLength="27.3711" x="86.59" y="72.292">title</text><rect fill="none" height="6" style="stroke:#595959;stroke-width:1;" width="6" x="74.59" y="82.2422"/><text fill="#000000" font-family="sans-serif" font-size="14" lengthAdjust="spacing" textLength="31.2744" x="86.59" y="88.5889">type</text><rect fill="none" height="6" style="stroke:#595959;stroke-width:1;" width="6" x="74.59" y="98.5391"/><text fill="#000000" font-family="sans-serif" font-size="14" lengthAdjust="spacing" textLength="60.2314" x="86.59" y="104.8857">deadline</text><rect fill="none" height="6" style="stroke:#595959;stroke-width:1;" width="6" x="74.59" y="114.8359"/><text fill="#000000" font-family="sans-serif" font-size="14" lengthAdjust="spacing" textLength="47.7695" x="86.59" y="121.1826">classId</text><line style="stroke:#181818;stroke-width:0.5;" x1="67.59" x2="180.0177" y1="128.4844" y2="128.4844"/></g><!--class SQLServer--><g class="entity" data-entity="SQLServer" data-source-line="11" data-uid="ent0003" id="entity_SQLServer"><rect fill="#F1F1F1" height="48" rx="2.5" ry="2.5" style="stroke:#181818;stroke-width:0.5;" width="105.6162" x="7" y="213.48"/><ellipse cx="22" cy="229.48" fill="#C2C2C2" rx="11" ry="11" style="stroke:#181818;stroke-width:1;"/><path d="M24.9688,235.1206 Q24.3906,235.4175 23.75,235.5581 Q23.1094,235.7144 22.4063,235.7144 Q19.9063,235.7144 18.5781,234.0738 Q17.2656,232.4175 17.2656,229.2925 Q17.2656,226.1675 18.5781,224.5113 Q19.9063,222.855 22.4063,222.855 Q23.1094,222.855 23.75,223.0113 Q24.4063,223.1675 24.9688,223.4644 L24.9688,226.1831 Q24.3438,225.605 23.75,225.3394 Q23.1563,225.0581 22.5313,225.0581 Q21.1875,225.0581 20.5,226.1363 Q19.8125,227.1988 19.8125,229.2925 Q19.8125,231.3863 20.5,232.4644 Q21.1875,233.5269 22.5313,233.5269 Q23.1563,233.5269 23.75,233.2613 Q24.3438,232.98 24.9688,232.4019 L24.9688,235.1206 Z " fill="#000000"/><text fill="#000000" font-family="sans-serif" font-size="14" lengthAdjust="spacing" textLength="73.6162" x="36" y="234.3267">SQLServer</text><line style="stroke:#181818;stroke-width:0.5;" x1="8" x2="111.6162" y1="245.48" y2="245.48"/><line style="stroke:#181818;stroke-width:0.5;" x1="8" x2="111.6162" y1="253.48" y2="253.48"/></g><!--class AWSS3--><g class="entity" data-entity="AWSS3" data-source-line="12" data-uid="ent0005" id="entity_AWSS3"><rect fill="#F1F1F1" height="48" rx="2.5" ry="2.5" style="stroke:#181818;stroke-width:0.5;" width="82.1006" x="147.76" y="213.48"/><ellipse cx="162.76" cy="229.48" fill="#C2C2C2" rx="11" ry="11" style="stroke:#181818;stroke-width:1;"/><path d="M165.7288,235.1206 Q165.1506,235.4175 164.51,235.5581 Q163.8694,235.7144 163.1663,235.7144 Q160.6663,235.7144 159.3381,234.0738 Q158.0256,232.4175 158.0256,229.2925 Q158.0256,226.1675 159.3381,224.5113 Q160.6663,222.855 163.1663,222.855 Q163.8694,222.855 164.51,223.0113 Q165.1663,223.1675 165.7288,223.4644 L165.7288,226.1831 Q165.1038,225.605 164.51,225.3394 Q163.9163,225.0581 163.2913,225.0581 Q161.9475,225.0581 161.26,226.1363 Q160.5725,227.1988 160.5725,229.2925 Q160.5725,231.3863 161.26,232.4644 Q161.9475,233.5269 163.2913,233.5269 Q163.9163,233.5269 164.51,233.2613 Q165.1038,232.98 165.7288,232.4019 L165.7288,235.1206 Z " fill="#000000"/><text fill="#000000" font-family="sans-serif" font-size="14" lengthAdjust="spacing" textLength="50.1006" x="176.76" y="234.3267">AWSS3</text><line style="stroke:#181818;stroke-width:0.5;" x1="148.76" x2="228.8606" y1="245.48" y2="245.48"/><line style="stroke:#181818;stroke-width:0.5;" x1="148.76" x2="228.8606" y1="253.48" y2="253.48"/></g><!--link Assignment to SQLServer--><g class="link" data-entity-1="Assignment" data-entity-2="SQLServer" data-source-line="11" data-uid="lnk4" id="link_Assignment_SQLServer"><path codeLine="11" d="M98.88,136.51 C88.35,163.45 78.9353,187.5521 71.1253,207.5221" fill="none" id="Assignment-to-SQLServer" style="stroke:#181818;stroke-width:1;"/><polygon fill="#181818" points="68.94,213.11,75.9433,206.1851,70.7611,208.4534,68.4928,203.2713,68.94,213.11" style="stroke:#181818;stroke-width:1;"/><text fill="#000000" font-family="sans-serif" font-size="13" lengthAdjust="spacing" textLength="50.8638" x="87.81" y="179.5469">Storage</text></g><!--link Assignment to AWSS3--><g class="link" data-entity-1="Assignment" data-entity-2="AWSS3" data-source-line="12" data-uid="lnk6" id="link_Assignment_AWSS3"><path codeLine="12" d="M149.12,136.51 C159.82,163.45 169.3856,187.5636 177.3156,207.5336" fill="none" id="Assignment-to-AWSS3" style="stroke:#181818;stroke-width:1;"/><polygon fill="#181818" points="179.53,213.11,179.9261,203.2691,177.6847,208.463,172.4908,206.2216,179.53,213.11" style="stroke:#181818;stroke-width:1;"/><text fill="#000000" font-family="sans-serif" font-size="13" lengthAdjust="spacing" textLength="103.8413" x="166.81" y="179.5469">SubmissionFiles</text></g><!--SRC=[NOkn2W9134JxV4L-O2ix2-4QGR2HBQpNst06TvCZsJiGyT_rjXARcO4tpnyiSx9KiQheU3UjXCqM0XXBSiV1dIUf90rVW1WuRzcu5UhZEVVEb79XwRkBfmnlW1yxX0F6opcIhMIunzZKqaJ_b-4Qusx3owto5waSkP1_0000]--></g></svg>