<svg xmlns="http://www.w3.org/2000/svg" xmlns:xlink="http://www.w3.org/1999/xlink" contentStyleType="text/css" data-diagram-type="CLASS" height="284px" preserveAspectRatio="none" style="width:247px;height:284px;background:#FFFFFF;" version="1.1" viewBox="0 0 247 284" width="247px" zoomAndPan="magnify"><defs/><g><!--class UserAuthController--><g class="entity" data-entity="UserAuthController" data-source-line="3" data-uid="ent0002" id="entity_UserAuthController"><rect fill="#F1F1F1" height="80.5938" rx="2.5" ry="2.5" style="stroke:#181818;stroke-width:0.5;" width="185.25" x="27.73" y="7"/><ellipse cx="51.4395" cy="23" fill="#C2C2C2" rx="11" ry="11" style="stroke:#181818;stroke-width:1;"/><path d="M54.4083,28.6406 Q53.8301,28.9375 53.1895,29.0781 Q52.5489,29.2344 51.8458,29.2344 Q49.3458,29.2344 48.0176,27.5938 Q46.7051,25.9375 46.7051,22.8125 Q46.7051,19.6875 48.0176,18.0313 Q49.3458,16.375 51.8458,16.375 Q52.5489,16.375 53.1895,16.5313 Q53.8458,16.6875 54.4083,16.9844 L54.4083,19.7031 Q53.7833,19.125 53.1895,18.8594 Q52.5958,18.5781 51.9708,18.5781 Q50.627,18.5781 49.9395,19.6563 Q49.252,20.7188 49.252,22.8125 Q49.252,24.9063 49.9395,25.9844 Q50.627,27.0469 51.9708,27.0469 Q52.5958,27.0469 53.1895,26.7813 Q53.7833,26.5 54.4083,25.9219 L54.4083,28.6406 Z " fill="#000000"/><text fill="#000000" font-family="sans-serif" font-size="14" lengthAdjust="spacing" textLength="133.8955" x="67.375" y="27.8467">UserAuthController</text><line style="stroke:#181818;stroke-width:0.5;" x1="28.73" x2="211.98" y1="39" y2="39"/><line style="stroke:#181818;stroke-width:0.5;" x1="28.73" x2="211.98" y1="47" y2="47"/><ellipse cx="38.73" cy="60.6484" fill="#A6A6A6" rx="3" ry="3" style="stroke:#545454;stroke-width:1;"/><text fill="#000000" font-family="sans-serif" font-size="14" lengthAdjust="spacing" textLength="159.25" x="47.73" y="63.9951">login(email, password)</text><ellipse cx="38.73" cy="76.9453" fill="#A6A6A6" rx="3" ry="3" style="stroke:#545454;stroke-width:1;"/><text fill="#000000" font-family="sans-serif" font-size="14" lengthAdjust="spacing" textLength="129.1855" x="47.73" y="80.292">register(userData)</text></g><!--class User--><g class="entity" data-entity="User" data-source-line="8" data-uid="ent0003" id="entity_User"><rect fill="#F1F1F1" height="113.1875" rx="2.5" ry="2.5" style="stroke:#181818;stroke-width:0.5;" width="92.7119" x="7" y="164.59"/><ellipse cx="34.9608" cy="180.59" fill="#C2C2C2" rx="11" ry="11" style="stroke:#181818;stroke-width:1;"/><path d="M37.9295,186.2306 Q37.3514,186.5275 36.7108,186.6681 Q36.0702,186.8244 35.367,186.8244 Q32.867,186.8244 31.5389,185.1837 Q30.2264,183.5275 30.2264,180.4025 Q30.2264,177.2775 31.5389,175.6212 Q32.867,173.965 35.367,173.965 Q36.0702,173.965 36.7108,174.1212 Q37.367,174.2775 37.9295,174.5744 L37.9295,177.2931 Q37.3045,176.715 36.7108,176.4494 Q36.117,176.1681 35.492,176.1681 Q34.1483,176.1681 33.4608,177.2462 Q32.7733,178.3087 32.7733,180.4025 Q32.7733,182.4962 33.4608,183.5744 Q34.1483,184.6369 35.492,184.6369 Q36.117,184.6369 36.7108,184.3712 Q37.3045,184.09 37.9295,183.5119 L37.9295,186.2306 Z " fill="#000000"/><text fill="#000000" font-family="sans-serif" font-size="14" lengthAdjust="spacing" textLength="31.9102" x="51.841" y="185.4367">User</text><line style="stroke:#181818;stroke-width:0.5;" x1="8" x2="98.7119" y1="196.59" y2="196.59"/><rect fill="none" height="6" style="stroke:#595959;stroke-width:1;" width="6" x="15" y="207.2384"/><text fill="#000000" font-family="sans-serif" font-size="14" lengthAdjust="spacing" textLength="12.7764" x="27" y="213.5851">id</text><rect fill="none" height="6" style="stroke:#595959;stroke-width:1;" width="6" x="15" y="223.5353"/><text fill="#000000" font-family="sans-serif" font-size="14" lengthAdjust="spacing" textLength="38.6094" x="27" y="229.882">email</text><rect fill="none" height="6" style="stroke:#595959;stroke-width:1;" width="6" x="15" y="239.8322"/><text fill="#000000" font-family="sans-serif" font-size="14" lengthAdjust="spacing" textLength="66.7119" x="27" y="246.1789">password</text><rect fill="none" height="6" style="stroke:#595959;stroke-width:1;" width="6" x="15" y="256.1291"/><text fill="#000000" font-family="sans-serif" font-size="14" lengthAdjust="spacing" textLength="26.8242" x="27" y="262.4757">role</text><line style="stroke:#181818;stroke-width:0.5;" x1="8" x2="98.7119" y1="269.7775" y2="269.7775"/></g><!--class SQLServer--><g class="entity" data-entity="SQLServer" data-source-line="16" data-uid="ent0005" id="entity_SQLServer"><rect fill="#F1F1F1" height="48" rx="2.5" ry="2.5" style="stroke:#181818;stroke-width:0.5;" width="105.6162" x="134.55" y="197.19"/><ellipse cx="149.55" cy="213.19" fill="#C2C2C2" rx="11" ry="11" style="stroke:#181818;stroke-width:1;"/><path d="M152.5188,218.8306 Q151.9406,219.1275 151.3,219.2681 Q150.6594,219.4244 149.9563,219.4244 Q147.4563,219.4244 146.1281,217.7837 Q144.8156,216.1275 144.8156,213.0025 Q144.8156,209.8775 146.1281,208.2212 Q147.4563,206.565 149.9563,206.565 Q150.6594,206.565 151.3,206.7212 Q151.9563,206.8775 152.5188,207.1744 L152.5188,209.8931 Q151.8938,209.315 151.3,209.0494 Q150.7063,208.7681 150.0813,208.7681 Q148.7375,208.7681 148.05,209.8462 Q147.3625,210.9087 147.3625,213.0025 Q147.3625,215.0962 148.05,216.1744 Q148.7375,217.2369 150.0813,217.2369 Q150.7063,217.2369 151.3,216.9712 Q151.8938,216.69 152.5188,216.1119 L152.5188,218.8306 Z " fill="#000000"/><text fill="#000000" font-family="sans-serif" font-size="14" lengthAdjust="spacing" textLength="73.6162" x="163.55" y="218.0367">SQLServer</text><line style="stroke:#181818;stroke-width:0.5;" x1="135.55" x2="239.1662" y1="229.19" y2="229.19"/><line style="stroke:#181818;stroke-width:0.5;" x1="135.55" x2="239.1662" y1="237.19" y2="237.19"/></g><!--link UserAuthController to User--><g class="link" data-entity-1="UserAuthController" data-entity-2="User" data-source-line="15" data-uid="lnk4" id="link_UserAuthController_User"><path codeLine="15" d="M104.98,87.73 C96.14,110.43 87.0601,133.7301 77.3101,158.7301" fill="none" id="UserAuthController-to-User" style="stroke:#181818;stroke-width:1;"/><polygon fill="#181818" points="75.13,164.32,82.1267,157.3885,76.9467,159.6617,74.6735,154.4817,75.13,164.32" style="stroke:#181818;stroke-width:1;"/></g><!--link UserAuthController to SQLServer--><g class="link" data-entity-1="UserAuthController" data-entity-2="SQLServer" data-source-line="16" data-uid="lnk6" id="link_UserAuthController_SQLServer"><path codeLine="16" d="M135.73,87.73 C148.86,121.43 165.1406,163.1898 176.0606,191.1998" fill="none" id="UserAuthController-to-SQLServer" style="stroke:#181818;stroke-width:1;"/><polygon fill="#181818" points="178.24,196.79,178.6977,186.9518,176.4238,192.1315,171.2441,189.8576,178.24,196.79" style="stroke:#181818;stroke-width:1;"/><text fill="#000000" font-family="sans-serif" font-size="13" lengthAdjust="spacing" textLength="50.8638" x="154.36" y="130.6569">Storage</text></g><!--SRC=[TOsn2W8n44JxVCMMTsX-m48GBMqa-07BtP8B9jbZasWX_hj9GB3GPfbbvisacuih2WO877bQX0D1ba9AJHvJWciYEPIy73bcOUz9uAa0DfwjYmC5T7uBQqq-MEQnEKBMfKmob8gUCEEeNjzjdTTkRhVpJNmQcgupr90VqrhlUyS_prpEXkHUlnsOp8AMtW00]--></g></svg>