<svg xmlns="http://www.w3.org/2000/svg" xmlns:xlink="http://www.w3.org/1999/xlink" contentStyleType="text/css" data-diagram-type="CLASS" height="268px" preserveAspectRatio="none" style="width:119px;height:268px;background:#FFFFFF;" version="1.1" viewBox="0 0 119 268" width="119px" zoomAndPan="magnify"><defs/><g><!--class Course--><g class="entity" data-entity="Course" data-source-line="3" data-uid="ent0002" id="entity_Course"><rect fill="#F1F1F1" height="129.4844" rx="2.5" ry="2.5" style="stroke:#181818;stroke-width:0.5;" width="103.8408" x="7.89" y="7"/><ellipse cx="33.2237" cy="23" fill="#C2C2C2" rx="11" ry="11" style="stroke:#181818;stroke-width:1;"/><path d="M36.1925,28.6406 Q35.6144,28.9375 34.9737,29.0781 Q34.3331,29.2344 33.63,29.2344 Q31.13,29.2344 29.8019,27.5938 Q28.4894,25.9375 28.4894,22.8125 Q28.4894,19.6875 29.8019,18.0313 Q31.13,16.375 33.63,16.375 Q34.3331,16.375 34.9737,16.5313 Q35.63,16.6875 36.1925,16.9844 L36.1925,19.7031 Q35.5675,19.125 34.9737,18.8594 Q34.38,18.5781 33.755,18.5781 Q32.4112,18.5781 31.7237,19.6563 Q31.0362,20.7188 31.0362,22.8125 Q31.0362,24.9063 31.7237,25.9844 Q32.4112,27.0469 33.755,27.0469 Q34.38,27.0469 34.9737,26.7813 Q35.5675,26.5 36.1925,25.9219 L36.1925,28.6406 Z " fill="#000000"/><text fill="#000000" font-family="sans-serif" font-size="14" lengthAdjust="spacing" textLength="48.877" x="49.5201" y="27.8467">Course</text><line style="stroke:#181818;stroke-width:0.5;" x1="8.89" x2="110.7308" y1="39" y2="39"/><rect fill="none" height="6" style="stroke:#595959;stroke-width:1;" width="6" x="15.89" y="49.6484"/><text fill="#000000" font-family="sans-serif" font-size="14" lengthAdjust="spacing" textLength="12.7764" x="27.89" y="55.9951">id</text><rect fill="none" height="6" style="stroke:#595959;stroke-width:1;" width="6" x="15.89" y="65.9453"/><text fill="#000000" font-family="sans-serif" font-size="14" lengthAdjust="spacing" textLength="39.7031" x="27.89" y="72.292">name</text><rect fill="none" height="6" style="stroke:#595959;stroke-width:1;" width="6" x="15.89" y="82.2422"/><text fill="#000000" font-family="sans-serif" font-size="14" lengthAdjust="spacing" textLength="77.8408" x="27.89" y="88.5889">description</text><rect fill="none" height="6" style="stroke:#595959;stroke-width:1;" width="6" x="15.89" y="98.5391"/><text fill="#000000" font-family="sans-serif" font-size="14" lengthAdjust="spacing" textLength="58.9121" x="27.89" y="104.8857">duration</text><rect fill="none" height="6" style="stroke:#595959;stroke-width:1;" width="6" x="15.89" y="114.8359"/><text fill="#000000" font-family="sans-serif" font-size="14" lengthAdjust="spacing" textLength="66.6367" x="27.89" y="121.1826">teacherId</text><line style="stroke:#181818;stroke-width:0.5;" x1="8.89" x2="110.7308" y1="128.4844" y2="128.4844"/></g><!--class SQLServer--><g class="entity" data-entity="SQLServer" data-source-line="11" data-uid="ent0003" id="entity_SQLServer"><rect fill="#F1F1F1" height="48" rx="2.5" ry="2.5" style="stroke:#181818;stroke-width:0.5;" width="105.6162" x="7" y="213.48"/><ellipse cx="22" cy="229.48" fill="#C2C2C2" rx="11" ry="11" style="stroke:#181818;stroke-width:1;"/><path d="M24.9688,235.1206 Q24.3906,235.4175 23.75,235.5581 Q23.1094,235.7144 22.4063,235.7144 Q19.9063,235.7144 18.5781,234.0738 Q17.2656,232.4175 17.2656,229.2925 Q17.2656,226.1675 18.5781,224.5113 Q19.9063,222.855 22.4063,222.855 Q23.1094,222.855 23.75,223.0113 Q24.4063,223.1675 24.9688,223.4644 L24.9688,226.1831 Q24.3438,225.605 23.75,225.3394 Q23.1563,225.0581 22.5313,225.0581 Q21.1875,225.0581 20.5,226.1363 Q19.8125,227.1988 19.8125,229.2925 Q19.8125,231.3863 20.5,232.4644 Q21.1875,233.5269 22.5313,233.5269 Q23.1563,233.5269 23.75,233.2613 Q24.3438,232.98 24.9688,232.4019 L24.9688,235.1206 Z " fill="#000000"/><text fill="#000000" font-family="sans-serif" font-size="14" lengthAdjust="spacing" textLength="73.6162" x="36" y="234.3267">SQLServer</text><line style="stroke:#181818;stroke-width:0.5;" x1="8" x2="111.6162" y1="245.48" y2="245.48"/><line style="stroke:#181818;stroke-width:0.5;" x1="8" x2="111.6162" y1="253.48" y2="253.48"/></g><!--link Course to SQLServer--><g class="link" data-entity-1="Course" data-entity-2="SQLServer" data-source-line="11" data-uid="lnk4" id="link_Course_SQLServer"><path codeLine="11" d="M59.81,136.51 C59.81,163.45 59.81,187.14 59.81,207.11" fill="none" id="Course-to-SQLServer" style="stroke:#181818;stroke-width:1;"/><polygon fill="#181818" points="59.81,213.11,63.81,204.11,59.81,208.11,55.81,204.11,59.81,213.11" style="stroke:#181818;stroke-width:1;"/><text fill="#000000" font-family="sans-serif" font-size="13" lengthAdjust="spacing" textLength="50.8638" x="60.81" y="179.5469">Storage</text></g><!--SRC=[DOon3G8n40Jpg-8QS0C494H892zNSB9NlCNRzrhR98ZUqID8TcQIxO_ITgDLhTuyhVGA7PmGIPlrhXUVxD2Ng8QIZsrMSJ2Z9vPz56_VdBI_3rXQmMkMjyZl8OIpnkKMmIUe9ut3QNTy0000]--></g></svg>