<svg xmlns="http://www.w3.org/2000/svg" xmlns:xlink="http://www.w3.org/1999/xlink" contentStyleType="text/css" data-diagram-type="DESCRIPTION" height="231px" preserveAspectRatio="none" style="width:1282px;height:231px;background:#FFFFFF;" version="1.1" viewBox="0 0 1282 231" width="1282px" zoomAndPan="magnify"><defs/><g><!--cluster ProcessModel--><g class="cluster" data-entity="ProcessModel" data-source-line="3" data-uid="ent0002" id="cluster_ProcessModel"><path d="M55.5,6 L165.6084,6 A3.75,3.75 0 0 1 168.1084,8.5 L175.1084,28.2969 L1226.5,28.2969 A2.5,2.5 0 0 1 1229,30.7969 L1229,100.79 A2.5,2.5 0 0 1 1226.5,103.29 L55.5,103.29 A2.5,2.5 0 0 1 53,100.79 L53,8.5 A2.5,2.5 0 0 1 55.5,6" fill="none" style="stroke:#000000;stroke-width:1.5;"/><line style="stroke:#000000;stroke-width:1.5;" x1="53" x2="175.1084" y1="28.2969" y2="28.2969"/><text fill="#000000" font-family="sans-serif" font-size="14" font-weight="bold" lengthAdjust="spacing" textLength="109.1084" x="57" y="20.9951">ProcessModel</text></g><!--cluster DesignModel--><g class="cluster" data-entity="DesignModel" data-source-line="12" data-uid="ent0009" id="cluster_DesignModel"><path d="M8.5,127.29 L111.6016,127.29 A3.75,3.75 0 0 1 114.1016,129.79 L121.1016,149.5869 L1272.5,149.5869 A2.5,2.5 0 0 1 1275,152.0869 L1275,222.09 A2.5,2.5 0 0 1 1272.5,224.59 L8.5,224.59 A2.5,2.5 0 0 1 6,222.09 L6,129.79 A2.5,2.5 0 0 1 8.5,127.29" fill="none" style="stroke:#000000;stroke-width:1.5;"/><line style="stroke:#000000;stroke-width:1.5;" x1="6" x2="121.1016" y1="149.5869" y2="149.5869"/><text fill="#000000" font-family="sans-serif" font-size="14" font-weight="bold" lengthAdjust="spacing" textLength="102.1016" x="10" y="142.2851">DesignModel</text></g><!--entity UserAuthProcess--><g class="entity" data-entity="UserAuthProcess" data-source-line="4" data-uid="ent0003" id="entity_UserAuthProcess"><rect fill="#F1F1F1" height="46.2969" rx="2.5" ry="2.5" style="stroke:#181818;stroke-width:0.5;" width="158.3848" x="68.81" y="41"/><rect fill="#F1F1F1" height="10" style="stroke:#181818;stroke-width:0.5;" width="15" x="207.1948" y="46"/><rect fill="#F1F1F1" height="2" style="stroke:#181818;stroke-width:0.5;" width="4" x="205.1948" y="48"/><rect fill="#F1F1F1" height="2" style="stroke:#181818;stroke-width:0.5;" width="4" x="205.1948" y="52"/><text fill="#000000" font-family="sans-serif" font-size="14" lengthAdjust="spacing" textLength="118.3848" x="83.81" y="73.9951">UserAuthProcess</text></g><!--entity CourseProcess--><g class="entity" data-entity="CourseProcess" data-source-line="5" data-uid="ent0004" id="entity_CourseProcess"><rect fill="#F1F1F1" height="46.2969" rx="2.5" ry="2.5" style="stroke:#181818;stroke-width:0.5;" width="142.5391" x="261.73" y="41"/><rect fill="#F1F1F1" height="10" style="stroke:#181818;stroke-width:0.5;" width="15" x="384.2691" y="46"/><rect fill="#F1F1F1" height="2" style="stroke:#181818;stroke-width:0.5;" width="4" x="382.2691" y="48"/><rect fill="#F1F1F1" height="2" style="stroke:#181818;stroke-width:0.5;" width="4" x="382.2691" y="52"/><text fill="#000000" font-family="sans-serif" font-size="14" lengthAdjust="spacing" textLength="102.5391" x="276.73" y="73.9951">CourseProcess</text></g><!--entity RegistrationProcess--><g class="entity" data-entity="RegistrationProcess" data-source-line="6" data-uid="ent0005" id="entity_RegistrationProcess"><rect fill="#F1F1F1" height="46.2969" rx="2.5" ry="2.5" style="stroke:#181818;stroke-width:0.5;" width="178.7148" x="439.64" y="41"/><rect fill="#F1F1F1" height="10" style="stroke:#181818;stroke-width:0.5;" width="15" x="598.3548" y="46"/><rect fill="#F1F1F1" height="2" style="stroke:#181818;stroke-width:0.5;" width="4" x="596.3548" y="48"/><rect fill="#F1F1F1" height="2" style="stroke:#181818;stroke-width:0.5;" width="4" x="596.3548" y="52"/><text fill="#000000" font-family="sans-serif" font-size="14" lengthAdjust="spacing" textLength="138.7148" x="454.64" y="73.9951">RegistrationProcess</text></g><!--entity AssignmentProcess--><g class="entity" data-entity="AssignmentProcess" data-source-line="7" data-uid="ent0006" id="entity_AssignmentProcess"><rect fill="#F1F1F1" height="46.2969" rx="2.5" ry="2.5" style="stroke:#181818;stroke-width:0.5;" width="176.0898" x="652.96" y="41"/><rect fill="#F1F1F1" height="10" style="stroke:#181818;stroke-width:0.5;" width="15" x="809.0498" y="46"/><rect fill="#F1F1F1" height="2" style="stroke:#181818;stroke-width:0.5;" width="4" x="807.0498" y="48"/><rect fill="#F1F1F1" height="2" style="stroke:#181818;stroke-width:0.5;" width="4" x="807.0498" y="52"/><text fill="#000000" font-family="sans-serif" font-size="14" lengthAdjust="spacing" textLength="136.0898" x="667.96" y="73.9951">AssignmentProcess</text></g><!--entity SessionProcess--><g class="entity" data-entity="SessionProcess" data-source-line="8" data-uid="ent0007" id="entity_SessionProcess"><rect fill="#F1F1F1" height="46.2969" rx="2.5" ry="2.5" style="stroke:#181818;stroke-width:0.5;" width="147.0781" x="864.46" y="41"/><rect fill="#F1F1F1" height="10" style="stroke:#181818;stroke-width:0.5;" width="15" x="991.5381" y="46"/><rect fill="#F1F1F1" height="2" style="stroke:#181818;stroke-width:0.5;" width="4" x="989.5381" y="48"/><rect fill="#F1F1F1" height="2" style="stroke:#181818;stroke-width:0.5;" width="4" x="989.5381" y="52"/><text fill="#000000" font-family="sans-serif" font-size="14" lengthAdjust="spacing" textLength="107.0781" x="879.46" y="73.9951">SessionProcess</text></g><!--entity CertificateProcess--><g class="entity" data-entity="CertificateProcess" data-source-line="9" data-uid="ent0008" id="entity_CertificateProcess"><rect fill="#F1F1F1" height="46.2969" rx="2.5" ry="2.5" style="stroke:#181818;stroke-width:0.5;" width="166.3828" x="1046.81" y="41"/><rect fill="#F1F1F1" height="10" style="stroke:#181818;stroke-width:0.5;" width="15" x="1193.1928" y="46"/><rect fill="#F1F1F1" height="2" style="stroke:#181818;stroke-width:0.5;" width="4" x="1191.1928" y="48"/><rect fill="#F1F1F1" height="2" style="stroke:#181818;stroke-width:0.5;" width="4" x="1191.1928" y="52"/><text fill="#000000" font-family="sans-serif" font-size="14" lengthAdjust="spacing" textLength="126.3828" x="1061.81" y="73.9951">CertificateProcess</text></g><!--entity UserAuthController--><g class="entity" data-entity="UserAuthController" data-source-line="13" data-uid="ent0010" id="entity_UserAuthController"><rect fill="#F1F1F1" height="46.2969" rx="2.5" ry="2.5" style="stroke:#181818;stroke-width:0.5;" width="173.8955" x="22.05" y="162.29"/><rect fill="#F1F1F1" height="10" style="stroke:#181818;stroke-width:0.5;" width="15" x="175.9455" y="167.29"/><rect fill="#F1F1F1" height="2" style="stroke:#181818;stroke-width:0.5;" width="4" x="173.9455" y="169.29"/><rect fill="#F1F1F1" height="2" style="stroke:#181818;stroke-width:0.5;" width="4" x="173.9455" y="173.29"/><text fill="#000000" font-family="sans-serif" font-size="14" lengthAdjust="spacing" textLength="133.8955" x="37.05" y="195.2851">UserAuthController</text></g><!--entity CourseController--><g class="entity" data-entity="CourseController" data-source-line="14" data-uid="ent0011" id="entity_CourseController"><rect fill="#F1F1F1" height="46.2969" rx="2.5" ry="2.5" style="stroke:#181818;stroke-width:0.5;" width="158.0498" x="230.98" y="162.29"/><rect fill="#F1F1F1" height="10" style="stroke:#181818;stroke-width:0.5;" width="15" x="369.0298" y="167.29"/><rect fill="#F1F1F1" height="2" style="stroke:#181818;stroke-width:0.5;" width="4" x="367.0298" y="169.29"/><rect fill="#F1F1F1" height="2" style="stroke:#181818;stroke-width:0.5;" width="4" x="367.0298" y="173.29"/><text fill="#000000" font-family="sans-serif" font-size="14" lengthAdjust="spacing" textLength="118.0498" x="245.98" y="195.2851">CourseController</text></g><!--entity RegistrationController--><g class="entity" data-entity="RegistrationController" data-source-line="15" data-uid="ent0012" id="entity_RegistrationController"><rect fill="#F1F1F1" height="46.2969" rx="2.5" ry="2.5" style="stroke:#181818;stroke-width:0.5;" width="194.2256" x="423.89" y="162.29"/><rect fill="#F1F1F1" height="10" style="stroke:#181818;stroke-width:0.5;" width="15" x="598.1156" y="167.29"/><rect fill="#F1F1F1" height="2" style="stroke:#181818;stroke-width:0.5;" width="4" x="596.1156" y="169.29"/><rect fill="#F1F1F1" height="2" style="stroke:#181818;stroke-width:0.5;" width="4" x="596.1156" y="173.29"/><text fill="#000000" font-family="sans-serif" font-size="14" lengthAdjust="spacing" textLength="154.2256" x="438.89" y="195.2851">RegistrationController</text></g><!--entity AssignmentController--><g class="entity" data-entity="AssignmentController" data-source-line="16" data-uid="ent0013" id="entity_AssignmentController"><rect fill="#F1F1F1" height="46.2969" rx="2.5" ry="2.5" style="stroke:#181818;stroke-width:0.5;" width="191.6006" x="653.2" y="162.29"/><rect fill="#F1F1F1" height="10" style="stroke:#181818;stroke-width:0.5;" width="15" x="824.8006" y="167.29"/><rect fill="#F1F1F1" height="2" style="stroke:#181818;stroke-width:0.5;" width="4" x="822.8006" y="169.29"/><rect fill="#F1F1F1" height="2" style="stroke:#181818;stroke-width:0.5;" width="4" x="822.8006" y="173.29"/><text fill="#000000" font-family="sans-serif" font-size="14" lengthAdjust="spacing" textLength="151.6006" x="668.2" y="195.2851">AssignmentController</text></g><!--entity SessionController--><g class="entity" data-entity="SessionController" data-source-line="17" data-uid="ent0014" id="entity_SessionController"><rect fill="#F1F1F1" height="46.2969" rx="2.5" ry="2.5" style="stroke:#181818;stroke-width:0.5;" width="162.5889" x="879.71" y="162.29"/><rect fill="#F1F1F1" height="10" style="stroke:#181818;stroke-width:0.5;" width="15" x="1022.2989" y="167.29"/><rect fill="#F1F1F1" height="2" style="stroke:#181818;stroke-width:0.5;" width="4" x="1020.2989" y="169.29"/><rect fill="#F1F1F1" height="2" style="stroke:#181818;stroke-width:0.5;" width="4" x="1020.2989" y="173.29"/><text fill="#000000" font-family="sans-serif" font-size="14" lengthAdjust="spacing" textLength="122.5889" x="894.71" y="195.2851">SessionController</text></g><!--entity CertificateController--><g class="entity" data-entity="CertificateController" data-source-line="18" data-uid="ent0015" id="entity_CertificateController"><rect fill="#F1F1F1" height="46.2969" rx="2.5" ry="2.5" style="stroke:#181818;stroke-width:0.5;" width="181.8936" x="1077.05" y="162.29"/><rect fill="#F1F1F1" height="10" style="stroke:#181818;stroke-width:0.5;" width="15" x="1238.9436" y="167.29"/><rect fill="#F1F1F1" height="2" style="stroke:#181818;stroke-width:0.5;" width="4" x="1236.9436" y="169.29"/><rect fill="#F1F1F1" height="2" style="stroke:#181818;stroke-width:0.5;" width="4" x="1236.9436" y="173.29"/><text fill="#000000" font-family="sans-serif" font-size="14" lengthAdjust="spacing" textLength="141.8936" x="1092.05" y="195.2851">CertificateController</text></g><!--link UserAuthProcess to UserAuthController--><g class="link" data-entity-1="UserAuthProcess" data-entity-2="UserAuthController" data-source-line="21" data-uid="lnk16" id="link_UserAuthProcess_UserAuthController"><path d="M140.66,87.58 C133.69,108.91 125.1244,135.107 118.1644,156.397" fill="none" id="UserAuthProcess-to-UserAuthController" style="stroke:#181818;stroke-width:1;"/><polygon fill="#181818" points="116.3,162.1,122.8986,154.7884,117.8537,157.3475,115.2946,152.3026,116.3,162.1" style="stroke:#181818;stroke-width:1;"/></g><!--link CourseProcess to CourseController--><g class="link" data-entity-1="CourseProcess" data-entity-2="CourseController" data-source-line="22" data-uid="lnk17" id="link_CourseProcess_CourseController"><path d="M328.67,87.58 C324.56,108.91 319.5446,134.9183 315.4446,156.2083" fill="none" id="CourseProcess-to-CourseController" style="stroke:#181818;stroke-width:1;"/><polygon fill="#181818" points="314.31,162.1,319.9398,154.0188,315.2555,157.1902,312.0841,152.506,314.31,162.1" style="stroke:#181818;stroke-width:1;"/></g><!--link RegistrationProcess to RegistrationController--><g class="link" data-entity-1="RegistrationProcess" data-entity-2="RegistrationController" data-source-line="23" data-uid="lnk18" id="link_RegistrationProcess_RegistrationController"><path d="M527.5,87.58 C526.06,108.91 524.3321,134.8235 522.9021,156.1135" fill="none" id="RegistrationProcess-to-RegistrationController" style="stroke:#181818;stroke-width:1;"/><polygon fill="#181818" points="522.5,162.1,527.0942,153.3883,522.8351,157.1112,519.1121,152.8522,522.5,162.1" style="stroke:#181818;stroke-width:1;"/></g><!--link AssignmentProcess to AssignmentController--><g class="link" data-entity-1="AssignmentProcess" data-entity-2="AssignmentController" data-source-line="24" data-uid="lnk19" id="link_AssignmentProcess_AssignmentController"><path d="M742.5,87.58 C743.94,108.91 745.6679,134.8235 747.0979,156.1135" fill="none" id="AssignmentProcess-to-AssignmentController" style="stroke:#181818;stroke-width:1;"/><polygon fill="#181818" points="747.5,162.1,750.8879,152.8522,747.1649,157.1112,742.9058,153.3883,747.5,162.1" style="stroke:#181818;stroke-width:1;"/></g><!--link SessionProcess to SessionController--><g class="link" data-entity-1="SessionProcess" data-entity-2="SessionController" data-source-line="25" data-uid="lnk20" id="link_SessionProcess_SessionController"><path d="M942.33,87.58 C946.44,108.91 951.4554,134.9183 955.5554,156.2083" fill="none" id="SessionProcess-to-SessionController" style="stroke:#181818;stroke-width:1;"/><polygon fill="#181818" points="956.69,162.1,958.9159,152.506,955.7445,157.1902,951.0602,154.0188,956.69,162.1" style="stroke:#181818;stroke-width:1;"/></g><!--link CertificateProcess to CertificateController--><g class="link" data-entity-1="CertificateProcess" data-entity-2="CertificateController" data-source-line="26" data-uid="lnk21" id="link_CertificateProcess_CertificateController"><path d="M1137.15,87.58 C1143.94,108.91 1152.2793,135.0929 1159.0593,156.3829" fill="none" id="CertificateProcess-to-CertificateController" style="stroke:#181818;stroke-width:1;"/><polygon fill="#181818" points="1160.88,162.1,1161.9604,152.3106,1159.3628,157.3358,1154.3376,154.7381,1160.88,162.1" style="stroke:#181818;stroke-width:1;"/></g><!--SRC=[TP512i8m44NtFKKku1M4KhU2AAx4HOXZ6zfaoinq9TxTbXOIqd4N_lyPtlpXtiVHaWqcO4JN4GOmGXDKrMXTRrim5q87p6TymM0-bJ6FEmFLatIRyroq1YTYo9Khj9w5h7YCkLup-pO6Y9Ahj_bH11iWyM_lhAIvtyHrWcMEWjLW5C9X0Ch82Z67Awp4LnWROZa-KURE3BhhoHmEHnspg6yDxi7LJjVmluMKkjSF-fhb7TQiihbsdGrRBUG7]--></g></svg>