<svg xmlns="http://www.w3.org/2000/svg" xmlns:xlink="http://www.w3.org/1999/xlink" contentStyleType="text/css" data-diagram-type="DESCRIPTION" height="370px" preserveAspectRatio="none" style="width:721px;height:370px;background:#FFFFFF;" version="1.1" viewBox="0 0 721 370" width="721px" zoomAndPan="magnify"><defs/><g><!--cluster CloudServer--><g class="cluster" data-entity="CloudServer" data-source-line="5" data-uid="ent0002" id="cluster_CloudServer"><polygon fill="none" points="16,16,26,6,704,6,704,343.59,694,353.59,16,353.59,16,16" style="stroke:#181818;stroke-width:1;"/><line style="stroke:#181818;stroke-width:1;" x1="694" x2="704" y1="16" y2="6"/><line style="stroke:#181818;stroke-width:1;" x1="16" x2="694" y1="16" y2="16"/><line style="stroke:#181818;stroke-width:1;" x1="694" x2="694" y1="16" y2="353.59"/><text fill="#000000" font-family="sans-serif" font-size="14" font-weight="bold" lengthAdjust="spacing" textLength="96.6875" x="307.6563" y="31.9951">CloudServer</text></g><!--cluster DockerContainer--><g class="cluster" data-entity="DockerContainer" data-source-line="8" data-uid="ent0003" id="cluster_DockerContainer"><polygon fill="none" points="40,64,50,54,680,54,680,319.59,670,329.59,40,329.59,40,64" style="stroke:#181818;stroke-width:1;"/><line style="stroke:#181818;stroke-width:1;" x1="670" x2="680" y1="64" y2="54"/><line style="stroke:#181818;stroke-width:1;" x1="40" x2="670" y1="64" y2="64"/><line style="stroke:#181818;stroke-width:1;" x1="670" x2="670" y1="64" y2="329.59"/><text fill="#000000" font-family="sans-serif" font-size="14" font-weight="bold" lengthAdjust="spacing" textLength="132.4121" x="289.7939" y="79.9951">DockerContainer</text></g><!--cluster LMSBackend--><g class="cluster" data-entity="LMSBackend" data-source-line="11" data-uid="ent0004" id="cluster_LMSBackend"><rect fill="none" height="203.59" rx="2.5" ry="2.5" style="stroke:#181818;stroke-width:1;" width="592" x="64" y="102"/><polygon fill="none" points="639,107,639,121,651,121,651,113,645,107,639,107" style="stroke:#181818;stroke-width:1;"/><line style="stroke:#181818;stroke-width:1;" x1="645" x2="645" y1="107" y2="113"/><line style="stroke:#181818;stroke-width:1;" x1="651" x2="645" y1="113" y2="113"/><text fill="#000000" font-family="sans-serif" font-size="14" font-weight="bold" lengthAdjust="spacing" textLength="100.1465" x="309.9268" y="116.9951">LMSBackend</text></g><!--entity UserAuthProcess--><g class="entity" data-entity="UserAuthProcess" data-source-line="12" data-uid="ent0005" id="entity_UserAuthProcess"><rect fill="#F1F1F1" height="46.2969" rx="2.5" ry="2.5" style="stroke:#181818;stroke-width:0.5;" width="158.3848" x="88.81" y="137"/><rect fill="#F1F1F1" height="10" style="stroke:#181818;stroke-width:0.5;" width="15" x="227.1948" y="142"/><rect fill="#F1F1F1" height="2" style="stroke:#181818;stroke-width:0.5;" width="4" x="225.1948" y="144"/><rect fill="#F1F1F1" height="2" style="stroke:#181818;stroke-width:0.5;" width="4" x="225.1948" y="148"/><text fill="#000000" font-family="sans-serif" font-size="14" lengthAdjust="spacing" textLength="118.3848" x="103.81" y="169.9951">UserAuthProcess</text></g><!--entity CourseProcess--><g class="entity" data-entity="CourseProcess" data-source-line="13" data-uid="ent0006" id="entity_CourseProcess"><rect fill="#F1F1F1" height="46.2969" rx="2.5" ry="2.5" style="stroke:#181818;stroke-width:0.5;" width="142.5391" x="281.73" y="137"/><rect fill="#F1F1F1" height="10" style="stroke:#181818;stroke-width:0.5;" width="15" x="404.2691" y="142"/><rect fill="#F1F1F1" height="2" style="stroke:#181818;stroke-width:0.5;" width="4" x="402.2691" y="144"/><rect fill="#F1F1F1" height="2" style="stroke:#181818;stroke-width:0.5;" width="4" x="402.2691" y="148"/><text fill="#000000" font-family="sans-serif" font-size="14" lengthAdjust="spacing" textLength="102.5391" x="296.73" y="169.9951">CourseProcess</text></g><!--entity RegistrationProcess--><g class="entity" data-entity="RegistrationProcess" data-source-line="14" data-uid="ent0007" id="entity_RegistrationProcess"><rect fill="#F1F1F1" height="46.2969" rx="2.5" ry="2.5" style="stroke:#181818;stroke-width:0.5;" width="178.7148" x="459.64" y="137"/><rect fill="#F1F1F1" height="10" style="stroke:#181818;stroke-width:0.5;" width="15" x="618.3548" y="142"/><rect fill="#F1F1F1" height="2" style="stroke:#181818;stroke-width:0.5;" width="4" x="616.3548" y="144"/><rect fill="#F1F1F1" height="2" style="stroke:#181818;stroke-width:0.5;" width="4" x="616.3548" y="148"/><text fill="#000000" font-family="sans-serif" font-size="14" lengthAdjust="spacing" textLength="138.7148" x="474.64" y="169.9951">RegistrationProcess</text></g><!--entity AssignmentProcess--><g class="entity" data-entity="AssignmentProcess" data-source-line="15" data-uid="ent0008" id="entity_AssignmentProcess"><rect fill="#F1F1F1" height="46.2969" rx="2.5" ry="2.5" style="stroke:#181818;stroke-width:0.5;" width="176.0898" x="79.96" y="243.29"/><rect fill="#F1F1F1" height="10" style="stroke:#181818;stroke-width:0.5;" width="15" x="236.0498" y="248.29"/><rect fill="#F1F1F1" height="2" style="stroke:#181818;stroke-width:0.5;" width="4" x="234.0498" y="250.29"/><rect fill="#F1F1F1" height="2" style="stroke:#181818;stroke-width:0.5;" width="4" x="234.0498" y="254.29"/><text fill="#000000" font-family="sans-serif" font-size="14" lengthAdjust="spacing" textLength="136.0898" x="94.96" y="276.2851">AssignmentProcess</text></g><!--entity SessionProcess--><g class="entity" data-entity="SessionProcess" data-source-line="16" data-uid="ent0009" id="entity_SessionProcess"><rect fill="#F1F1F1" height="46.2969" rx="2.5" ry="2.5" style="stroke:#181818;stroke-width:0.5;" width="147.0781" x="291.46" y="243.29"/><rect fill="#F1F1F1" height="10" style="stroke:#181818;stroke-width:0.5;" width="15" x="418.5381" y="248.29"/><rect fill="#F1F1F1" height="2" style="stroke:#181818;stroke-width:0.5;" width="4" x="416.5381" y="250.29"/><rect fill="#F1F1F1" height="2" style="stroke:#181818;stroke-width:0.5;" width="4" x="416.5381" y="254.29"/><text fill="#000000" font-family="sans-serif" font-size="14" lengthAdjust="spacing" textLength="107.0781" x="306.46" y="276.2851">SessionProcess</text></g><!--entity CertificateProcess--><g class="entity" data-entity="CertificateProcess" data-source-line="17" data-uid="ent0010" id="entity_CertificateProcess"><rect fill="#F1F1F1" height="46.2969" rx="2.5" ry="2.5" style="stroke:#181818;stroke-width:0.5;" width="166.3828" x="473.81" y="243.29"/><rect fill="#F1F1F1" height="10" style="stroke:#181818;stroke-width:0.5;" width="15" x="620.1928" y="248.29"/><rect fill="#F1F1F1" height="2" style="stroke:#181818;stroke-width:0.5;" width="4" x="618.1928" y="250.29"/><rect fill="#F1F1F1" height="2" style="stroke:#181818;stroke-width:0.5;" width="4" x="618.1928" y="254.29"/><text fill="#000000" font-family="sans-serif" font-size="14" lengthAdjust="spacing" textLength="126.3828" x="488.81" y="276.2851">CertificateProcess</text></g><!--SRC=[ROv1JiCm44NtFiKecvwZX2L8Y8WLOZ4uqzXgCeF63WYXde0DMtQmX2FGPNkHt0GdKKAfAbcMv__vxpkiFJ-WOWEDi5YdqX14RSc4sGaEItdoNC4Awq36B63_rcrVsG5NRl-5m58IvBMqPK7wI6e68JjGCdWn0Eaiu5picXHouOYUqwlUVOm4Avow9HKTic0qip4tnqRYmEof5vV56QO5BWTUqstV8w16lq8RmRhkv_CPxdVVKyD86yBpLlO7cUW0jpU1TDb6TwLYAOIxIS-brK37wZLLFaJ5w8MFlMK8lkA6E1uxHHfE17Bgl-Ojnlyz6sFwQ_CB]--></g></svg>