<svg xmlns="http://www.w3.org/2000/svg" xmlns:xlink="http://www.w3.org/1999/xlink" contentStyleType="text/css" data-diagram-type="DESCRIPTION" height="507px" preserveAspectRatio="none" style="width:640px;height:507px;background:#FFFFFF;" version="1.1" viewBox="0 0 640 507" width="640px" zoomAndPan="magnify"><defs/><g><!--cluster ClientDevice--><g class="cluster" data-entity="ClientDevice" data-source-line="3" data-uid="ent0002" id="cluster_ClientDevice"><polygon fill="none" points="267,16,277,6,441,6,441,205.6,431,215.6,267,215.6,267,16" style="stroke:#181818;stroke-width:1;"/><line style="stroke:#181818;stroke-width:1;" x1="431" x2="441" y1="16" y2="6"/><line style="stroke:#181818;stroke-width:1;" x1="267" x2="431" y1="16" y2="16"/><line style="stroke:#181818;stroke-width:1;" x1="431" x2="431" y1="16" y2="215.6"/><text fill="#000000" font-family="sans-serif" font-size="14" font-weight="bold" lengthAdjust="spacing" textLength="98.8613" x="300.5693" y="31.9951">ClientDevice</text></g><!--cluster CloudServer--><g class="cluster" data-entity="CloudServer" data-source-line="7" data-uid="ent0006" id="cluster_CloudServer"><polygon fill="none" points="16,274.6,26,264.6,451,264.6,451,480.19,441,490.19,16,490.19,16,274.6" style="stroke:#181818;stroke-width:1;"/><line style="stroke:#181818;stroke-width:1;" x1="441" x2="451" y1="274.6" y2="264.6"/><line style="stroke:#181818;stroke-width:1;" x1="16" x2="441" y1="274.6" y2="274.6"/><line style="stroke:#181818;stroke-width:1;" x1="441" x2="441" y1="274.6" y2="490.19"/><text fill="#000000" font-family="sans-serif" font-size="14" font-weight="bold" lengthAdjust="spacing" textLength="96.6875" x="181.1563" y="290.5951">CloudServer</text></g><!--entity WebBrowser--><g class="entity" data-entity="WebBrowser" data-source-line="4" data-uid="ent0003" id="entity_WebBrowser"><rect fill="#F1F1F1" height="46.2969" rx="2.5" ry="2.5" style="stroke:#181818;stroke-width:0.5;" width="128.3818" x="289.81" y="46"/><rect fill="#F1F1F1" height="10" style="stroke:#181818;stroke-width:0.5;" width="15" x="398.1918" y="51"/><rect fill="#F1F1F1" height="2" style="stroke:#181818;stroke-width:0.5;" width="4" x="396.1918" y="53"/><rect fill="#F1F1F1" height="2" style="stroke:#181818;stroke-width:0.5;" width="4" x="396.1918" y="57"/><text fill="#000000" font-family="sans-serif" font-size="14" lengthAdjust="spacing" textLength="88.3818" x="304.81" y="78.9951">WebBrowser</text></g><!--entity ClientWebApp--><g class="entity" data-entity="ClientWebApp" data-source-line="4" data-uid="ent0004" id="entity_ClientWebApp"><rect fill="#F1F1F1" height="46.2969" rx="2.5" ry="2.5" style="stroke:#181818;stroke-width:0.5;" width="139.2236" x="284.39" y="153.3"/><rect fill="#F1F1F1" height="10" style="stroke:#181818;stroke-width:0.5;" width="15" x="403.6136" y="158.3"/><rect fill="#F1F1F1" height="2" style="stroke:#181818;stroke-width:0.5;" width="4" x="401.6136" y="160.3"/><rect fill="#F1F1F1" height="2" style="stroke:#181818;stroke-width:0.5;" width="4" x="401.6136" y="164.3"/><text fill="#000000" font-family="sans-serif" font-size="14" lengthAdjust="spacing" textLength="99.2236" x="299.39" y="186.2951">ClientWebApp</text></g><!--entity DockerContainer--><g class="entity" data-entity="DockerContainer" data-source-line="8" data-uid="ent0007" id="entity_DockerContainer"><rect fill="#F1F1F1" height="46.2969" rx="2.5" ry="2.5" style="stroke:#181818;stroke-width:0.5;" width="157.9336" x="275.03" y="304.6"/><rect fill="#F1F1F1" height="10" style="stroke:#181818;stroke-width:0.5;" width="15" x="412.9636" y="309.6"/><rect fill="#F1F1F1" height="2" style="stroke:#181818;stroke-width:0.5;" width="4" x="410.9636" y="311.6"/><rect fill="#F1F1F1" height="2" style="stroke:#181818;stroke-width:0.5;" width="4" x="410.9636" y="315.6"/><text fill="#000000" font-family="sans-serif" font-size="14" lengthAdjust="spacing" textLength="117.9336" x="290.03" y="337.5951">DockerContainer</text></g><!--entity LMSBackend--><g class="entity" data-entity="LMSBackend" data-source-line="8" data-uid="ent0008" id="entity_LMSBackend"><rect fill="#F1F1F1" height="46.2969" rx="2.5" ry="2.5" style="stroke:#181818;stroke-width:0.5;" width="129.127" x="32.44" y="427.89"/><rect fill="#F1F1F1" height="10" style="stroke:#181818;stroke-width:0.5;" width="15" x="141.567" y="432.89"/><rect fill="#F1F1F1" height="2" style="stroke:#181818;stroke-width:0.5;" width="4" x="139.567" y="434.89"/><rect fill="#F1F1F1" height="2" style="stroke:#181818;stroke-width:0.5;" width="4" x="139.567" y="438.89"/><text fill="#000000" font-family="sans-serif" font-size="14" lengthAdjust="spacing" textLength="89.127" x="47.44" y="460.8851">LMSBackend</text></g><!--entity SQLServer--><g class="entity" data-entity="SQLServer" data-source-line="9" data-uid="ent0010" id="entity_SQLServer"><rect fill="#F1F1F1" height="46.2969" rx="2.5" ry="2.5" style="stroke:#181818;stroke-width:0.5;" width="113.6162" x="196.19" y="427.89"/><rect fill="#F1F1F1" height="10" style="stroke:#181818;stroke-width:0.5;" width="15" x="289.8062" y="432.89"/><rect fill="#F1F1F1" height="2" style="stroke:#181818;stroke-width:0.5;" width="4" x="287.8062" y="434.89"/><rect fill="#F1F1F1" height="2" style="stroke:#181818;stroke-width:0.5;" width="4" x="287.8062" y="438.89"/><text fill="#000000" font-family="sans-serif" font-size="14" lengthAdjust="spacing" textLength="73.6162" x="211.19" y="460.8851">SQLServer</text></g><!--entity AWSS3--><g class="entity" data-entity="AWSS3" data-source-line="10" data-uid="ent0012" id="entity_AWSS3"><rect fill="#F1F1F1" height="46.2969" rx="2.5" ry="2.5" style="stroke:#181818;stroke-width:0.5;" width="90.1006" x="344.95" y="427.89"/><rect fill="#F1F1F1" height="10" style="stroke:#181818;stroke-width:0.5;" width="15" x="415.0506" y="432.89"/><rect fill="#F1F1F1" height="2" style="stroke:#181818;stroke-width:0.5;" width="4" x="413.0506" y="434.89"/><rect fill="#F1F1F1" height="2" style="stroke:#181818;stroke-width:0.5;" width="4" x="413.0506" y="438.89"/><text fill="#000000" font-family="sans-serif" font-size="14" lengthAdjust="spacing" textLength="50.1006" x="359.95" y="460.8851">AWSS3</text></g><!--entity ZoomGoogleMeet--><g class="entity" data-entity="ZoomGoogleMeet" data-source-line="14" data-uid="ent0015" id="entity_ZoomGoogleMeet"><rect fill="#F1F1F1" height="46.2969" rx="2.5" ry="2.5" style="stroke:#181818;stroke-width:0.5;" width="164.5234" x="469.74" y="427.89"/><rect fill="#F1F1F1" height="10" style="stroke:#181818;stroke-width:0.5;" width="15" x="614.2634" y="432.89"/><rect fill="#F1F1F1" height="2" style="stroke:#181818;stroke-width:0.5;" width="4" x="612.2634" y="434.89"/><rect fill="#F1F1F1" height="2" style="stroke:#181818;stroke-width:0.5;" width="4" x="612.2634" y="438.89"/><text fill="#000000" font-family="sans-serif" font-size="14" lengthAdjust="spacing" textLength="124.5234" x="484.74" y="460.8851">ZoomGoogleMeet</text></g><g class="entity" data-entity="GMN17" data-source-line="17" data-uid="ent0018" id="entity_GMN17"><path d="M468.18,307.61 L468.18,323.74 L433.12,327.74 L468.18,331.74 L468.18,347.8756 A0,0 0 0 0 468.18,347.8756 L623.8201,347.8756 A0,0 0 0 0 623.8201,347.8756 L623.8201,317.61 L613.8201,307.61 L468.18,307.61 A0,0 0 0 0 468.18,307.61" fill="#FAFAFA" style="stroke:#181818;stroke-width:0.5;"/><path d="M613.8201,307.61 L613.8201,317.61 L623.8201,317.61 L613.8201,307.61" fill="#FAFAFA" style="stroke:#181818;stroke-width:0.5;"/><text fill="#000000" font-family="sans-serif" font-size="13" lengthAdjust="spacing" textLength="119.1772" x="474.18" y="324.6769">Runs LMSBackend</text><text fill="#000000" font-family="sans-serif" font-size="13" lengthAdjust="spacing" textLength="134.6401" x="474.18" y="339.8097">Supports 1000 users</text></g><!--link WebBrowser to ClientWebApp--><g class="link" data-entity-1="WebBrowser" data-entity-2="ClientWebApp" data-source-line="4" data-uid="lnk5" id="link_WebBrowser_ClientWebApp"><path d="M354,97.74 C354,115.51 354,130.14 354,147.9" fill="none" id="WebBrowser-ClientWebApp" style="stroke:#181818;stroke-width:1;stroke-dasharray:7.0,7.0;"/><rect fill="#FFFFFF" height="10" style="stroke:#181818;stroke-width:1.5;" width="10" x="349" y="87.74"/><rect fill="#FFFFFF" height="10" style="stroke:#181818;stroke-width:1.5;" width="10" x="349" y="147.9"/></g><!--link DockerContainer to LMSBackend--><g class="link" data-entity-1="DockerContainer" data-entity-2="LMSBackend" data-source-line="8" data-uid="lnk9" id="link_DockerContainer_LMSBackend"><path d="M301.7381,353.4137 C255.7281,375.1237 195.5114,403.5454 149.4414,425.2954" fill="none" id="DockerContainer-LMSBackend" style="stroke:#181818;stroke-width:1;stroke-dasharray:7.0,7.0;"/><rect fill="#FFFFFF" height="10" style="stroke:#181818;stroke-width:1.5;" width="10" x="301.26" y="346.28"/><rect fill="#FFFFFF" height="10" style="stroke:#181818;stroke-width:1.5;" width="10" x="139.92" y="422.43"/></g><!--link DockerContainer to SQLServer--><g class="link" data-entity-1="DockerContainer" data-entity-2="SQLServer" data-source-line="9" data-uid="lnk11" id="link_DockerContainer_SQLServer"><path d="M335.24,351.28 C317.1,373.06 293.6103,401.28 275.5003,423.02" fill="none" id="DockerContainer-to-SQLServer" style="stroke:#181818;stroke-width:1;"/><polygon fill="#181818" points="271.66,427.63,280.4938,423.2751,274.8602,423.7883,274.3471,418.1548,271.66,427.63" style="stroke:#181818;stroke-width:1;"/></g><!--link DockerContainer to AWSS3--><g class="link" data-entity-1="DockerContainer" data-entity-2="AWSS3" data-source-line="10" data-uid="lnk13" id="link_DockerContainer_AWSS3"><path d="M360.69,351.28 C367.15,373.06 375.181,400.1385 381.641,421.8785" fill="none" id="DockerContainer-to-AWSS3" style="stroke:#181818;stroke-width:1;"/><polygon fill="#181818" points="383.35,427.63,384.6208,417.8635,381.9258,422.8371,376.9521,420.1422,383.35,427.63" style="stroke:#181818;stroke-width:1;"/></g><!--link ClientWebApp to DockerContainer--><g class="link" data-entity-1="ClientWebApp" data-entity-2="DockerContainer" data-source-line="13" data-uid="lnk14" id="link_ClientWebApp_DockerContainer"><path d="M354,199.8 C354,227.94 354,270.02 354,298.24" fill="none" id="ClientWebApp-to-DockerContainer" style="stroke:#181818;stroke-width:1;"/><polygon fill="#181818" points="354,304.24,358,295.24,354,299.24,350,295.24,354,304.24" style="stroke:#181818;stroke-width:1;"/><text fill="#000000" font-family="sans-serif" font-size="13" lengthAdjust="spacing" textLength="51.8477" x="355" y="244.6669">Internet</text></g><!--link DockerContainer to ZoomGoogleMeet--><g class="link" data-entity-1="DockerContainer" data-entity-2="ZoomGoogleMeet" data-source-line="14" data-uid="lnk16" id="link_DockerContainer_ZoomGoogleMeet"><path d="M390.78,351.28 C426.23,372.99 474.4639,402.5455 509.9639,424.2955" fill="none" id="DockerContainer-to-ZoomGoogleMeet" style="stroke:#181818;stroke-width:1;"/><polygon fill="#181818" points="515.08,427.43,509.4955,419.3175,510.8166,424.8179,505.3161,426.139,515.08,427.43" style="stroke:#181818;stroke-width:1;"/><text fill="#000000" font-family="sans-serif" font-size="13" lengthAdjust="spacing" textLength="94.3452" x="465" y="393.9569">OnlineMeeting</text></g><!--SRC=[VP1DQy9048Rl-oi6F2iflVKW-06be9Iw1y6GGvfCus8oiypEwa7yxzqqK6crFSwyx_FEHpWuygMK7NHCNEs5EmILYCOGrmYBrY7f4e-kGZWRW7oBxtFXKq0fO3IPZ20VFAa_yxumbs-IOsrHZYW3kEJgWB9WqjBHbLwjxRnC2jN5NTTuF8NSlgs6g7yyiwsrZr_pVsuqg3VC4xoGeX2g-IDmnzmzCpSjhX6r9rwfJNfVEMhwEnL1NBDNu0_u5P8MtKGASBqlTMpqdaK3F6HP1Z4zCPYaG9_q2G00]--></g></svg>