<svg xmlns="http://www.w3.org/2000/svg" xmlns:xlink="http://www.w3.org/1999/xlink" contentStyleType="text/css" data-diagram-type="DESCRIPTION" height="377px" preserveAspectRatio="none" style="width:573px;height:377px;background:#FFFFFF;" version="1.1" viewBox="0 0 573 377" width="573px" zoomAndPan="magnify"><defs/><g><!--cluster Server--><g class="cluster" data-entity="Server" data-source-line="3" data-uid="ent0002" id="cluster_Server"><polygon fill="none" points="16,16,26,6,326,6,326,350.74,316,360.74,16,360.74,16,16" style="stroke:#181818;stroke-width:1;"/><line style="stroke:#181818;stroke-width:1;" x1="316" x2="326" y1="16" y2="6"/><line style="stroke:#181818;stroke-width:1;" x1="16" x2="316" y1="16" y2="16"/><line style="stroke:#181818;stroke-width:1;" x1="316" x2="316" y1="16" y2="360.74"/><text fill="#000000" font-family="sans-serif" font-size="14" font-weight="bold" lengthAdjust="spacing" textLength="52.0078" x="140.9961" y="31.9951">Server</text></g><!--entity Docker--><g class="entity" data-entity="Docker" data-source-line="4" data-uid="ent0003" id="entity_Docker"><rect fill="#F1F1F1" height="46.2969" rx="2.5" ry="2.5" style="stroke:#181818;stroke-width:0.5;" width="89.5195" x="213.24" y="46"/><rect fill="#F1F1F1" height="10" style="stroke:#181818;stroke-width:0.5;" width="15" x="282.7595" y="51"/><rect fill="#F1F1F1" height="2" style="stroke:#181818;stroke-width:0.5;" width="4" x="280.7595" y="53"/><rect fill="#F1F1F1" height="2" style="stroke:#181818;stroke-width:0.5;" width="4" x="280.7595" y="57"/><text fill="#000000" font-family="sans-serif" font-size="14" lengthAdjust="spacing" textLength="49.5195" x="228.24" y="78.9951">Docker</text></g><!--entity Backend--><g class="entity" data-entity="Backend" data-source-line="5" data-uid="ent0004" id="entity_Backend"><rect fill="#F1F1F1" height="46.2969" rx="2.5" ry="2.5" style="stroke:#181818;stroke-width:0.5;" width="100.3613" x="207.82" y="169.29"/><rect fill="#F1F1F1" height="10" style="stroke:#181818;stroke-width:0.5;" width="15" x="288.1813" y="174.29"/><rect fill="#F1F1F1" height="2" style="stroke:#181818;stroke-width:0.5;" width="4" x="286.1813" y="176.29"/><rect fill="#F1F1F1" height="2" style="stroke:#181818;stroke-width:0.5;" width="4" x="286.1813" y="180.29"/><text fill="#000000" font-family="sans-serif" font-size="14" lengthAdjust="spacing" textLength="60.3613" x="222.82" y="202.2851">Backend</text></g><!--entity SQLServer--><g class="entity" data-entity="SQLServer" data-source-line="6" data-uid="ent0005" id="entity_SQLServer"><rect fill="#F1F1F1" height="46.2969" rx="2.5" ry="2.5" style="stroke:#181818;stroke-width:0.5;" width="113.6162" x="32.19" y="298.44"/><rect fill="#F1F1F1" height="10" style="stroke:#181818;stroke-width:0.5;" width="15" x="125.8062" y="303.44"/><rect fill="#F1F1F1" height="2" style="stroke:#181818;stroke-width:0.5;" width="4" x="123.8062" y="305.44"/><rect fill="#F1F1F1" height="2" style="stroke:#181818;stroke-width:0.5;" width="4" x="123.8062" y="309.44"/><text fill="#000000" font-family="sans-serif" font-size="14" lengthAdjust="spacing" textLength="73.6162" x="47.19" y="331.4351">SQLServer</text></g><!--entity AWSS3--><g class="entity" data-entity="AWSS3" data-source-line="7" data-uid="ent0006" id="entity_AWSS3"><rect fill="#F1F1F1" height="46.2969" rx="2.5" ry="2.5" style="stroke:#181818;stroke-width:0.5;" width="90.1006" x="180.95" y="298.44"/><rect fill="#F1F1F1" height="10" style="stroke:#181818;stroke-width:0.5;" width="15" x="251.0506" y="303.44"/><rect fill="#F1F1F1" height="2" style="stroke:#181818;stroke-width:0.5;" width="4" x="249.0506" y="305.44"/><rect fill="#F1F1F1" height="2" style="stroke:#181818;stroke-width:0.5;" width="4" x="249.0506" y="309.44"/><text fill="#000000" font-family="sans-serif" font-size="14" lengthAdjust="spacing" textLength="50.1006" x="195.95" y="331.4351">AWSS3</text></g><!--entity ZoomGoogleMeet--><g class="entity" data-entity="ZoomGoogleMeet" data-source-line="13" data-uid="ent0010" id="entity_ZoomGoogleMeet"><ellipse cx="412" cy="321.59" fill="#F1F1F1" rx="8" ry="8" style="stroke:#181818;stroke-width:0.5;"/><text fill="#000000" font-family="sans-serif" font-size="14" lengthAdjust="spacing" textLength="124.5234" x="349.7383" y="351.5851">ZoomGoogleMeet</text></g><!--entity Client--><g class="entity" data-entity="Client" data-source-line="14" data-uid="ent0012" id="entity_Client"><ellipse cx="546" cy="321.59" fill="#F1F1F1" rx="8" ry="8" style="stroke:#181818;stroke-width:0.5;"/><text fill="#000000" font-family="sans-serif" font-size="14" lengthAdjust="spacing" textLength="40.5303" x="525.7349" y="351.5851">Client</text></g><g class="entity" data-entity="GMN14" data-source-line="17" data-uid="ent0015" id="entity_GMN14"><path d="M343.27,172.31 L343.27,188.44 L308.47,192.44 L343.27,196.44 L343.27,212.5756 A0,0 0 0 0 343.27,212.5756 L476.7378,212.5756 A0,0 0 0 0 476.7378,212.5756 L476.7378,182.31 L466.7378,172.31 L343.27,172.31 A0,0 0 0 0 343.27,172.31" fill="#FAFAFA" style="stroke:#181818;stroke-width:0.5;"/><path d="M466.7378,172.31 L466.7378,182.31 L476.7378,182.31 L466.7378,172.31" fill="#FAFAFA" style="stroke:#181818;stroke-width:0.5;"/><text fill="#000000" font-family="sans-serif" font-size="13" lengthAdjust="spacing" textLength="112.4678" x="349.27" y="189.3769">Uses JWT, BCrypt</text><text fill="#000000" font-family="sans-serif" font-size="13" lengthAdjust="spacing" textLength="93.8564" x="349.27" y="204.5097">Latency &lt; 10s</text></g><!--link Docker to Backend--><g class="link" data-entity-1="Docker" data-entity-2="Backend" data-source-line="10" data-uid="lnk7" id="link_Docker_Backend"><path d="M258,92.68 C258,114.46 258,141.29 258,163.03" fill="none" id="Docker-to-Backend" style="stroke:#181818;stroke-width:1;"/><polygon fill="#181818" points="258,169.03,262,160.03,258,164.03,254,160.03,258,169.03" style="stroke:#181818;stroke-width:1;"/><text fill="#000000" font-family="sans-serif" font-size="13" lengthAdjust="spacing" textLength="32.2842" x="259" y="135.3569">Runs</text></g><!--link Backend to SQLServer--><g class="link" data-entity-1="Backend" data-entity-2="SQLServer" data-source-line="11" data-uid="lnk8" id="link_Backend_SQLServer"><path d="M207.49,212.71 C188.71,221.2 167.89,232.3 151,245.59 C132.15,260.43 118.5893,276.9776 107.1793,293.1476" fill="none" id="Backend-to-SQLServer" style="stroke:#181818;stroke-width:1;"/><polygon fill="#181818" points="103.72,298.05,112.1772,293.0026,106.6027,293.9647,105.6406,288.3902,103.72,298.05" style="stroke:#181818;stroke-width:1;"/><text fill="#000000" font-family="sans-serif" font-size="13" lengthAdjust="spacing" textLength="81.9038" x="152" y="258.6569">DataStorage</text></g><!--link Backend to AWSS3--><g class="link" data-entity-1="Backend" data-entity-2="AWSS3" data-source-line="12" data-uid="lnk9" id="link_Backend_AWSS3"><path d="M252.35,215.88 C246.54,238.98 238.9941,268.9614 233.1641,292.1314" fill="none" id="Backend-to-AWSS3" style="stroke:#181818;stroke-width:1;"/><polygon fill="#181818" points="231.7,297.95,237.7752,290.1981,232.9201,293.1011,230.017,288.246,231.7,297.95" style="stroke:#181818;stroke-width:1;"/><text fill="#000000" font-family="sans-serif" font-size="13" lengthAdjust="spacing" textLength="118.2124" x="246" y="258.6569">DocumentStorage</text></g><!--link Backend to ZoomGoogleMeet--><g class="link" data-entity-1="Backend" data-entity-2="ZoomGoogleMeet" data-source-line="13" data-uid="lnk11" id="link_Backend_ZoomGoogleMeet"><path d="M308.54,208.81 C329.69,217.13 353.4,229.14 371,245.59 C392.04,265.25 402.8373,292.4864 407.7573,307.2864" fill="none" id="Backend-to-ZoomGoogleMeet" style="stroke:#181818;stroke-width:1;"/><polygon fill="#181818" points="409.65,312.98,410.6066,303.1777,408.0727,308.2353,403.0151,305.7014,409.65,312.98" style="stroke:#181818;stroke-width:1;"/><text fill="#000000" font-family="sans-serif" font-size="13" lengthAdjust="spacing" textLength="94.3452" x="386" y="258.6569">OnlineMeeting</text></g><!--link Backend to Client--><g class="link" data-entity-1="Backend" data-entity-2="Client" data-source-line="14" data-uid="lnk13" id="link_Backend_Client"><path d="M308.66,210.76 C314.47,212.5 320.34,214.16 326,215.59 C397.4,233.7 426.26,207 489,245.59 C516.3,262.39 532.6364,292.01 539.9964,307.51" fill="none" id="Backend-to-Client" style="stroke:#181818;stroke-width:1;"/><polygon fill="#181818" points="542.57,312.93,542.3229,303.0842,540.4253,308.4133,535.0962,306.5157,542.57,312.93" style="stroke:#181818;stroke-width:1;"/><text fill="#000000" font-family="sans-serif" font-size="13" lengthAdjust="spacing" textLength="51.8477" x="509" y="258.6569">Internet</text></g><!--SRC=[RO_DYW9138Jl_HHv08KLRx8ih0gYACjkAuBYeHdZs3YTI3gp8EAxspt-WE2jAlMbIEB1qz692n2OkDWB1mIL6eqXtY9Ob7yKE1k0zP2B0yecoxvBahQDjh_J6zMuxwMrtOsv67F3eTt-WZiEFVYhAPg7pT5pEuL3fyugYolnXMawSyv57P3q7RDY3YFcii8PeYRuXofFZV5Klg23ogUIX8n9KGWr_we8uikz0kyUvwPt5X4ZJ9Rp5lG7SZfg6asT8XKd-8JEHpIvCozV0G00]--></g></svg>