<svg xmlns="http://www.w3.org/2000/svg" xmlns:xlink="http://www.w3.org/1999/xlink" contentStyleType="text/css" data-diagram-type="DESCRIPTION" height="238px" preserveAspectRatio="none" style="width:316px;height:238px;background:#FFFFFF;" version="1.1" viewBox="0 0 316 238" width="316px" zoomAndPan="magnify"><defs/><g><!--cluster Database--><g class="cluster" data-entity="Database" data-source-line="3" data-uid="ent0002" id="cluster_Database"><polygon fill="none" points="16,16,26,6,166,6,166,98.3,156,108.3,16,108.3,16,16" style="stroke:#181818;stroke-width:1;"/><line style="stroke:#181818;stroke-width:1;" x1="156" x2="166" y1="16" y2="6"/><line style="stroke:#181818;stroke-width:1;" x1="16" x2="156" y1="16" y2="16"/><line style="stroke:#181818;stroke-width:1;" x1="156" x2="156" y1="16" y2="108.3"/><text fill="#000000" font-family="sans-serif" font-size="14" font-weight="bold" lengthAdjust="spacing" textLength="74.5049" x="49.7476" y="31.9951">Database</text></g><!--entity SQLServer--><g class="entity" data-entity="SQLServer" data-source-line="4" data-uid="ent0003" id="entity_SQLServer"><rect fill="#F1F1F1" height="46.2969" rx="2.5" ry="2.5" style="stroke:#181818;stroke-width:0.5;" width="113.6162" x="34.19" y="46"/><rect fill="#F1F1F1" height="10" style="stroke:#181818;stroke-width:0.5;" width="15" x="127.8062" y="51"/><rect fill="#F1F1F1" height="2" style="stroke:#181818;stroke-width:0.5;" width="4" x="125.8062" y="53"/><rect fill="#F1F1F1" height="2" style="stroke:#181818;stroke-width:0.5;" width="4" x="125.8062" y="57"/><text fill="#000000" font-family="sans-serif" font-size="14" lengthAdjust="spacing" textLength="73.6162" x="49.19" y="78.9951">SQLServer</text></g><!--entity Backend--><g class="entity" data-entity="Backend" data-source-line="7" data-uid="ent0004" id="entity_Backend"><ellipse cx="91" cy="200.3" fill="#F1F1F1" rx="8" ry="8" style="stroke:#181818;stroke-width:0.5;"/><text fill="#000000" font-family="sans-serif" font-size="14" lengthAdjust="spacing" textLength="60.3613" x="60.8193" y="230.2951">Backend</text></g><g class="entity" data-entity="GMN6" data-source-line="10" data-uid="ent0007" id="entity_GMN6"><path d="M182.66,49.02 L182.66,65.15 L148.22,69.15 L182.66,73.15 L182.66,89.2856 A0,0 0 0 0 182.66,89.2856 L309.3358,89.2856 A0,0 0 0 0 309.3358,89.2856 L309.3358,59.02 L299.3358,49.02 L182.66,49.02 A0,0 0 0 0 182.66,49.02" fill="#FAFAFA" style="stroke:#181818;stroke-width:0.5;"/><path d="M299.3358,49.02 L299.3358,59.02 L309.3358,59.02 L299.3358,49.02" fill="#FAFAFA" style="stroke:#181818;stroke-width:0.5;"/><text fill="#000000" font-family="sans-serif" font-size="13" lengthAdjust="spacing" textLength="105.6758" x="188.66" y="66.0869">Stores LMS data</text><text fill="#000000" font-family="sans-serif" font-size="13" lengthAdjust="spacing" textLength="104.7046" x="188.66" y="81.2197">High availability</text></g><!--reverse link SQLServer to Backend--><g class="link" data-entity-1="SQLServer" data-entity-2="Backend" data-source-line="7" data-uid="lnk5" id="link_SQLServer_Backend"><path d="M91,98.65 C91,128.13 91,172.35 91,191.54" fill="none" id="SQLServer-backto-Backend" style="stroke:#181818;stroke-width:1;"/><polygon fill="#181818" points="91,92.65,87,101.65,91,97.65,95,101.65,91,92.65" style="stroke:#181818;stroke-width:1;"/><text fill="#000000" font-family="sans-serif" font-size="13" lengthAdjust="spacing" textLength="70.5479" x="92" y="137.3669">QueryData</text></g><!--SRC=[FSmn3i8m44JHVayn5yW541MYe0X5v19HREA5M8bjjDv4YX1t9svIZlJdbIca3oj7n9poC6gE0jD5Y5BsWYiRzrm4Nm8UhckTw2hwf1_HiN1k6bnuc2HvdD0jebizLiC46jwZ8Rzm77RBMLOfQEyElgR0RS_0AuUP-p07swXoLVW3]--></g></svg>