<svg xmlns="http://www.w3.org/2000/svg" xmlns:xlink="http://www.w3.org/1999/xlink" contentStyleType="text/css" data-diagram-type="DESCRIPTION" height="305px" preserveAspectRatio="none" style="width:474px;height:305px;background:#FFFFFF;" version="1.1" viewBox="0 0 474 305" width="474px" zoomAndPan="magnify"><defs/><g><!--entity ClientWebApp--><g class="entity" data-entity="ClientWebApp" data-source-line="3" data-uid="ent0002" id="entity_ClientWebApp"><rect fill="#F1F1F1" height="46.2969" rx="2.5" ry="2.5" style="stroke:#181818;stroke-width:0.5;" width="139.2236" x="144.44" y="7"/><rect fill="#F1F1F1" height="10" style="stroke:#181818;stroke-width:0.5;" width="15" x="263.6636" y="12"/><rect fill="#F1F1F1" height="2" style="stroke:#181818;stroke-width:0.5;" width="4" x="261.6636" y="14"/><rect fill="#F1F1F1" height="2" style="stroke:#181818;stroke-width:0.5;" width="4" x="261.6636" y="18"/><text fill="#000000" font-family="sans-serif" font-size="14" lengthAdjust="spacing" textLength="99.2236" x="159.44" y="39.9951">ClientWebApp</text></g><!--entity CloudServer--><g class="entity" data-entity="CloudServer" data-source-line="3" data-uid="ent0003" id="entity_CloudServer"><rect fill="#F1F1F1" height="46.2969" rx="2.5" ry="2.5" style="stroke:#181818;stroke-width:0.5;" width="125.9004" x="151.1" y="130.3"/><rect fill="#F1F1F1" height="10" style="stroke:#181818;stroke-width:0.5;" width="15" x="257.0004" y="135.3"/><rect fill="#F1F1F1" height="2" style="stroke:#181818;stroke-width:0.5;" width="4" x="255.0004" y="137.3"/><rect fill="#F1F1F1" height="2" style="stroke:#181818;stroke-width:0.5;" width="4" x="255.0004" y="141.3"/><text fill="#000000" font-family="sans-serif" font-size="14" lengthAdjust="spacing" textLength="85.9004" x="166.1" y="163.2951">CloudServer</text></g><!--entity AWSS3--><g class="entity" data-entity="AWSS3" data-source-line="4" data-uid="ent0005" id="entity_AWSS3"><rect fill="#F1F1F1" height="46.2969" rx="2.5" ry="2.5" style="stroke:#181818;stroke-width:0.5;" width="90.1006" x="7" y="253.59"/><rect fill="#F1F1F1" height="10" style="stroke:#181818;stroke-width:0.5;" width="15" x="77.1006" y="258.59"/><rect fill="#F1F1F1" height="2" style="stroke:#181818;stroke-width:0.5;" width="4" x="75.1006" y="260.59"/><rect fill="#F1F1F1" height="2" style="stroke:#181818;stroke-width:0.5;" width="4" x="75.1006" y="264.59"/><text fill="#000000" font-family="sans-serif" font-size="14" lengthAdjust="spacing" textLength="50.1006" x="22" y="286.5851">AWSS3</text></g><!--entity ZoomGoogleMeet--><g class="entity" data-entity="ZoomGoogleMeet" data-source-line="5" data-uid="ent0007" id="entity_ZoomGoogleMeet"><rect fill="#F1F1F1" height="46.2969" rx="2.5" ry="2.5" style="stroke:#181818;stroke-width:0.5;" width="164.5234" x="131.79" y="253.59"/><rect fill="#F1F1F1" height="10" style="stroke:#181818;stroke-width:0.5;" width="15" x="276.3134" y="258.59"/><rect fill="#F1F1F1" height="2" style="stroke:#181818;stroke-width:0.5;" width="4" x="274.3134" y="260.59"/><rect fill="#F1F1F1" height="2" style="stroke:#181818;stroke-width:0.5;" width="4" x="274.3134" y="264.59"/><text fill="#000000" font-family="sans-serif" font-size="14" lengthAdjust="spacing" textLength="124.5234" x="146.79" y="286.5851">ZoomGoogleMeet</text></g><!--entity SQLServer--><g class="entity" data-entity="SQLServer" data-source-line="6" data-uid="ent0009" id="entity_SQLServer"><rect fill="#F1F1F1" height="46.2969" rx="2.5" ry="2.5" style="stroke:#181818;stroke-width:0.5;" width="113.6162" x="331.24" y="253.59"/><rect fill="#F1F1F1" height="10" style="stroke:#181818;stroke-width:0.5;" width="15" x="424.8562" y="258.59"/><rect fill="#F1F1F1" height="2" style="stroke:#181818;stroke-width:0.5;" width="4" x="422.8562" y="260.59"/><rect fill="#F1F1F1" height="2" style="stroke:#181818;stroke-width:0.5;" width="4" x="422.8562" y="264.59"/><text fill="#000000" font-family="sans-serif" font-size="14" lengthAdjust="spacing" textLength="73.6162" x="346.24" y="286.5851">SQLServer</text></g><g class="entity" data-entity="GMN11" data-source-line="9" data-uid="ent0012" id="entity_GMN11"><path d="M312.23,133.31 L312.23,149.44 L277.3,153.44 L312.23,157.44 L312.23,173.5756 A0,0 0 0 0 312.23,173.5756 L467.8701,173.5756 A0,0 0 0 0 467.8701,173.5756 L467.8701,143.31 L457.8701,133.31 L312.23,133.31 A0,0 0 0 0 312.23,133.31" fill="#FAFAFA" style="stroke:#181818;stroke-width:0.5;"/><path d="M457.8701,133.31 L457.8701,143.31 L467.8701,143.31 L457.8701,133.31" fill="#FAFAFA" style="stroke:#181818;stroke-width:0.5;"/><text fill="#000000" font-family="sans-serif" font-size="13" lengthAdjust="spacing" textLength="134.6401" x="318.23" y="150.3769">Supports 1000 users</text><text fill="#000000" font-family="sans-serif" font-size="13" lengthAdjust="spacing" textLength="93.8564" x="318.23" y="165.5097">Latency &lt; 10s</text></g><!--link ClientWebApp to CloudServer--><g class="link" data-entity-1="ClientWebApp" data-entity-2="CloudServer" data-source-line="3" data-uid="lnk4" id="link_ClientWebApp_CloudServer"><path d="M214.05,53.68 C214.05,75.47 214.05,102.29 214.05,124.03" fill="none" id="ClientWebApp-to-CloudServer" style="stroke:#181818;stroke-width:1;"/><polygon fill="#181818" points="214.05,130.03,218.05,121.03,214.05,125.03,210.05,121.03,214.05,130.03" style="stroke:#181818;stroke-width:1;"/><text fill="#000000" font-family="sans-serif" font-size="13" lengthAdjust="spacing" textLength="51.8477" x="215.05" y="96.3669">Internet</text></g><!--link CloudServer to AWSS3--><g class="link" data-entity-1="CloudServer" data-entity-2="AWSS3" data-source-line="4" data-uid="lnk6" id="link_CloudServer_AWSS3"><path d="M150.91,170 C128.38,178.01 104.13,189.74 86.05,206.59 C72.55,219.18 65.7126,232.6305 60.4526,247.5705" fill="none" id="CloudServer-to-AWSS3" style="stroke:#181818;stroke-width:1;"/><polygon fill="#181818" points="58.46,253.23,65.2218,246.0692,60.1205,248.5138,57.6759,243.4124,58.46,253.23" style="stroke:#181818;stroke-width:1;"/><text fill="#000000" font-family="sans-serif" font-size="13" lengthAdjust="spacing" textLength="118.2124" x="87.05" y="219.6569">DocumentStorage</text></g><!--link CloudServer to ZoomGoogleMeet--><g class="link" data-entity-1="CloudServer" data-entity-2="ZoomGoogleMeet" data-source-line="5" data-uid="lnk8" id="link_CloudServer_ZoomGoogleMeet"><path d="M214.05,176.98 C214.05,198.76 214.05,225.59 214.05,247.33" fill="none" id="CloudServer-to-ZoomGoogleMeet" style="stroke:#181818;stroke-width:1;"/><polygon fill="#181818" points="214.05,253.33,218.05,244.33,214.05,248.33,210.05,244.33,214.05,253.33" style="stroke:#181818;stroke-width:1;"/><text fill="#000000" font-family="sans-serif" font-size="13" lengthAdjust="spacing" textLength="94.3452" x="215.05" y="219.6569">OnlineMeeting</text></g><!--link CloudServer to SQLServer--><g class="link" data-entity-1="CloudServer" data-entity-2="SQLServer" data-source-line="6" data-uid="lnk10" id="link_CloudServer_SQLServer"><path d="M266.94,176.98 C283.92,185.24 302.37,195.35 318.05,206.59 C336.93,220.13 351.4655,234.3681 364.7255,248.8981" fill="none" id="CloudServer-to-SQLServer" style="stroke:#181818;stroke-width:1;"/><polygon fill="#181818" points="368.77,253.33,365.6578,243.9858,365.3996,249.6367,359.7486,249.3785,368.77,253.33" style="stroke:#181818;stroke-width:1;"/><text fill="#000000" font-family="sans-serif" font-size="13" lengthAdjust="spacing" textLength="81.9038" x="340.05" y="219.6569">DataStorage</text></g><!--SRC=[ROv12i8m44NtESLSGAYu4n74WWYAI1O5nKMiOmqsCs4o4RozRK5KS3d___UOTFSKdRW0WOdhct10KCbep77PUYIjyBo8yGIZqHowYFF5eZnGJZ25DIaAePhVOfWkAcid_QZaEeTEP9N5DVXlUs0EA-QcnIsYzj2EMa_3vQdvXzZzvlD7wTIzzOPO4SGtDmM-mXTf06oEaKKJZ8kYW9nGKfTkd2BLJvXrSJ985-WTBm00]--></g></svg>