<svg xmlns="http://www.w3.org/2000/svg" xmlns:xlink="http://www.w3.org/1999/xlink" contentStyleType="text/css" data-diagram-type="DESCRIPTION" height="811px" preserveAspectRatio="none" style="width:533px;height:811px;background:#FFFFFF;" version="1.1" viewBox="0 0 533 811" width="533px" zoomAndPan="magnify"><defs/><g><!--entity Auth--><g class="entity" data-entity="Auth" data-source-line="13" data-uid="ent0002" id="entity_Auth"><rect fill="#FDF6E3" height="61.9063" rx="2.5" ry="2.5" style="stroke:#000000;stroke-width:0.5;" width="181.4375" x="178.13" y="7"/><text fill="#000000" font-family="sans-serif" font-size="12" lengthAdjust="spacing" textLength="161.4375" x="188.13" y="28.1387">UserAuthenticationProcess</text><text fill="#000000" font-family="sans-serif" font-size="12" lengthAdjust="spacing" textLength="81.6973" x="228.0001" y="42.1074">- &#273;&#259;ng nh&#7853;p()</text><text fill="#000000" font-family="sans-serif" font-size="12" lengthAdjust="spacing" textLength="65.5664" x="236.0655" y="56.0762">- &#273;&#259;ng k&#253;()</text></g><!--entity Course--><g class="entity" data-entity="Course" data-source-line="14" data-uid="ent0003" id="entity_Course"><rect fill="#FDF6E3" height="75.875" rx="2.5" ry="2.5" style="stroke:#000000;stroke-width:0.5;" width="186.9395" x="252.38" y="145.9"/><text fill="#000000" font-family="sans-serif" font-size="12" lengthAdjust="spacing" textLength="166.9395" x="262.38" y="167.0387">CourseManagementProcess</text><text fill="#000000" font-family="sans-serif" font-size="12" lengthAdjust="spacing" textLength="95.332" x="298.1837" y="181.0074">- t&#7841;o kh&#243;a h&#7885;c()</text><text fill="#000000" font-family="sans-serif" font-size="12" lengthAdjust="spacing" textLength="128.584" x="281.5577" y="194.9762">- c&#7853;p nh&#7853;t kh&#243;a h&#7885;c()</text><text fill="#000000" font-family="sans-serif" font-size="12" lengthAdjust="spacing" textLength="97.7285" x="296.9855" y="208.9449">- x&#243;a kh&#243;a h&#7885;c()</text></g><!--entity StudentReg--><g class="entity" data-entity="StudentReg" data-source-line="15" data-uid="ent0004" id="entity_StudentReg"><rect fill="#FDF6E3" height="75.875" rx="2.5" ry="2.5" style="stroke:#000000;stroke-width:0.5;" width="187.9824" x="168.86" y="298.78"/><text fill="#000000" font-family="sans-serif" font-size="12" lengthAdjust="spacing" textLength="166.1367" x="179.7829" y="319.9187">StudentRegistrationProcess</text><text fill="#000000" font-family="sans-serif" font-size="12" lengthAdjust="spacing" textLength="123.9902" x="200.8561" y="333.8874">- &#273;&#259;ng k&#253; kh&#243;a h&#7885;c()</text><text fill="#000000" font-family="sans-serif" font-size="12" lengthAdjust="spacing" textLength="167.9824" x="178.86" y="347.8562">- l&#224;m b&#224;i ki&#7875;m tra &#273;&#7847;u v&#224;o()</text><text fill="#000000" font-family="sans-serif" font-size="12" lengthAdjust="spacing" textLength="148.043" x="188.8297" y="361.8249">- l&#7845;y th&#244;ng tin h&#7885;c vi&#234;n()</text></g><!--entity Assignment--><g class="entity" data-entity="Assignment" data-source-line="16" data-uid="ent0005" id="entity_Assignment"><rect fill="#FDF6E3" height="75.875" rx="2.5" ry="2.5" style="stroke:#000000;stroke-width:0.5;" width="215.6973" x="7" y="451.65"/><text fill="#000000" font-family="sans-serif" font-size="12" lengthAdjust="spacing" textLength="195.6973" x="17" y="472.7887">AssignmentManagementProcess</text><text fill="#000000" font-family="sans-serif" font-size="12" lengthAdjust="spacing" textLength="82.5176" x="73.5898" y="486.7574">- t&#7841;o b&#224;i t&#7853;p()</text><text fill="#000000" font-family="sans-serif" font-size="12" lengthAdjust="spacing" textLength="85.6816" x="72.0078" y="500.7262">- n&#7897;p b&#224;i t&#7853;p()</text><text fill="#000000" font-family="sans-serif" font-size="12" lengthAdjust="spacing" textLength="96.3633" x="66.667" y="514.6949">- ch&#7845;m b&#224;i t&#7853;p()</text></g><!--entity Session--><g class="entity" data-entity="Session" data-source-line="17" data-uid="ent0006" id="entity_Session"><rect fill="#FDF6E3" height="75.875" rx="2.5" ry="2.5" style="stroke:#000000;stroke-width:0.5;" width="190.8301" x="220.43" y="604.53"/><text fill="#000000" font-family="sans-serif" font-size="12" lengthAdjust="spacing" textLength="170.8301" x="230.43" y="625.6687">SessionManagementProcess</text><text fill="#000000" font-family="sans-serif" font-size="12" lengthAdjust="spacing" textLength="91.9805" x="269.8548" y="639.6374">- t&#7841;o bu&#7893;i h&#7885;c()</text><text fill="#000000" font-family="sans-serif" font-size="12" lengthAdjust="spacing" textLength="81.5273" x="275.0814" y="653.6062">- &#273;i&#7875;m danh()</text><text fill="#000000" font-family="sans-serif" font-size="12" lengthAdjust="spacing" textLength="105.8789" x="262.9056" y="667.5749">- th&#234;m nh&#7853;n x&#233;t()</text></g><!--entity Notify--><g class="entity" data-entity="Notify" data-source-line="18" data-uid="ent0007" id="entity_Notify"><rect fill="#FDF6E3" height="47.9375" rx="2.5" ry="2.5" style="stroke:#000000;stroke-width:0.5;" width="133.6016" x="27.05" y="757.4"/><text fill="#000000" font-family="sans-serif" font-size="12" lengthAdjust="spacing" textLength="113.6016" x="37.05" y="778.5387">NotificationSystem</text><text fill="#000000" font-family="sans-serif" font-size="12" lengthAdjust="spacing" textLength="100.8809" x="43.4104" y="792.5074">- g&#7917;i th&#244;ng b&#225;o()</text></g><!--entity Cert--><g class="entity" data-entity="Cert" data-source-line="19" data-uid="ent0008" id="entity_Cert"><rect fill="#FDF6E3" height="47.9375" rx="2.5" ry="2.5" style="stroke:#000000;stroke-width:0.5;" width="295.3789" x="211.16" y="757.4"/><text fill="#000000" font-family="sans-serif" font-size="12" lengthAdjust="spacing" textLength="160.916" x="278.3914" y="778.5387">CertificateIssuanceProcess</text><text fill="#000000" font-family="sans-serif" font-size="12" lengthAdjust="spacing" textLength="275.3789" x="221.16" y="792.5074">- c&#7845;p ch&#7913;ng ch&#7881; d&#7921;a tr&#234;n &#273;i&#7875;m danh, nh&#7853;n x&#233;t</text></g><!--link Auth to Course--><g class="link" data-entity-1="Auth" data-entity-2="Course" data-source-line="22" data-uid="lnk9" id="link_Auth_Course"><path d="M284.99,69.11 C296.9,91.36 310.34,116.4793 323.06,140.2593" fill="none" id="Auth-to-Course" style="stroke:#181818;stroke-width:1;"/><polygon fill="#181818" points="325.89,145.55,325.1721,135.7273,323.5317,141.1411,318.1179,139.5007,325.89,145.55" style="stroke:#181818;stroke-width:1;"/><text fill="#000000" font-family="sans-serif" font-size="13" lengthAdjust="spacing" textLength="24.6289" x="309.85" y="111.9669">JWT</text></g><!--link Auth to StudentReg--><g class="link" data-entity-1="Auth" data-entity-2="StudentReg" data-source-line="23" data-uid="lnk10" id="link_Auth_StudentReg"><path d="M246.48,68.95 C232.65,89.45 216.17,117.89 208.85,145.9 C200.32,178.53 201.45,188.88 208.85,221.78 C214.93,248.79 225.2871,271.6735 237.1471,293.2235" fill="none" id="Auth-to-StudentReg" style="stroke:#181818;stroke-width:1;"/><polygon fill="#181818" points="240.04,298.48,239.205,288.6666,237.6292,294.0996,232.1963,292.5238,240.04,298.48" style="stroke:#181818;stroke-width:1;"/><text fill="#000000" font-family="sans-serif" font-size="13" lengthAdjust="spacing" textLength="24.6289" x="209.85" y="188.4069">JWT</text></g><!--link Auth to Assignment--><g class="link" data-entity-1="Auth" data-entity-2="Assignment" data-source-line="24" data-uid="lnk11" id="link_Auth_Assignment"><path d="M235.42,69.25 C226.91,78.18 218.34,88.4 211.85,98.9 C200.17,117.8 201.64,124.75 194.85,145.9 C173.28,213.11 168.17,230.11 151.85,298.78 C139.35,351.37 128.9782,406.9705 122.2282,445.3905" fill="none" id="Auth-to-Assignment" style="stroke:#181818;stroke-width:1;"/><polygon fill="#181818" points="121.19,451.3,126.687,443.1279,122.0552,446.3754,118.8077,441.7436,121.19,451.3" style="stroke:#181818;stroke-width:1;"/><text fill="#000000" font-family="sans-serif" font-size="13" lengthAdjust="spacing" textLength="24.6289" x="164.85" y="264.8469">JWT</text></g><!--link Auth to Session--><g class="link" data-entity-1="Auth" data-entity-2="Session" data-source-line="25" data-uid="lnk12" id="link_Auth_Session"><path d="M359.87,59.48 C421.53,79.39 491.85,116.61 491.85,182.84 C491.85,182.84 491.85,182.84 491.85,490.59 C491.85,541.7 453.7442,576.2615 410.0942,601.1115" fill="none" id="Auth-to-Session" style="stroke:#181818;stroke-width:1;"/><polygon fill="#181818" points="404.88,604.08,414.6803,603.1035,409.2252,601.6063,410.7224,596.1511,404.88,604.08" style="stroke:#181818;stroke-width:1;"/><text fill="#000000" font-family="sans-serif" font-size="13" lengthAdjust="spacing" textLength="24.6289" x="492.85" y="341.2869">JWT</text></g><!--link Course to StudentReg--><g class="link" data-entity-1="Course" data-entity-2="StudentReg" data-source-line="27" data-uid="lnk13" id="link_Course_StudentReg"><path d="M313.75,222.01 C306.61,231.35 299.49,241.62 293.85,251.78 C285.7,266.44 280.8481,277.9916 275.7181,293.0216" fill="none" id="Course-to-StudentReg" style="stroke:#181818;stroke-width:1;"/><polygon fill="#181818" points="273.78,298.7,280.4727,291.4746,275.3951,293.968,272.9016,288.8904,273.78,298.7" style="stroke:#181818;stroke-width:1;"/><text fill="#000000" font-family="sans-serif" font-size="13" lengthAdjust="spacing" textLength="170.8853" x="294.85" y="264.8469">cung c&#7845;p d&#7919; li&#7879;u kh&#243;a h&#7885;c</text></g><!--link StudentReg to Assignment--><g class="link" data-entity-1="StudentReg" data-entity-2="Assignment" data-source-line="29" data-uid="lnk14" id="link_StudentReg_Assignment"><path d="M226.26,375.01 C203.49,398.22 178.5119,423.687 155.7219,446.917" fill="none" id="StudentReg-to-Assignment" style="stroke:#181818;stroke-width:1;"/><polygon fill="#181818" points="151.52,451.2,160.6782,447.5767,155.0216,447.6308,154.9675,441.9742,151.52,451.2" style="stroke:#181818;stroke-width:1;"/><text fill="#000000" font-family="sans-serif" font-size="13" lengthAdjust="spacing" textLength="73.8677" x="194.85" y="417.7169">g&#225;n b&#224;i t&#7853;p</text></g><!--link StudentReg to Session--><g class="link" data-entity-1="StudentReg" data-entity-2="Session" data-source-line="30" data-uid="lnk15" id="link_StudentReg_Session"><path d="M270.91,374.84 C272.93,384.52 275.04,394.97 276.85,404.65 C289.97,474.9 302.1092,551.3695 309.2892,598.1195" fill="none" id="StudentReg-to-Session" style="stroke:#181818;stroke-width:1;"/><polygon fill="#181818" points="310.2,604.05,312.7874,594.5471,309.441,599.1079,304.8801,595.7615,310.2,604.05" style="stroke:#181818;stroke-width:1;"/><text fill="#000000" font-family="sans-serif" font-size="13" lengthAdjust="spacing" textLength="111.7251" x="298.85" y="494.1569">&#273;&#259;ng k&#253; bu&#7893;i h&#7885;c</text></g><!--link Assignment to Session--><g class="link" data-entity-1="Assignment" data-entity-2="Session" data-source-line="32" data-uid="lnk16" id="link_Assignment_Session"><path d="M114.57,527.98 C116.29,543.95 120.89,561.8 131.85,574.53 C144.44,589.15 176.3075,602.1565 214.2575,614.1165" fill="none" id="Assignment-to-Session" style="stroke:#181818;stroke-width:1;"/><polygon fill="#181818" points="219.98,615.92,212.5985,609.3998,215.2112,614.4171,210.1939,617.0298,219.98,615.92" style="stroke:#181818;stroke-width:1;"/><text fill="#000000" font-family="sans-serif" font-size="13" lengthAdjust="spacing" textLength="156.9077" x="132.85" y="570.5969">&#273;&#7891;ng b&#7897; b&#224;i t&#7853;p/l&#7883;ch h&#7885;c</text></g><!--link Assignment to Notify--><g class="link" data-entity-1="Assignment" data-entity-2="Notify" data-source-line="33" data-uid="lnk17" id="link_Assignment_Notify"><path d="M112.15,527.88 C107.75,588.57 99.6035,700.9657 95.9735,751.0757" fill="none" id="Assignment-to-Notify" style="stroke:#181818;stroke-width:1;"/><polygon fill="#181818" points="95.54,757.06,100.1798,748.3725,95.9013,752.0731,92.2007,747.7945,95.54,757.06" style="stroke:#181818;stroke-width:1;"/><text fill="#000000" font-family="sans-serif" font-size="13" lengthAdjust="spacing" textLength="90.3208" x="107.85" y="647.0269">g&#7917;i th&#244;ng b&#225;o</text></g><!--link Session to Notify--><g class="link" data-entity-1="Session" data-entity-2="Notify" data-source-line="35" data-uid="lnk18" id="link_Session_Notify"><path d="M220.28,669.97 C194.21,680 167.06,693.27 144.85,710.4 C128.54,722.98 118.1509,736.9754 109.1609,752.0654" fill="none" id="Session-to-Notify" style="stroke:#181818;stroke-width:1;"/><polygon fill="#181818" points="106.09,757.22,114.1327,751.5354,108.6491,752.9245,107.2599,747.4409,106.09,757.22" style="stroke:#181818;stroke-width:1;"/><text fill="#000000" font-family="sans-serif" font-size="13" lengthAdjust="spacing" textLength="182.2856" x="145.85" y="723.4669">th&#244;ng b&#225;o l&#7883;ch h&#7885;c/nh&#7853;n x&#233;t</text></g><!--link Session to Cert--><g class="link" data-entity-1="Session" data-entity-2="Cert" data-source-line="36" data-uid="lnk19" id="link_Session_Cert"><path d="M327.6,680.88 C335.26,705.26 343.2116,730.5859 349.7716,751.4659" fill="none" id="Session-to-Cert" style="stroke:#181818;stroke-width:1;"/><polygon fill="#181818" points="351.57,757.19,352.6885,747.4049,350.0713,752.4199,345.0563,749.8027,351.57,757.19" style="stroke:#181818;stroke-width:1;"/><text fill="#000000" font-family="sans-serif" font-size="13" lengthAdjust="spacing" textLength="183.4409" x="341.85" y="723.4669">d&#7919; li&#7879;u &#273;i&#7875;m danh, nh&#7853;n x&#233;t</text></g><!--SRC=[VLD1QnD15BxlhtZKWorOYWeUF0XjjQ2YYAbuyJAPdUmEsPq9CxErKJpr828UYdZmbXo2D1X4z9IbU9ZyaVqdlibikxC9RGu9UVlUzttlUzyQEG0ZeIkDaJd4N35gk1IHxdCn88haC22qJnBMCSECWNjCH9Ane25cFL9avf0TczsC9o9dmW35BwQ2BfsIMBxb8e4UoNGuVua9xoF0pnuI9aeM8jwNcLHmu-3XmRr7T_qpgMAcV7qlmyPbzK0Aq-7l6Do-S_a_xFaGHJTXtuuf65xD_mamoluKAT3KpaGQDG8sNcccTWkJedfEYNFYXPAKQVr6RCFYT762-aLQpMU3pQsWrBVdcriRG3IuuH1mNnPAisT4e8NEc03ELFEnX7vg_n18g_8BzP3KeNiIi_xqsFrlLPUqdYOaxfWYHhwNBE7Qg2jMGTth59aTvT2r8mvzNfKdERf5SA2Q_oZWo8vatLND9qCmgVsBE8OBZm17t4v5BQgH40hRrReEoJMkBEbDuxEeok-3jIf5aoPvg-oFS4dHSWGPq8NhM8kg_CP3BnQdteAOYDHNSEDfxiyZy1fdvc9PZnuIFfU6z-eOTORQiDm195KvunV6TUrOrW3Bxc4hEqpL0EonrWKHb0MICIUJWREWF4CWz_i9ughyJLowfw8b_LOes0S6iTrRyHJV1-FiFNMQc8GCFVYAWCSe4wDm7hb4m_RsWpfZS1-Ul3vigisHLvyqLrYRyLxLvQW6NaEZXLjikIOkzWioNEXZ4GOsYeA1DSx4ZaKGZjNUHaNmDeGHYA80RdN2kzJ5N0OKErbLVgPfFRuoxG_iTAqc0DUeaLjzGGU4m3l1CLkJxgWu5vfrPGh-0m00]--></g></svg>