<svg xmlns="http://www.w3.org/2000/svg" xmlns:xlink="http://www.w3.org/1999/xlink" contentStyleType="text/css" data-diagram-type="DESCRIPTION" height="509px" preserveAspectRatio="none" style="width:2012px;height:509px;background:#FFFFFF;" version="1.1" viewBox="0 0 2012 509" width="2012px" zoomAndPan="magnify"><defs/><g><!--cluster PC1--><g class="cluster" data-entity="PC1" data-source-line="9" data-uid="ent0002" id="cluster_PC1"><polygon fill="#EEEEEE" points="447,68.57,457,58.57,693,58.57,693,316.61,683,326.61,447,326.61,447,68.57" style="stroke:#3A3A3A;stroke-width:1;"/><line style="stroke:#3A3A3A;stroke-width:1;" x1="683" x2="693" y1="68.57" y2="58.57"/><line style="stroke:#3A3A3A;stroke-width:1;" x1="447" x2="683" y1="68.57" y2="68.57"/><line style="stroke:#3A3A3A;stroke-width:1;" x1="683" x2="683" y1="68.57" y2="326.61"/><text fill="#3A3A3A" font-family="sans-serif" font-size="14" font-weight="bold" lengthAdjust="spacing" textLength="142.1191" x="494.9404" y="84.5651">M&#225;y t&#237;nh &#273;&#7875; b&#224;n 1</text></g><!--cluster PC2--><g class="cluster" data-entity="PC2" data-source-line="13" data-uid="ent0006" id="cluster_PC2"><polygon fill="#EEEEEE" points="733,68.57,743,58.57,1116,58.57,1116,183.16,1106,193.16,733,193.16,733,68.57" style="stroke:#3A3A3A;stroke-width:1;"/><line style="stroke:#3A3A3A;stroke-width:1;" x1="1106" x2="1116" y1="68.57" y2="58.57"/><line style="stroke:#3A3A3A;stroke-width:1;" x1="733" x2="1106" y1="68.57" y2="68.57"/><line style="stroke:#3A3A3A;stroke-width:1;" x1="1106" x2="1106" y1="68.57" y2="193.16"/><text fill="#3A3A3A" font-family="sans-serif" font-size="14" font-weight="bold" lengthAdjust="spacing" textLength="142.1191" x="849.4404" y="84.5651">M&#225;y t&#237;nh &#273;&#7875; b&#224;n 2</text></g><!--cluster PC3--><g class="cluster" data-entity="PC3" data-source-line="17" data-uid="ent0009" id="cluster_PC3"><polygon fill="#EEEEEE" points="16,60.42,26,50.42,407,50.42,407,191.31,397,201.31,16,201.31,16,60.42" style="stroke:#3A3A3A;stroke-width:1;"/><line style="stroke:#3A3A3A;stroke-width:1;" x1="397" x2="407" y1="60.42" y2="50.42"/><line style="stroke:#3A3A3A;stroke-width:1;" x1="16" x2="397" y1="60.42" y2="60.42"/><line style="stroke:#3A3A3A;stroke-width:1;" x1="397" x2="397" y1="60.42" y2="201.31"/><text fill="#3A3A3A" font-family="sans-serif" font-size="14" font-weight="bold" lengthAdjust="spacing" textLength="142.1191" x="136.4404" y="76.4151">M&#225;y t&#237;nh &#273;&#7875; b&#224;n 3</text></g><!--cluster Server--><g class="cluster" data-entity="Server" data-source-line="21" data-uid="ent0012" id="cluster_Server"><polygon fill="#EEEEEE" points="129,401.61,139,391.61,511,391.61,511,478.74,501,488.74,129,488.74,129,401.61" style="stroke:#3A3A3A;stroke-width:1;"/><line style="stroke:#3A3A3A;stroke-width:1;" x1="501" x2="511" y1="401.61" y2="391.61"/><line style="stroke:#3A3A3A;stroke-width:1;" x1="129" x2="501" y1="401.61" y2="401.61"/><line style="stroke:#3A3A3A;stroke-width:1;" x1="501" x2="501" y1="401.61" y2="488.74"/><text fill="#3A3A3A" font-family="sans-serif" font-size="14" font-weight="bold" lengthAdjust="spacing" textLength="134.9619" x="248.519" y="417.6051">M&#225;y ch&#7911; &#272;&#259;ng k&#253;</text></g><!--entity ?ng d?ng Sinh vi?n\nQu? tr?nh ??ng k?--><g class="entity" data-entity="&#7912;ng d&#7909;ng Sinh vi&#234;n\nQu&#225; tr&#236;nh &#272;&#259;ng k&#253;" data-source-line="10" data-uid="ent0003" id="entity_&#7912;ng d&#7909;ng Sinh vi&#234;n\nQu&#225; tr&#236;nh &#272;&#259;ng k&#253;"><rect fill="#F1F1F1" height="62.5938" rx="2.5" ry="2.5" style="stroke:#181818;stroke-width:0.5;" width="178.8242" x="470.59" y="106.57"/><rect fill="#F1F1F1" height="10" style="stroke:#181818;stroke-width:0.5;" width="15" x="629.4142" y="111.57"/><rect fill="#F1F1F1" height="2" style="stroke:#181818;stroke-width:0.5;" width="4" x="627.4142" y="113.57"/><rect fill="#F1F1F1" height="2" style="stroke:#181818;stroke-width:0.5;" width="4" x="627.4142" y="117.57"/><text fill="#000000" font-family="sans-serif" font-size="14" lengthAdjust="spacing" textLength="138.8242" x="485.59" y="139.5651">&#7912;ng d&#7909;ng Sinh vi&#234;n</text><text fill="#000000" font-family="sans-serif" font-size="14" lengthAdjust="spacing" textLength="128.2832" x="485.59" y="155.862">Qu&#225; tr&#236;nh &#272;&#259;ng k&#253;</text></g><!--entity Internet--><g class="entity" data-entity="Internet" data-source-line="10" data-uid="ent0004" id="entity_Internet"><rect fill="#F1F1F1" height="46.2969" rx="2.5" ry="2.5" style="stroke:#181818;stroke-width:0.5;" width="95.8359" x="491.08" y="256.31"/><rect fill="#F1F1F1" height="10" style="stroke:#181818;stroke-width:0.5;" width="15" x="566.9159" y="261.31"/><rect fill="#F1F1F1" height="2" style="stroke:#181818;stroke-width:0.5;" width="4" x="564.9159" y="263.31"/><rect fill="#F1F1F1" height="2" style="stroke:#181818;stroke-width:0.5;" width="4" x="564.9159" y="267.31"/><text fill="#000000" font-family="sans-serif" font-size="14" lengthAdjust="spacing" textLength="55.8359" x="506.08" y="289.3051">Internet</text></g><!--entity H? th?ng Danh m?c kh?a h?c\nQu? tr?nh Truy c?p Danh m?c kh?a h?c--><g class="entity" data-entity="H&#7879; th&#7889;ng Danh m&#7909;c kh&#243;a h&#7885;c\nQu&#225; tr&#236;nh Truy c&#7853;p Danh m&#7909;c kh&#243;a h&#7885;c" data-source-line="14" data-uid="ent0007" id="entity_H&#7879; th&#7889;ng Danh m&#7909;c kh&#243;a h&#7885;c\nQu&#225; tr&#236;nh Truy c&#7853;p Danh m&#7909;c kh&#243;a h&#7885;c"><rect fill="#F1F1F1" height="62.5938" rx="2.5" ry="2.5" style="stroke:#181818;stroke-width:0.5;" width="315.707" x="757.15" y="106.57"/><rect fill="#F1F1F1" height="10" style="stroke:#181818;stroke-width:0.5;" width="15" x="1052.857" y="111.57"/><rect fill="#F1F1F1" height="2" style="stroke:#181818;stroke-width:0.5;" width="4" x="1050.857" y="113.57"/><rect fill="#F1F1F1" height="2" style="stroke:#181818;stroke-width:0.5;" width="4" x="1050.857" y="117.57"/><text fill="#000000" font-family="sans-serif" font-size="14" lengthAdjust="spacing" textLength="208.6533" x="772.15" y="139.5651">H&#7879; th&#7889;ng Danh m&#7909;c kh&#243;a h&#7885;c</text><text fill="#000000" font-family="sans-serif" font-size="14" lengthAdjust="spacing" textLength="275.707" x="772.15" y="155.862">Qu&#225; tr&#236;nh Truy c&#7853;p Danh m&#7909;c kh&#243;a h&#7885;c</text></g><!--entity H? th?ng Thanh to?n\nQu? tr?nh ??ng ??ng k?\nQu? tr?nh Truy c?p H? th?ng Thanh to?n--><g class="entity" data-entity="H&#7879; th&#7889;ng Thanh to&#225;n\nQu&#225; tr&#236;nh &#272;&#243;ng &#273;&#259;ng k&#253;\nQu&#225; tr&#236;nh Truy c&#7853;p H&#7879; th&#7889;ng Thanh to&#225;n" data-source-line="18" data-uid="ent0010" id="entity_H&#7879; th&#7889;ng Thanh to&#225;n\nQu&#225; tr&#236;nh &#272;&#243;ng &#273;&#259;ng k&#253;\nQu&#225; tr&#236;nh Truy c&#7853;p H&#7879; th&#7889;ng Thanh to&#225;n"><rect fill="#F1F1F1" height="78.8906" rx="2.5" ry="2.5" style="stroke:#181818;stroke-width:0.5;" width="324.2178" x="39.89" y="98.42"/><rect fill="#F1F1F1" height="10" style="stroke:#181818;stroke-width:0.5;" width="15" x="344.1078" y="103.42"/><rect fill="#F1F1F1" height="2" style="stroke:#181818;stroke-width:0.5;" width="4" x="342.1078" y="105.42"/><rect fill="#F1F1F1" height="2" style="stroke:#181818;stroke-width:0.5;" width="4" x="342.1078" y="109.42"/><text fill="#000000" font-family="sans-serif" font-size="14" lengthAdjust="spacing" textLength="148.4355" x="54.89" y="131.4151">H&#7879; th&#7889;ng Thanh to&#225;n</text><text fill="#000000" font-family="sans-serif" font-size="14" lengthAdjust="spacing" textLength="167.9453" x="54.89" y="147.712">Qu&#225; tr&#236;nh &#272;&#243;ng &#273;&#259;ng k&#253;</text><text fill="#000000" font-family="sans-serif" font-size="14" lengthAdjust="spacing" textLength="284.2178" x="54.89" y="164.0089">Qu&#225; tr&#236;nh Truy c&#7853;p H&#7879; th&#7889;ng Thanh to&#225;n</text></g><g class="entity" data-entity="GMN13" data-source-line="22" data-uid="ent0014" id="entity_GMN13"><path d="M152.85,439.61 L152.85,464.7428 A0,0 0 0 0 152.85,464.7428 L467.1498,464.7428 A0,0 0 0 0 467.1498,464.7428 L467.1498,449.61 L457.1498,439.61 L309.9,439.61 L215.46,177.79 L301.9,439.61 L152.85,439.61 A0,0 0 0 0 152.85,439.61" fill="#FAFAFA" style="stroke:#181818;stroke-width:0.5;"/><path d="M457.1498,439.61 L457.1498,449.61 L467.1498,449.61 L457.1498,439.61" fill="#FAFAFA" style="stroke:#181818;stroke-width:0.5;"/><text fill="#000000" font-family="sans-serif" font-size="13" lengthAdjust="spacing" textLength="293.2998" x="158.85" y="456.6769">M&#225;y ch&#7911; trung t&#226;m ch&#7913;a c&#225;c ti&#7871;n tr&#236;nh c&#7889;t l&#245;i</text></g><g class="entity" data-entity="GMN17" data-source-line="30" data-uid="ent0018" id="entity_GMN17"><path d="M538.51,401.78 L538.51,502.5769 L873.4968,502.5769 L873.4968,411.78 L863.4968,401.78 L538.51,401.78" fill="#FAFAFA" style="stroke:#181818;stroke-width:0.5;"/><path d="M863.4968,401.78 L863.4968,411.78 L873.4968,411.78 L863.4968,401.78" fill="#FAFAFA" style="stroke:#181818;stroke-width:1;"/><text fill="#000000" font-family="sans-serif" font-size="13" lengthAdjust="spacing" textLength="313.9868" x="544.51" y="418.8469">C&#225;c ti&#7871;n tr&#236;nh &#273;&#432;&#7907;c &#225;nh x&#7841; t&#7899;i M&#225;y ch&#7911; &#272;&#259;ng k&#253;:</text><text fill="#000000" font-family="sans-serif" font-size="13" lengthAdjust="spacing" textLength="211.3135" x="544.51" y="433.9797">- Ti&#7871;n tr&#236;nh X&#225;c th&#7921;c Ng&#432;&#7901;i d&#249;ng</text><text fill="#000000" font-family="sans-serif" font-size="13" lengthAdjust="spacing" textLength="189.814" x="544.51" y="449.1125">- Ti&#7871;n tr&#236;nh Qu&#7843;n l&#253; Kh&#243;a h&#7885;c</text><text fill="#000000" font-family="sans-serif" font-size="13" lengthAdjust="spacing" textLength="193.4448" x="544.51" y="464.2453">- Ti&#7871;n tr&#236;nh &#272;&#259;ng k&#253; Sinh vi&#234;n</text><text fill="#000000" font-family="sans-serif" font-size="13" lengthAdjust="spacing" textLength="175.6016" x="544.51" y="479.3781">- Ti&#7871;n tr&#236;nh Qu&#7843;n l&#253; B&#224;i t&#7853;p</text><text fill="#000000" font-family="sans-serif" font-size="13" lengthAdjust="spacing" textLength="185.853" x="544.51" y="494.511">- Ti&#7871;n tr&#236;nh Qu&#7843;n l&#253; Bu&#7893;i h&#7885;c</text></g><g class="entity" data-entity="GMN20" data-source-line="39" data-uid="ent0021" id="entity_GMN20"><path d="M1143.11,117.73 L1143.11,157.9956 L1422.8913,157.9956 L1422.8913,127.73 L1412.8913,117.73 L1143.11,117.73" fill="#FAFAFA" style="stroke:#181818;stroke-width:0.5;"/><path d="M1412.8913,117.73 L1412.8913,127.73 L1422.8913,127.73 L1412.8913,117.73" fill="#FAFAFA" style="stroke:#181818;stroke-width:1;"/><text fill="#000000" font-family="sans-serif" font-size="13" lengthAdjust="spacing" textLength="258.7813" x="1149.11" y="134.7969">Ti&#7871;n tr&#236;nh: X&#225;c th&#7921;c Ng&#432;&#7901;i d&#249;ng (Client)</text><text fill="#000000" font-family="sans-serif" font-size="13" lengthAdjust="spacing" textLength="240.9126" x="1149.11" y="149.9297">Ti&#7871;n tr&#236;nh: &#272;&#259;ng k&#253; Sinh vi&#234;n (Client)</text></g><g class="entity" data-entity="GMN23" data-source-line="44" data-uid="ent0024" id="entity_GMN23"><path d="M1457.86,125.3 L1457.86,150.4328 L1716.1417,150.4328 L1716.1417,135.3 L1706.1417,125.3 L1457.86,125.3" fill="#FAFAFA" style="stroke:#181818;stroke-width:0.5;"/><path d="M1706.1417,125.3 L1706.1417,135.3 L1716.1417,135.3 L1706.1417,125.3" fill="#FAFAFA" style="stroke:#181818;stroke-width:1;"/><text fill="#000000" font-family="sans-serif" font-size="13" lengthAdjust="spacing" textLength="237.2817" x="1463.86" y="142.3669">Ti&#7871;n tr&#236;nh: Qu&#7843;n l&#253; Kh&#243;a h&#7885;c (Client)</text></g><g class="entity" data-entity="GMN26" data-source-line="48" data-uid="ent0027" id="entity_GMN26"><path d="M1750.84,117.73 L1750.84,157.9956 L2005.1608,157.9956 L2005.1608,127.73 L1995.1608,117.73 L1750.84,117.73" fill="#FAFAFA" style="stroke:#181818;stroke-width:0.5;"/><path d="M1995.1608,117.73 L1995.1608,127.73 L2005.1608,127.73 L1995.1608,117.73" fill="#FAFAFA" style="stroke:#181818;stroke-width:1;"/><text fill="#000000" font-family="sans-serif" font-size="13" lengthAdjust="spacing" textLength="223.0693" x="1756.84" y="134.7969">Ti&#7871;n tr&#236;nh: Qu&#7843;n l&#253; B&#224;i t&#7853;p (Client)</text><text fill="#000000" font-family="sans-serif" font-size="13" lengthAdjust="spacing" textLength="233.3208" x="1756.84" y="149.9297">Ti&#7871;n tr&#236;nh: Qu&#7843;n l&#253; Bu&#7893;i h&#7885;c (Client)</text></g><!--link ?ng d?ng Sinh vi?n\nQu? tr?nh ??ng k? to Internet--><g class="link" data-entity-1="&#7912;ng d&#7909;ng Sinh vi&#234;n\nQu&#225; tr&#236;nh &#272;&#259;ng k&#253;" data-entity-2="Internet" data-source-line="10" data-uid="lnk5" id="link_&#7912;ng d&#7909;ng Sinh vi&#234;n\nQu&#225; tr&#236;nh &#272;&#259;ng k&#253;_Internet"><path d="M554.6472,174.4445 C550.7172,200.6045 546.6343,227.7357 543.1043,251.1857" fill="none" id="&#7912;ng d&#7909;ng Sinh vi&#234;n\nQu&#225; tr&#236;nh &#272;&#259;ng k&#253;-Internet" style="stroke:#181818;stroke-width:1;stroke-dasharray:7.0,7.0;"/><rect fill="#FFFFFF" height="10" style="stroke:#181818;stroke-width:1.5;" width="10" x="550.39" y="164.5"/><rect fill="#FFFFFF" height="10" style="stroke:#181818;stroke-width:1.5;" width="10" x="537.36" y="251.13"/></g><!--link H? th?ng Danh m?c kh?a h?c\nQu? tr?nh Truy c?p Danh m?c kh?a h?c to Internet--><g class="link" data-entity-1="H&#7879; th&#7889;ng Danh m&#7909;c kh&#243;a h&#7885;c\nQu&#225; tr&#236;nh Truy c&#7853;p Danh m&#7909;c kh&#243;a h&#7885;c" data-entity-2="Internet" data-source-line="14" data-uid="lnk8" id="link_H&#7879; th&#7889;ng Danh m&#7909;c kh&#243;a h&#7885;c\nQu&#225; tr&#236;nh Truy c&#7853;p Danh m&#7909;c kh&#243;a h&#7885;c_Internet"><path d="M827.8026,171.2401 C752.6726,199.1301 653.7073,235.8695 591.8473,258.8395" fill="none" id="H&#7879; th&#7889;ng Danh m&#7909;c kh&#243;a h&#7885;c\nQu&#225; tr&#236;nh Truy c&#7853;p Danh m&#7909;c kh&#243;a h&#7885;c-Internet" style="stroke:#181818;stroke-width:1;stroke-dasharray:7.0,7.0;"/><rect fill="#FFFFFF" height="10" style="stroke:#181818;stroke-width:1.5;" width="10" x="827.49" y="164.5"/><rect fill="#FFFFFF" height="10" style="stroke:#181818;stroke-width:1.5;" width="10" x="582.16" y="255.58"/></g><!--link H? th?ng Thanh to?n\nQu? tr?nh ??ng ??ng k?\nQu? tr?nh Truy c?p H? th?ng Thanh to?n to Internet--><g class="link" data-entity-1="H&#7879; th&#7889;ng Thanh to&#225;n\nQu&#225; tr&#236;nh &#272;&#243;ng &#273;&#259;ng k&#253;\nQu&#225; tr&#236;nh Truy c&#7853;p H&#7879; th&#7889;ng Thanh to&#225;n" data-entity-2="Internet" data-source-line="18" data-uid="lnk11" id="link_H&#7879; th&#7889;ng Thanh to&#225;n\nQu&#225; tr&#236;nh &#272;&#243;ng &#273;&#259;ng k&#253;\nQu&#225; tr&#236;nh Truy c&#7853;p H&#7879; th&#7889;ng Thanh to&#225;n_Internet"><path d="M284.7505,179.9276 C312.2405,193.0776 338.99,205.3 368,217.31 C408.78,234.19 451.3635,249.2983 485.8735,260.9683" fill="none" id="H&#7879; th&#7889;ng Thanh to&#225;n\nQu&#225; tr&#236;nh &#272;&#243;ng &#273;&#259;ng k&#253;\nQu&#225; tr&#236;nh Truy c&#7853;p H&#7879; th&#7889;ng Thanh to&#225;n-Internet" style="stroke:#181818;stroke-width:1;stroke-dasharray:7.0,7.0;"/><rect fill="#FFFFFF" height="10" style="stroke:#181818;stroke-width:1.5;" width="10" x="275.24" y="172.77"/><rect fill="#FFFFFF" height="10" style="stroke:#181818;stroke-width:1.5;" width="10" x="485.61" y="257.57"/></g><!--link Internet to Server--><g class="link" data-entity-1="Internet" data-entity-2="Server" data-source-line="26" data-uid="lnk16" id="link_Internet_Server"><path d="M533.2589,307.6725 C528.4589,330.4475 521.835,361.86 515.2988,392.8588 C514.4817,396.7336 513.6822,400.5255 512.9079,404.1978 C512.5207,406.0339 512.1399,407.8401 511.7663,409.6117 C511.5795,410.4976 511.3946,411.3748 511.2115,412.2428 C511.1658,412.4598 512.1517,407.7838 512.1062,407.9996" fill="none" id="Internet-Server" style="stroke:#181818;stroke-width:1;"/><rect fill="#FFFFFF" height="10" style="stroke:#181818;stroke-width:1.5;" width="10" x="529.29" y="297.78"/><rect fill="#FFFFFF" height="10" style="stroke:#181818;stroke-width:1.5;" width="10" x="506.0746" y="407.892"/><text fill="#000000" font-family="sans-serif" font-size="13" lengthAdjust="spacing" textLength="67.7549" x="524" y="363.6769">&#171;Internet&#187;</text></g><!--link Server to GMN17--><g class="link" data-entity-1="Server" data-entity-2="GMN17" data-source-line="30" data-uid="lnk19" id="link_Server_GMN17"><path d="M511.0408,452.17 C511.1303,452.17 511.2198,452.17 511.3093,452.17 C511.6673,452.17 512.0253,452.17 512.3833,452.17 C515.2472,452.17 518.1106,452.17 520.9738,452.17 C526.7,452.17 532.425,452.17 538.15,452.17" fill="none" id="Server-GMN17" style="stroke:#181818;stroke-width:1;stroke-dasharray:7.0,7.0;"/></g><!--link PC1 to GMN20--><g class="link" data-entity-1="PC1" data-entity-2="GMN20" data-source-line="39" data-uid="lnk22" id="link_PC1_GMN20"><path d="M693.0857,105.5833 C693.1437,105.4021 693.2019,105.2205 693.2606,105.0384 C693.3778,104.6742 693.4965,104.3083 693.6167,103.9408 C693.8569,103.2057 694.103,102.4639 694.3549,101.7162 C696.3702,95.7341 698.7606,89.3653 701.5725,82.9013 C712.82,57.045 730.81,29.665 758.5,19.42 C794.76,6 1069.51,8.16 1106.5,19.42 C1169.69,38.66 1230.81,88.9 1261.85,117.39" fill="none" id="PC1-GMN20" style="stroke:#181818;stroke-width:1;stroke-dasharray:7.0,7.0;"/></g><!--link PC2 to GMN23--><g class="link" data-entity-1="PC2" data-entity-2="GMN23" data-source-line="44" data-uid="lnk25" id="link_PC2_GMN23"><path d="M1111.4796,58.2883 C1111.539,58.0926 1111.5988,57.8972 1111.6593,57.7021 C1112.1428,56.1413 1112.6621,54.5995 1113.2191,53.0815 C1114.3333,50.0454 1115.5989,47.1045 1117.0336,44.2966 C1122.7725,33.065 1131.2175,23.9625 1143.5,19.42 C1172.57,8.66 1393,9.9 1422.5,19.42 C1488.15,40.59 1549.7,98.78 1574.95,124.89" fill="none" id="PC2-GMN23" style="stroke:#181818;stroke-width:1;stroke-dasharray:7.0,7.0;"/></g><!--link PC3 to GMN26--><g class="link" data-entity-1="PC3" data-entity-2="GMN26" data-source-line="48" data-uid="lnk28" id="link_PC3_GMN26"><path d="M407.0857,105.5833 C407.1437,105.4021 407.2019,105.2205 407.2606,105.0384 C407.3778,104.6742 407.4965,104.3083 407.6167,103.9408 C407.8569,103.2057 408.103,102.4639 408.3549,101.7162 C410.3702,95.7341 412.7606,89.3653 415.5725,82.9013 C426.82,57.045 444.81,29.665 472.5,19.42 C504.91,7.43 1683.66,8.67 1716.5,19.42 C1775.65,38.79 1831.04,88.98 1859.01,117.42" fill="none" id="PC3-GMN26" style="stroke:#181818;stroke-width:1;stroke-dasharray:7.0,7.0;"/></g><!--SRC=[bLCnRzD05DxzAvxgWNP8rIHYYPeEc05K5L4r0rBfu9ulzYd9NRYSAoh4r04n89612I4rL5K14GbK68XLCLp4_xX_mhDhuuJOAKpMtVlUzttlyxj1X_6-AzqUz0GN992YHq79a5g3FnKkF0hFB8138Jqg7T4L4kmQgTFR6_6jIpg-527tqWebxOrs5IjjmTKy-hbbtO9cimcE7X7WUgBYavKehEpeqJ4eFUO1J8ScEe53VSgXkWBk01uwrSJ2lea-S1yy4vtZPuyXzeZfJ_mntmtr29thpt7xw-a9bZlwwW3izNKRzkzpHIMdwY2si4okbihLhkNkcUW5gC14G-IxwoAsXz84Ee6-T07lNv5vwPOCZu6OoRXV0lzlH_NKKRt0KIk8DPJGeuK4z2NMfyCiY5ANPNmt-IJOSZ6JTE9oZyeZAXEZN2WAalc1Qi1C0-uMufL-tqikFhf0ubLGp4n-yimUGJSAklexopTc6m4AE5OOhCQjB-59w49cRorPfDmjs9MAdVbfmEPcLjdQoXXtz3TGPd9MvE1wAxC9GBHJAXpCMKHFXx- -cEYC0EOMm5CpmQ1Dz9P1OL8D9Ab0QuxXKKAAmAy47lWnspi6dlx1_GBmReYkEUPp1TlvOXK0SysPfxASy8u-PN4gu_uDkD14RrYgJBcN_6_hhypmrIBB74TZoQYmwdGPvMfjiQbmaXnVRg2so5KStx-GrPUIvT4j6QGamaNrtm00]--></g></svg>