<svg xmlns="http://www.w3.org/2000/svg" xmlns:xlink="http://www.w3.org/1999/xlink" contentStyleType="text/css" data-diagram-type="DESCRIPTION" height="964px" preserveAspectRatio="none" style="width:1639px;height:964px;background:#FFFFFF;" version="1.1" viewBox="0 0 1639 964" width="1639px" zoomAndPan="magnify"><defs/><g><!--cluster Client (React App)--><g class="cluster" data-entity="Client (React App)" data-source-line="6" data-uid="ent0002" id="cluster_Client (React App)"><path d="M431.44,364 L576.6031,364 A3.75,3.75 0 0 1 579.1031,366.5 L586.1031,386.2969 L1025.06,386.2969 A2.5,2.5 0 0 1 1027.56,388.7969 L1027.56,954.5 A2.5,2.5 0 0 1 1025.06,957 L431.44,957 A2.5,2.5 0 0 1 428.94,954.5 L428.94,366.5 A2.5,2.5 0 0 1 431.44,364" fill="none" style="stroke:#000000;stroke-width:1.5;"/><line style="stroke:#000000;stroke-width:1.5;" x1="428.94" x2="586.1031" y1="386.2969" y2="386.2969"/><text fill="#000000" font-family="sans-serif" font-size="14" font-weight="bold" lengthAdjust="spacing" textLength="144.1631" x="432.94" y="378.9951">Client (React App)</text></g><!--cluster Backend (Spring Boot API)--><g class="cluster" data-entity="Backend (Spring Boot API)" data-source-line="24" data-uid="ent0019" id="cluster_Backend (Spring Boot API)"><path d="M8.5,6 L218.8301,6 A3.75,3.75 0 0 1 221.3301,8.5 L228.3301,28.2969 L945.56,28.2969 A2.5,2.5 0 0 1 948.06,30.7969 L948.06,337.5 A2.5,2.5 0 0 1 945.56,340 L8.5,340 A2.5,2.5 0 0 1 6,337.5 L6,8.5 A2.5,2.5 0 0 1 8.5,6" fill="none" style="stroke:#000000;stroke-width:1.5;"/><line style="stroke:#000000;stroke-width:1.5;" x1="6" x2="228.3301" y1="28.2969" y2="28.2969"/><text fill="#000000" font-family="sans-serif" font-size="14" font-weight="bold" lengthAdjust="spacing" textLength="209.3301" x="10" y="20.9951">Backend (Spring Boot API)</text></g><!--cluster Database (SQL Server)--><g class="cluster" data-entity="Database (SQL Server)" data-source-line="45" data-uid="ent0034" id="cluster_Database (SQL Server)"><path d="M1063.06,213 L1244.0229,213 A3.75,3.75 0 0 1 1246.5229,215.5 L1253.5229,235.2969 L1629.54,235.2969 A2.5,2.5 0 0 1 1632.04,237.7969 L1632.04,368.5 A2.5,2.5 0 0 1 1629.54,371 L1063.06,371 A2.5,2.5 0 0 1 1060.56,368.5 L1060.56,215.5 A2.5,2.5 0 0 1 1063.06,213" fill="none" style="stroke:#000000;stroke-width:1.5;"/><line style="stroke:#000000;stroke-width:1.5;" x1="1060.56" x2="1253.5229" y1="235.2969" y2="235.2969"/><text fill="#000000" font-family="sans-serif" font-size="14" font-weight="bold" lengthAdjust="spacing" textLength="179.9629" x="1064.56" y="227.9951">Database (SQL Server)</text></g><!--entity Browser (User)--><g class="entity" data-entity="Browser (User)" data-source-line="7" data-uid="ent0003" id="entity_Browser (User)"><rect fill="#F1F1F1" height="46.2969" rx="2.5" ry="2.5" style="stroke:#181818;stroke-width:0.5;" width="144.3232" x="780.62" y="894.85"/><rect fill="#F1F1F1" height="10" style="stroke:#181818;stroke-width:0.5;" width="15" x="904.9432" y="899.85"/><rect fill="#F1F1F1" height="2" style="stroke:#181818;stroke-width:0.5;" width="4" x="902.9432" y="901.85"/><rect fill="#F1F1F1" height="2" style="stroke:#181818;stroke-width:0.5;" width="4" x="902.9432" y="905.85"/><text fill="#000000" font-family="sans-serif" font-size="14" lengthAdjust="spacing" textLength="104.3232" x="795.62" y="927.8451">Browser (User)</text></g><!--entity React App--><g class="entity" data-entity="React App" data-source-line="8" data-uid="ent0004" id="entity_React App"><rect fill="#F1F1F1" height="46.2969" rx="2.5" ry="2.5" style="stroke:#181818;stroke-width:0.5;" width="111.9072" x="444.94" y="403.85"/><rect fill="#F1F1F1" height="10" style="stroke:#181818;stroke-width:0.5;" width="15" x="536.8472" y="408.85"/><rect fill="#F1F1F1" height="2" style="stroke:#181818;stroke-width:0.5;" width="4" x="534.8472" y="410.85"/><rect fill="#F1F1F1" height="2" style="stroke:#181818;stroke-width:0.5;" width="4" x="534.8472" y="414.85"/><text fill="#000000" font-family="sans-serif" font-size="14" lengthAdjust="spacing" textLength="71.9072" x="459.94" y="436.8451">React App</text></g><!--entity Axios (HTTP Requests)--><g class="entity" data-entity="Axios (HTTP Requests)" data-source-line="10" data-uid="ent0006" id="entity_Axios (HTTP Requests)"><rect fill="#F1F1F1" height="46.2969" rx="2.5" ry="2.5" style="stroke:#181818;stroke-width:0.5;" width="198.2998" x="753.63" y="813.85"/><rect fill="#F1F1F1" height="10" style="stroke:#181818;stroke-width:0.5;" width="15" x="931.9298" y="818.85"/><rect fill="#F1F1F1" height="2" style="stroke:#181818;stroke-width:0.5;" width="4" x="929.9298" y="820.85"/><rect fill="#F1F1F1" height="2" style="stroke:#181818;stroke-width:0.5;" width="4" x="929.9298" y="824.85"/><text fill="#000000" font-family="sans-serif" font-size="14" lengthAdjust="spacing" textLength="158.2998" x="768.63" y="846.8451">Axios (HTTP Requests)</text></g><!--entity Router--><g class="entity" data-entity="Router" data-source-line="11" data-uid="ent0008" id="entity_Router"><rect fill="#F1F1F1" height="46.2969" rx="2.5" ry="2.5" style="stroke:#181818;stroke-width:0.5;" width="87.0244" x="809.27" y="732.85"/><rect fill="#F1F1F1" height="10" style="stroke:#181818;stroke-width:0.5;" width="15" x="876.2944" y="737.85"/><rect fill="#F1F1F1" height="2" style="stroke:#181818;stroke-width:0.5;" width="4" x="874.2944" y="739.85"/><rect fill="#F1F1F1" height="2" style="stroke:#181818;stroke-width:0.5;" width="4" x="874.2944" y="743.85"/><text fill="#000000" font-family="sans-serif" font-size="14" lengthAdjust="spacing" textLength="47.0244" x="824.27" y="765.8451">Router</text></g><!--entity Tailwind CSS--><g class="entity" data-entity="Tailwind CSS" data-source-line="12" data-uid="ent0010" id="entity_Tailwind CSS"><rect fill="#F1F1F1" height="46.2969" rx="2.5" ry="2.5" style="stroke:#181818;stroke-width:0.5;" width="130.0088" x="787.78" y="651.85"/><rect fill="#F1F1F1" height="10" style="stroke:#181818;stroke-width:0.5;" width="15" x="897.7888" y="656.85"/><rect fill="#F1F1F1" height="2" style="stroke:#181818;stroke-width:0.5;" width="4" x="895.7888" y="658.85"/><rect fill="#F1F1F1" height="2" style="stroke:#181818;stroke-width:0.5;" width="4" x="895.7888" y="662.85"/><text fill="#000000" font-family="sans-serif" font-size="14" lengthAdjust="spacing" textLength="90.0088" x="802.78" y="684.8451">Tailwind CSS</text></g><!--entity State Manager--><g class="entity" data-entity="State Manager" data-source-line="13" data-uid="ent0012" id="entity_State Manager"><rect fill="#F1F1F1" height="46.2969" rx="2.5" ry="2.5" style="stroke:#181818;stroke-width:0.5;" width="142.874" x="781.35" y="570.85"/><rect fill="#F1F1F1" height="10" style="stroke:#181818;stroke-width:0.5;" width="15" x="904.224" y="575.85"/><rect fill="#F1F1F1" height="2" style="stroke:#181818;stroke-width:0.5;" width="4" x="902.224" y="577.85"/><rect fill="#F1F1F1" height="2" style="stroke:#181818;stroke-width:0.5;" width="4" x="902.224" y="581.85"/><text fill="#000000" font-family="sans-serif" font-size="14" lengthAdjust="spacing" textLength="102.874" x="796.35" y="603.8451">State Manager</text></g><!--entity TypeScript--><g class="entity" data-entity="TypeScript" data-source-line="14" data-uid="ent0014" id="entity_TypeScript"><rect fill="#F1F1F1" height="46.2969" rx="2.5" ry="2.5" style="stroke:#181818;stroke-width:0.5;" width="114.9424" x="795.31" y="489.85"/><rect fill="#F1F1F1" height="10" style="stroke:#181818;stroke-width:0.5;" width="15" x="890.2524" y="494.85"/><rect fill="#F1F1F1" height="2" style="stroke:#181818;stroke-width:0.5;" width="4" x="888.2524" y="496.85"/><rect fill="#F1F1F1" height="2" style="stroke:#181818;stroke-width:0.5;" width="4" x="888.2524" y="500.85"/><text fill="#000000" font-family="sans-serif" font-size="14" lengthAdjust="spacing" textLength="74.9424" x="810.31" y="522.8451">TypeScript</text></g><g class="entity" data-entity="GMN16" data-source-line="17" data-uid="ent0017" id="entity_GMN16"><path d="M694.01,399.3 L694.01,423 L557.33,427 L694.01,431 L694.01,454.6984 A0,0 0 0 0 694.01,454.6984 L1011.5598,454.6984 A0,0 0 0 0 1011.5598,454.6984 L1011.5598,409.3 L1001.5598,399.3 L694.01,399.3 A0,0 0 0 0 694.01,399.3" fill="#FAFAFA" style="stroke:#181818;stroke-width:0.5;"/><path d="M1001.5598,399.3 L1001.5598,409.3 L1011.5598,409.3 L1001.5598,399.3" fill="#FAFAFA" style="stroke:#181818;stroke-width:0.5;"/><text fill="#000000" font-family="sans-serif" font-size="13" lengthAdjust="spacing" textLength="296.5498" x="700.01" y="416.3669">Built using React, Tailwind CSS, TypeScript.\n</text><text fill="#000000" font-family="sans-serif" font-size="13" lengthAdjust="spacing" textLength="183.0474" x="700.01" y="431.4997">Handles UI, routing, state.\n</text><text fill="#000000" font-family="sans-serif" font-size="13" lengthAdjust="spacing" textLength="269.6675" x="700.01" y="446.6325">Communicates with backend using HTTP.</text></g><!--entity API Controller--><g class="entity" data-entity="API Controller" data-source-line="25" data-uid="ent0020" id="entity_API Controller"><rect fill="#F1F1F1" height="46.2969" rx="2.5" ry="2.5" style="stroke:#181818;stroke-width:0.5;" width="135.7715" x="22" y="277.85"/><rect fill="#F1F1F1" height="10" style="stroke:#181818;stroke-width:0.5;" width="15" x="137.7715" y="282.85"/><rect fill="#F1F1F1" height="2" style="stroke:#181818;stroke-width:0.5;" width="4" x="135.7715" y="284.85"/><rect fill="#F1F1F1" height="2" style="stroke:#181818;stroke-width:0.5;" width="4" x="135.7715" y="288.85"/><text fill="#000000" font-family="sans-serif" font-size="14" lengthAdjust="spacing" textLength="95.7715" x="37" y="310.8451">API Controller</text></g><!--entity Service Layer--><g class="entity" data-entity="Service Layer" data-source-line="26" data-uid="ent0021" id="entity_Service Layer"><rect fill="#F1F1F1" height="46.2969" rx="2.5" ry="2.5" style="stroke:#181818;stroke-width:0.5;" width="135.2246" x="433.28" y="277.85"/><rect fill="#F1F1F1" height="10" style="stroke:#181818;stroke-width:0.5;" width="15" x="548.5046" y="282.85"/><rect fill="#F1F1F1" height="2" style="stroke:#181818;stroke-width:0.5;" width="4" x="546.5046" y="284.85"/><rect fill="#F1F1F1" height="2" style="stroke:#181818;stroke-width:0.5;" width="4" x="546.5046" y="288.85"/><text fill="#000000" font-family="sans-serif" font-size="14" lengthAdjust="spacing" textLength="95.2246" x="448.28" y="310.8451">Service Layer</text></g><!--entity Repository Layer--><g class="entity" data-entity="Repository Layer" data-source-line="27" data-uid="ent0022" id="entity_Repository Layer"><rect fill="#F1F1F1" height="46.2969" rx="2.5" ry="2.5" style="stroke:#181818;stroke-width:0.5;" width="158.5557" x="773.5" y="277.85"/><rect fill="#F1F1F1" height="10" style="stroke:#181818;stroke-width:0.5;" width="15" x="912.0557" y="282.85"/><rect fill="#F1F1F1" height="2" style="stroke:#181818;stroke-width:0.5;" width="4" x="910.0557" y="284.85"/><rect fill="#F1F1F1" height="2" style="stroke:#181818;stroke-width:0.5;" width="4" x="910.0557" y="288.85"/><text fill="#000000" font-family="sans-serif" font-size="14" lengthAdjust="spacing" textLength="118.5557" x="788.5" y="310.8451">Repository Layer</text></g><!--entity Security (JWT)--><g class="entity" data-entity="Security (JWT)" data-source-line="28" data-uid="ent0023" id="entity_Security (JWT)"><rect fill="#F1F1F1" height="46.2969" rx="2.5" ry="2.5" style="stroke:#181818;stroke-width:0.5;" width="139.3877" x="431.2" y="196.85"/><rect fill="#F1F1F1" height="10" style="stroke:#181818;stroke-width:0.5;" width="15" x="550.5877" y="201.85"/><rect fill="#F1F1F1" height="2" style="stroke:#181818;stroke-width:0.5;" width="4" x="548.5877" y="203.85"/><rect fill="#F1F1F1" height="2" style="stroke:#181818;stroke-width:0.5;" width="4" x="548.5877" y="207.85"/><text fill="#000000" font-family="sans-serif" font-size="14" lengthAdjust="spacing" textLength="99.3877" x="446.2" y="229.8451">Security (JWT)</text></g><!--entity Exception Handler--><g class="entity" data-entity="Exception Handler" data-source-line="29" data-uid="ent0024" id="entity_Exception Handler"><rect fill="#F1F1F1" height="46.2969" rx="2.5" ry="2.5" style="stroke:#181818;stroke-width:0.5;" width="168.7207" x="416.53" y="115.85"/><rect fill="#F1F1F1" height="10" style="stroke:#181818;stroke-width:0.5;" width="15" x="565.2507" y="120.85"/><rect fill="#F1F1F1" height="2" style="stroke:#181818;stroke-width:0.5;" width="4" x="563.2507" y="122.85"/><rect fill="#F1F1F1" height="2" style="stroke:#181818;stroke-width:0.5;" width="4" x="563.2507" y="126.85"/><text fill="#000000" font-family="sans-serif" font-size="14" lengthAdjust="spacing" textLength="128.7207" x="431.53" y="148.8451">Exception Handler</text></g><!--entity DTO Mapper--><g class="entity" data-entity="DTO Mapper" data-source-line="30" data-uid="ent0025" id="entity_DTO Mapper"><rect fill="#F1F1F1" height="46.2969" rx="2.5" ry="2.5" style="stroke:#181818;stroke-width:0.5;" width="127.6025" x="788.98" y="196.85"/><rect fill="#F1F1F1" height="10" style="stroke:#181818;stroke-width:0.5;" width="15" x="896.5825" y="201.85"/><rect fill="#F1F1F1" height="2" style="stroke:#181818;stroke-width:0.5;" width="4" x="894.5825" y="203.85"/><rect fill="#F1F1F1" height="2" style="stroke:#181818;stroke-width:0.5;" width="4" x="894.5825" y="207.85"/><text fill="#000000" font-family="sans-serif" font-size="14" lengthAdjust="spacing" textLength="87.6025" x="803.98" y="229.8451">DTO Mapper</text></g><g class="entity" data-entity="GMN31" data-source-line="39" data-uid="ent0032" id="entity_GMN31"><path d="M368.77,40.87 L368.77,81.1356 L633.0058,81.1356 L633.0058,50.87 L623.0058,40.87 L368.77,40.87" fill="#FAFAFA" style="stroke:#181818;stroke-width:0.5;"/><path d="M623.0058,40.87 L623.0058,50.87 L633.0058,50.87 L623.0058,40.87" fill="#FAFAFA" style="stroke:#181818;stroke-width:1;"/><text fill="#000000" font-family="sans-serif" font-size="13" lengthAdjust="spacing" textLength="206.5718" x="374.77" y="57.9369">RESTful API using Spring Boot\n</text><text fill="#000000" font-family="sans-serif" font-size="13" lengthAdjust="spacing" textLength="243.2358" x="374.77" y="73.0697">Processes requests and applies logic.</text></g><!--entity SQL Server DB--><g class="entity" data-entity="SQL Server DB" data-source-line="46" data-uid="ent0035" id="entity_SQL Server DB"><rect fill="#F1F1F1" height="46.2969" rx="2.5" ry="2.5" style="stroke:#181818;stroke-width:0.5;" width="142.9014" x="1076.56" y="278.85"/><rect fill="#F1F1F1" height="10" style="stroke:#181818;stroke-width:0.5;" width="15" x="1199.4614" y="283.85"/><rect fill="#F1F1F1" height="2" style="stroke:#181818;stroke-width:0.5;" width="4" x="1197.4614" y="285.85"/><rect fill="#F1F1F1" height="2" style="stroke:#181818;stroke-width:0.5;" width="4" x="1197.4614" y="289.85"/><text fill="#000000" font-family="sans-serif" font-size="14" lengthAdjust="spacing" textLength="102.9014" x="1091.56" y="311.8451">SQL Server DB</text></g><!--entity SQL Tables--><g class="entity" data-entity="SQL Tables" data-source-line="47" data-uid="ent0036" id="entity_SQL Tables"><rect fill="#F1F1F1" height="46.2969" rx="2.5" ry="2.5" style="stroke:#181818;stroke-width:0.5;" width="117.9707" x="1389.26" y="308.85"/><rect fill="#F1F1F1" height="10" style="stroke:#181818;stroke-width:0.5;" width="15" x="1487.2307" y="313.85"/><rect fill="#F1F1F1" height="2" style="stroke:#181818;stroke-width:0.5;" width="4" x="1485.2307" y="315.85"/><rect fill="#F1F1F1" height="2" style="stroke:#181818;stroke-width:0.5;" width="4" x="1485.2307" y="319.85"/><text fill="#000000" font-family="sans-serif" font-size="14" lengthAdjust="spacing" textLength="77.9707" x="1404.26" y="341.8451">SQL Tables</text></g><g class="entity" data-entity="GMN38" data-source-line="52" data-uid="ent0039" id="entity_GMN38"><path d="M1280.46,248.43 L1280.46,273.5628 A0,0 0 0 0 1280.46,273.5628 L1348.25,273.5628 L1219.69,292.28 L1356.25,273.5628 L1616.0371,273.5628 A0,0 0 0 0 1616.0371,273.5628 L1616.0371,258.43 L1606.0371,248.43 L1280.46,248.43 A0,0 0 0 0 1280.46,248.43" fill="#FAFAFA" style="stroke:#181818;stroke-width:0.5;"/><path d="M1606.0371,248.43 L1606.0371,258.43 L1616.0371,258.43 L1606.0371,248.43" fill="#FAFAFA" style="stroke:#181818;stroke-width:0.5;"/><text fill="#000000" font-family="sans-serif" font-size="13" lengthAdjust="spacing" textLength="314.5771" x="1286.46" y="265.4969">Relational database accessed via JPA/Hibernate.</text></g><!--link React App to Browser (User)--><g class="link" data-entity-1="React App" data-entity-2="Browser (User)" data-source-line="8" data-uid="lnk5" id="link_React App_Browser (User)"><path d="M504.61,450.39 C514.56,525.07 556,759.81 694.01,878 C717.83,898.4 744.7458,907.6189 774.2858,912.6689" fill="none" id="React App-to-Browser (User)" style="stroke:#181818;stroke-width:1;"/><polygon fill="#181818" points="780.2,913.68,772.0027,908.2206,775.2715,912.8375,770.6547,916.1062,780.2,913.68" style="stroke:#181818;stroke-width:1;"/></g><!--link React App to Axios (HTTP Requests)--><g class="link" data-entity-1="React App" data-entity-2="Axios (HTTP Requests)" data-source-line="10" data-uid="lnk7" id="link_React App_Axios (HTTP Requests)"><path d="M506.95,450.33 C522.42,515.89 575.44,703.05 694.01,797 C711.06,810.51 726.3568,817.8861 747.4868,823.8661" fill="none" id="React App-to-Axios (HTTP Requests)" style="stroke:#181818;stroke-width:1;"/><polygon fill="#181818" points="753.26,825.5,745.6894,819.2003,748.449,824.1384,743.5109,826.898,753.26,825.5" style="stroke:#181818;stroke-width:1;"/></g><!--link React App to Router--><g class="link" data-entity-1="React App" data-entity-2="Router" data-source-line="11" data-uid="lnk9" id="link_React App_Router"><path d="M510.51,450.35 C532.18,505.7 594.44,645.49 694.01,716 C728.02,740.09 769.2578,749.028 803.1478,752.848" fill="none" id="React App-to-Router" style="stroke:#181818;stroke-width:1;"/><polygon fill="#181818" points="809.11,753.52,800.6147,748.5371,804.1415,752.96,799.7186,756.4868,809.11,753.52" style="stroke:#181818;stroke-width:1;"/></g><!--link React App to Tailwind CSS--><g class="link" data-entity-1="React App" data-entity-2="Tailwind CSS" data-source-line="12" data-uid="lnk11" id="link_React App_Tailwind CSS"><path d="M516.7,450.45 C545.38,493.87 612.89,586.74 694.01,635 C722.3,651.83 751.6249,660.5131 781.6049,666.1931" fill="none" id="React App-to-Tailwind CSS" style="stroke:#181818;stroke-width:1;"/><polygon fill="#181818" points="787.5,667.31,779.4019,661.7046,782.5874,666.3793,777.9127,669.5648,787.5,667.31" style="stroke:#181818;stroke-width:1;"/></g><!--link React App to State Manager--><g class="link" data-entity-1="React App" data-entity-2="State Manager" data-source-line="13" data-uid="lnk13" id="link_React App_State Manager"><path d="M530.68,450.56 C566.76,478.98 631.47,526.36 694.01,554 C721.4,566.11 747.3092,573.7204 775.1192,580.0404" fill="none" id="React App-to-State Manager" style="stroke:#181818;stroke-width:1;"/><polygon fill="#181818" points="780.97,581.37,773.0802,575.475,776.0943,580.262,771.3073,583.2761,780.97,581.37" style="stroke:#181818;stroke-width:1;"/></g><!--link React App to TypeScript--><g class="link" data-entity-1="React App" data-entity-2="TypeScript" data-source-line="14" data-uid="lnk15" id="link_React App_TypeScript"><path d="M557.33,440.63 C622.27,456.59 723.4635,481.4576 789.0335,497.5776" fill="none" id="React App-to-TypeScript" style="stroke:#181818;stroke-width:1;"/><polygon fill="#181818" points="794.86,499.01,787.0752,492.977,790.0046,497.8163,785.1653,500.7457,794.86,499.01" style="stroke:#181818;stroke-width:1;"/></g><!--link API Controller to Service Layer--><g class="link" data-entity-1="API Controller" data-entity-2="Service Layer" data-source-line="32" data-uid="lnk26" id="link_API Controller_Service Layer"><path d="M100.99,324.51 C118.53,342.35 155.79,350.22 187.77,353 C293.19,362.18 413.5888,349.8587 467.6088,326.8787" fill="none" id="API Controller-to-Service Layer" style="stroke:#181818;stroke-width:1;"/><polygon fill="#181818" points="473.13,324.53,463.2824,324.3723,468.529,326.4873,466.414,331.7339,473.13,324.53" style="stroke:#181818;stroke-width:1;"/></g><!--link API Controller to Service Layer--><g class="link" data-entity-1="API Controller" data-entity-2="Service Layer" data-source-line="60" data-uid="lnk44" id="link_API Controller_Service Layer"><path d="M158.18,314.36 C168.07,315.87 178.16,317.16 187.77,318 C272.11,325.34 363.5995,318.1077 426.8695,310.8077" fill="none" id="API Controller-to-Service Layer-1" style="stroke:#181818;stroke-width:1;"/><polygon fill="#181818" points="432.83,310.12,423.4308,307.1779,427.863,310.6931,424.3478,315.1252,432.83,310.12" style="stroke:#181818;stroke-width:1;"/></g><!--link Service Layer to API Controller--><g class="link" data-entity-1="Service Layer" data-entity-2="API Controller" data-source-line="65" data-uid="lnk49" id="link_Service Layer_API Controller"><path d="M432.83,283.04 C369.56,282.42 272.11,290.34 187.77,283 C178.16,282.16 174.0305,281.5571 164.1405,280.4171" fill="none" id="Service Layer-to-API Controller" style="stroke:#181818;stroke-width:1;"/><polygon fill="#181818" points="158.18,279.73,166.6628,284.7343,163.1471,280.3025,167.5788,276.7869,158.18,279.73" style="stroke:#181818;stroke-width:1;"/></g><!--link Service Layer to Repository Layer--><g class="link" data-entity-1="Service Layer" data-entity-2="Repository Layer" data-source-line="33" data-uid="lnk27" id="link_Service Layer_Repository Layer"><path d="M568.94,322.18 C627.18,328.53 705.6145,329.4517 767.0545,323.8817" fill="none" id="Service Layer-to-Repository Layer" style="stroke:#181818;stroke-width:1;"/><polygon fill="#181818" points="773.03,323.34,763.7056,320.1689,768.0504,323.7914,764.4279,328.1362,773.03,323.34" style="stroke:#181818;stroke-width:1;"/></g><!--link Service Layer to Repository Layer--><g class="link" data-entity-1="Service Layer" data-entity-2="Repository Layer" data-source-line="61" data-uid="lnk45" id="link_Service Layer_Repository Layer"><path d="M568.94,301 C627.18,301 705.59,301 767.03,301" fill="none" id="Service Layer-to-Repository Layer-1" style="stroke:#181818;stroke-width:1;"/><polygon fill="#181818" points="773.03,301,764.03,297,768.03,301,764.03,305,773.03,301" style="stroke:#181818;stroke-width:1;"/></g><!--link Repository Layer to Service Layer--><g class="link" data-entity-1="Repository Layer" data-entity-2="Service Layer" data-source-line="64" data-uid="lnk48" id="link_Repository Layer_Service Layer"><path d="M773.03,278.66 C711.59,273.09 633.1447,272.8197 574.9047,279.1697" fill="none" id="Repository Layer-to-Service Layer" style="stroke:#181818;stroke-width:1;"/><polygon fill="#181818" points="568.94,279.82,578.3205,282.8209,573.9105,279.2781,577.4534,274.8681,568.94,279.82" style="stroke:#181818;stroke-width:1;"/></g><!--link API Controller to Security (JWT)--><g class="link" data-entity-1="API Controller" data-entity-2="Security (JWT)" data-source-line="34" data-uid="lnk28" id="link_API Controller_Security (JWT)"><path d="M157.71,277.36 C167.71,274.28 177.96,271.37 187.77,269 C270.27,249.04 361.1238,236.0339 424.8038,228.2939" fill="none" id="API Controller-to-Security (JWT)" style="stroke:#181818;stroke-width:1;"/><polygon fill="#181818" points="430.76,227.57,421.3431,224.6851,425.7965,228.1733,422.3084,232.6267,430.76,227.57" style="stroke:#181818;stroke-width:1;"/></g><!--link Service Layer to DTO Mapper--><g class="link" data-entity-1="Service Layer" data-entity-2="DTO Mapper" data-source-line="35" data-uid="lnk29" id="link_Service Layer_DTO Mapper"><path d="M568.94,285.48 C632.24,270.82 720.6146,250.3632 782.6446,236.0032" fill="none" id="Service Layer-to-DTO Mapper" style="stroke:#181818;stroke-width:1;"/><polygon fill="#181818" points="788.49,234.65,778.8197,232.7829,783.6188,235.7777,780.624,240.5768,788.49,234.65" style="stroke:#181818;stroke-width:1;"/></g><!--link API Controller to Exception Handler--><g class="link" data-entity-1="API Controller" data-entity-2="Exception Handler" data-source-line="36" data-uid="lnk30" id="link_API Controller_Exception Handler"><path d="M129.79,277.57 C147.21,267.54 168.2,256.07 187.77,247 C263.21,212.04 347.5796,183.7856 411.5396,164.3356" fill="none" id="API Controller-to-Exception Handler" style="stroke:#181818;stroke-width:1;"/><polygon fill="#181818" points="417.28,162.59,407.5056,161.3815,412.4963,164.0447,409.8331,169.0354,417.28,162.59" style="stroke:#181818;stroke-width:1;"/></g><!--link API Controller to GMN31--><g class="link" data-entity-1="API Controller" data-entity-2="GMN31" data-source-line="39" data-uid="lnk33" id="link_API Controller_GMN31"><path d="M113.21,277.56 C132.14,258.32 160.48,230.92 187.77,210 C262.85,152.44 282.19,136.11 368.77,98 C382.95,91.76 398.46,86.29 413.69,81.61" fill="none" id="API Controller-GMN31" style="stroke:#181818;stroke-width:1;stroke-dasharray:7.0,7.0;"/></g><!--link SQL Server DB to SQL Tables--><g class="link" data-entity-1="SQL Server DB" data-entity-2="SQL Tables" data-source-line="49" data-uid="lnk37" id="link_SQL Server DB_SQL Tables"><path d="M1219.69,309.11 C1271.36,314.31 1334.6402,320.6691 1383.1202,325.5491" fill="none" id="SQL Server DB-to-SQL Tables" style="stroke:#181818;stroke-width:1;"/><polygon fill="#181818" points="1389.09,326.15,1380.5359,321.2687,1384.1151,325.6492,1379.7346,329.2285,1389.09,326.15" style="stroke:#181818;stroke-width:1;"/></g><!--link React App to API Controller--><g class="link" data-entity-1="React App" data-entity-2="API Controller" data-source-line="57" data-uid="lnk41" id="link_React App_API Controller"><path d="M444.64,413.94 C368.37,395.69 234.87,362.89 187.77,346 C170.84,339.93 158.2515,334.5704 142.4115,327.0604" fill="none" id="React App-to-API Controller" style="stroke:#181818;stroke-width:1;"/><polygon fill="#181818" points="136.99,324.49,143.4087,331.96,141.5079,326.632,146.8359,324.7313,136.99,324.49" style="stroke:#181818;stroke-width:1;"/><text fill="#000000" font-family="sans-serif" font-size="13" lengthAdjust="spacing" textLength="149.1699" x="188.77" y="342.0669">HTTP (GET, POST, etc.)</text></g><!--link API Controller to React App--><g class="link" data-entity-1="API Controller" data-entity-2="React App" data-source-line="66" data-uid="lnk50" id="link_API Controller_React App"><path d="M103.3,324.45 C118.97,351.31 148.67,394.05 187.77,413 C270.14,452.91 373.5986,447.1264 438.5986,437.9764" fill="none" id="API Controller-to-React App" style="stroke:#181818;stroke-width:1;"/><polygon fill="#181818" points="444.54,437.14,435.0703,434.4336,439.5888,437.837,436.1854,442.3555,444.54,437.14" style="stroke:#181818;stroke-width:1;"/><text fill="#000000" font-family="sans-serif" font-size="13" lengthAdjust="spacing" textLength="99.1948" x="213.77" y="409.0669">JSON Response</text></g><!--link React App to Security (JWT)--><g class="link" data-entity-1="React App" data-entity-2="Security (JWT)" data-source-line="58" data-uid="lnk42" id="link_React App_Security (JWT)"><path d="M444.47,421.33 C350.63,409.61 178.19,377.02 235.87,299.5 C280.39,239.67 362.3906,223.5273 424.7506,219.8073" fill="none" id="React App-to-Security (JWT)" style="stroke:#181818;stroke-width:1;"/><polygon fill="#181818" points="430.74,219.45,421.5178,215.993,425.7489,219.7477,421.9942,223.9788,430.74,219.45" style="stroke:#181818;stroke-width:1;"/><text fill="#000000" font-family="sans-serif" font-size="13" lengthAdjust="spacing" textLength="132.5771" x="197.27" y="312.5669">POST /api/auth/login</text></g><!--link Security (JWT) to React App--><g class="link" data-entity-1="Security (JWT)" data-entity-2="React App" data-source-line="59" data-uid="lnk43" id="link_Security (JWT)_React App"><path d="M430.95,216.16 C377.11,217.44 305.71,229.2 267.87,277.5 C212.97,347.6 353.7079,393.1207 438.9179,413.7107" fill="none" id="Security (JWT)-to-React App" style="stroke:#181818;stroke-width:1;"/><polygon fill="#181818" points="444.75,415.12,436.9413,409.118,439.8899,413.9456,435.0623,416.8942,444.75,415.12" style="stroke:#181818;stroke-width:1;"/><text fill="#000000" font-family="sans-serif" font-size="13" lengthAdjust="spacing" textLength="68.4214" x="229.27" y="290.5669">JWT Token</text></g><!--link Repository Layer to SQL Server DB--><g class="link" data-entity-1="Repository Layer" data-entity-2="SQL Server DB" data-source-line="62" data-uid="lnk46" id="link_Repository Layer_SQL Server DB"><path d="M932.36,301.27 C977.15,301.42 1026.82,301.5893 1070.24,301.7393" fill="none" id="Repository Layer-to-SQL Server DB" style="stroke:#181818;stroke-width:1;"/><polygon fill="#181818" points="1076.24,301.76,1067.2539,297.7289,1071.24,301.7427,1067.2262,305.7289,1076.24,301.76" style="stroke:#181818;stroke-width:1;"/></g><!--link SQL Server DB to Repository Layer--><g class="link" data-entity-1="SQL Server DB" data-entity-2="Repository Layer" data-source-line="63" data-uid="lnk47" id="link_SQL Server DB_Repository Layer"><path d="M1076.24,301.76 C1032.82,301.61 983.15,301.4401 938.36,301.2901" fill="none" id="SQL Server DB-to-Repository Layer" style="stroke:#181818;stroke-width:1;"/><polygon fill="#181818" points="932.36,301.27,941.3466,305.3001,937.36,301.2867,941.3733,297.3002,932.36,301.27" style="stroke:#181818;stroke-width:1;"/></g><!--SRC=[bLLHRzem47xFhpZrPLIYHTfZfKvA0blfA32SgWyR3yPSmQfZPxRJ5atxxpj3e422n5wY-FpT-RxlEoVkHUg2Mvv3RhGHIsjo16zBZDnkHvYyC1grPtwb4CfSVOuKFdlm1gnSB3tCfKNXfT5HzEdszXRIGRytp83rkpsWTLHmyS8N21UfabG7MXFamaDS59SNy2S2-9bOy-RGGkkHdfVJ4DfXfd1rzQK9qeIAtwLnqBhBiZ5Cy7U9phlcUXDJUhIDMncNwatgEQICDGAOvnxXWMjYTQB4ga0ch2pyDA9zRGY_4SiyxwDf3o0ffV9GEgaNiDvgmtuBjDfLk_wbrobtNCyLEdZijy4I4qfjWmjjRH6foVDIIq4X1s_IBs56DY2Lt1mK9BecP8Y4zgA_bNj9d7xl3Rk7pYLLReiLDcGdnX21SNzh8BtIYTfRerGb2KFxAWN2WAzs8XN6IM_iQY_8K9HM-XMqxf-oZLMzTu55cAUAvWROpKOaUL64PSEHbJErGmyZbVTDZPoeL-kkgU1-RwTADR2gJqPTHu19ZsNFfGfoLzxjcL2vFRP6e7DajQsc7kWGe9ReoZbGPY55ezlTE8kJc1rTr2xtVCOTajy_1X0OqvshhFw8G3UPRYCPdz4yRfmvH5H27cAEQDTg4cjKFAZ55SottN2n9Zc7LydXVXntxkGChGvJtyGj7JqyF0xxQPprHqFuEXWzhLdMFnf7TjsiBmUqllMoDen7Z9xenVLbFVDeF2WpmA732zdXfLzsWl0wgk6gATmLkm6AGsReZaLd3VQPOrqFVRYnftUZO_zHxOpUZWUxcUMX98nScw2Zlu_3Vm00]--></g></svg>