<svg xmlns="http://www.w3.org/2000/svg" xmlns:xlink="http://www.w3.org/1999/xlink" contentStyleType="text/css" data-diagram-type="DESCRIPTION" height="305px" preserveAspectRatio="none" style="width:432px;height:305px;background:#FFFFFF;" version="1.1" viewBox="0 0 432 305" width="432px" zoomAndPan="magnify"><defs/><g><!--entity ClientWebApp--><g class="entity" data-entity="ClientWebApp" data-source-line="3" data-uid="ent0002" id="entity_ClientWebApp"><rect fill="#F1F1F1" height="46.2969" rx="2.5" ry="2.5" style="stroke:#181818;stroke-width:0.5;" width="139.2236" x="62.2" y="7"/><rect fill="#F1F1F1" height="10" style="stroke:#181818;stroke-width:0.5;" width="15" x="181.4236" y="12"/><rect fill="#F1F1F1" height="2" style="stroke:#181818;stroke-width:0.5;" width="4" x="179.4236" y="14"/><rect fill="#F1F1F1" height="2" style="stroke:#181818;stroke-width:0.5;" width="4" x="179.4236" y="18"/><text fill="#000000" font-family="sans-serif" font-size="14" lengthAdjust="spacing" textLength="99.2236" x="77.2" y="39.9951">ClientWebApp</text></g><!--entity CloudServer--><g class="entity" data-entity="CloudServer" data-source-line="3" data-uid="ent0003" id="entity_CloudServer"><rect fill="#F1F1F1" height="46.2969" rx="2.5" ry="2.5" style="stroke:#181818;stroke-width:0.5;" width="125.9004" x="68.86" y="130.3"/><rect fill="#F1F1F1" height="10" style="stroke:#181818;stroke-width:0.5;" width="15" x="174.7604" y="135.3"/><rect fill="#F1F1F1" height="2" style="stroke:#181818;stroke-width:0.5;" width="4" x="172.7604" y="137.3"/><rect fill="#F1F1F1" height="2" style="stroke:#181818;stroke-width:0.5;" width="4" x="172.7604" y="141.3"/><text fill="#000000" font-family="sans-serif" font-size="14" lengthAdjust="spacing" textLength="85.9004" x="83.86" y="163.2951">CloudServer</text></g><!--entity SQLServer--><g class="entity" data-entity="SQLServer" data-source-line="4" data-uid="ent0005" id="entity_SQLServer"><rect fill="#F1F1F1" height="46.2969" rx="2.5" ry="2.5" style="stroke:#181818;stroke-width:0.5;" width="113.6162" x="7" y="253.59"/><rect fill="#F1F1F1" height="10" style="stroke:#181818;stroke-width:0.5;" width="15" x="100.6162" y="258.59"/><rect fill="#F1F1F1" height="2" style="stroke:#181818;stroke-width:0.5;" width="4" x="98.6162" y="260.59"/><rect fill="#F1F1F1" height="2" style="stroke:#181818;stroke-width:0.5;" width="4" x="98.6162" y="264.59"/><text fill="#000000" font-family="sans-serif" font-size="14" lengthAdjust="spacing" textLength="73.6162" x="22" y="286.5851">SQLServer</text></g><!--entity AWSS3--><g class="entity" data-entity="AWSS3" data-source-line="5" data-uid="ent0007" id="entity_AWSS3"><rect fill="#F1F1F1" height="46.2969" rx="2.5" ry="2.5" style="stroke:#181818;stroke-width:0.5;" width="90.1006" x="155.76" y="253.59"/><rect fill="#F1F1F1" height="10" style="stroke:#181818;stroke-width:0.5;" width="15" x="225.8606" y="258.59"/><rect fill="#F1F1F1" height="2" style="stroke:#181818;stroke-width:0.5;" width="4" x="223.8606" y="260.59"/><rect fill="#F1F1F1" height="2" style="stroke:#181818;stroke-width:0.5;" width="4" x="223.8606" y="264.59"/><text fill="#000000" font-family="sans-serif" font-size="14" lengthAdjust="spacing" textLength="50.1006" x="170.76" y="286.5851">AWSS3</text></g><g class="entity" data-entity="GMN9" data-source-line="8" data-uid="ent0010" id="entity_GMN9"><path d="M230.17,133.31 L230.17,149.44 L194.97,153.44 L230.17,157.44 L230.17,173.5756 A0,0 0 0 0 230.17,173.5756 L425.4512,173.5756 A0,0 0 0 0 425.4512,173.5756 L425.4512,143.31 L415.4512,133.31 L230.17,133.31 A0,0 0 0 0 230.17,133.31" fill="#FAFAFA" style="stroke:#181818;stroke-width:0.5;"/><path d="M415.4512,133.31 L415.4512,143.31 L425.4512,143.31 L415.4512,133.31" fill="#FAFAFA" style="stroke:#181818;stroke-width:0.5;"/><text fill="#000000" font-family="sans-serif" font-size="13" lengthAdjust="spacing" textLength="72.3442" x="236.17" y="150.3769">1000 users</text><text fill="#000000" font-family="sans-serif" font-size="13" lengthAdjust="spacing" textLength="174.2813" x="236.17" y="165.5097">80pct transactions in 2min</text></g><!--link ClientWebApp to CloudServer--><g class="link" data-entity-1="ClientWebApp" data-entity-2="CloudServer" data-source-line="3" data-uid="lnk4" id="link_ClientWebApp_CloudServer"><path d="M131.81,53.68 C131.81,75.47 131.81,102.29 131.81,124.03" fill="none" id="ClientWebApp-to-CloudServer" style="stroke:#181818;stroke-width:1;"/><polygon fill="#181818" points="131.81,130.03,135.81,121.03,131.81,125.03,127.81,121.03,131.81,130.03" style="stroke:#181818;stroke-width:1;"/><text fill="#000000" font-family="sans-serif" font-size="13" lengthAdjust="spacing" textLength="51.8477" x="132.81" y="96.3669">Internet</text></g><!--link CloudServer to SQLServer--><g class="link" data-entity-1="CloudServer" data-entity-2="SQLServer" data-source-line="4" data-uid="lnk6" id="link_CloudServer_SQLServer"><path d="M105.29,177 C96.71,185.5 87.86,195.75 81.81,206.59 C73.76,221 70.2737,233.1933 67.7637,247.2633" fill="none" id="CloudServer-to-SQLServer" style="stroke:#181818;stroke-width:1;"/><polygon fill="#181818" points="66.71,253.17,72.2284,245.0124,67.5881,248.2477,64.3528,243.6074,66.71,253.17" style="stroke:#181818;stroke-width:1;"/><text fill="#000000" font-family="sans-serif" font-size="13" lengthAdjust="spacing" textLength="74.6992" x="82.81" y="219.6569">Latency10s</text></g><!--link CloudServer to AWSS3--><g class="link" data-entity-1="CloudServer" data-entity-2="AWSS3" data-source-line="5" data-uid="lnk8" id="link_CloudServer_AWSS3"><path d="M144.84,177.01 C150.13,186.18 156.28,196.88 161.81,206.59 C170.68,222.16 177.6603,234.5195 185.2703,248.0595" fill="none" id="CloudServer-to-AWSS3" style="stroke:#181818;stroke-width:1;"/><polygon fill="#181818" points="188.21,253.29,187.2874,243.4845,185.7602,248.9313,180.3134,247.4041,188.21,253.29" style="stroke:#181818;stroke-width:1;"/><text fill="#000000" font-family="sans-serif" font-size="13" lengthAdjust="spacing" textLength="125.2329" x="171.81" y="219.6569">SubmissionStorage</text></g><!--SRC=[ROun2y8m58Jt_8ht1mgfBk8W52UXYsJe81tIzja6pKjuUH7yzwOkAZZUtNV7fPkZQDbwy872k73m2C8PbReSxmv9EXoQ67kegWCKA-J983-GUzZ3YGIPKDHly4RDkVs0hHMayLdhz0zjEcEsAsRou5rABf2Hm7OkBoW80hjv4GXN-EegW5fh3JaXfo9sEevIhbjATfGoaS0HRBmZXJJ1klC2]--></g></svg>